SplineFontDB: 1.0
FontName: DBThaiText-BoldOblique
FullName: DBThaiText Bold Oblique
FamilyName: DBThaiText
Weight: Bold
Copyright: Typeface (c) The Monotype Corporation plc. Data (c) The Monotype Corporation plc/Type Solutions Inc. 1990-1992. All Rights Reserved\n\nModified by TLWG
Version: 1.1 : May 12, 2003
ItalicAngle: -12
UnderlinePosition: -477
UnderlineWidth: 205
Ascent: 1638
Descent: 410
NeedsXUIDChange: 1
FSType: 0
PfmFamily: 33
TTFWeight: 700
TTFWidth: 5
Panose: 2 0 8 3 0 0 0 0 0 0
LineGap: 184
VLineGap: 0
ScriptLang: 3
 1 DFLT 1 dflt 
 1 latn 1 dflt 
 1 thai 1 dflt 
LangName: 1033 "" "" "" "PfaEdit : DBThaiTextBoldItalic : 13-0-2003" 
Encoding: compacted
OldEncoding: iso8859_1
UnicodeInterp: none
DisplaySize: -72
AntiAlias: 1
FitToEm: 1
WinInfo: 40 8 2
BeginPrivate: 3
BlueValues 31 [-31 0 726 753 786 804 959 976]
OtherBlues 11 [-260 -260]
ForceBold 4 true
EndPrivate
BeginChars: 293 258
StartChar: .notdef
Encoding: 0 -1 0
OldEncoding: 0
Width: 1090
Flags: W
HStem: -58 144<241 935> 1742 144<478 1171>
DStem: 478 1886 593 1742 65 -58 241 86 1171 1742 1348 1886 819 86 935 -58
Fore
65 -58 m 1
 478 1886 l 1
 1348 1886 l 1
 935 -58 l 1
 65 -58 l 1
241 86 m 1
 819 86 l 1
 1171 1742 l 1
 593 1742 l 1
 241 86 l 1
EndSplineSet
EndChar
StartChar: exclam
Encoding: 33 33 3
OldEncoding: 33
Width: 408
Flags: W
HStem: -1 21G<120 317> 939 20G<324 521>
DStem: 161 191 358 191 120 -1 317 -1 324 959 521 959 265 681 462 681
Fore
229 272 m 1
 265 681 l 1
 324 959 l 1
 521 959 l 1
 462 681 l 1
 317 272 l 1
 229 272 l 1
161 191 m 1
 358 191 l 1
 317 -1 l 1
 120 -1 l 1
 161 191 l 1
EndSplineSet
EndChar
StartChar: quotedbl
Encoding: 34 34 4
OldEncoding: 34
Width: 621
Flags: W
HStem: 939 20G<265 462 561 758>
Fore
244 620 m 1
 231 802 l 1
 265 959 l 1
 462 959 l 1
 428 802 l 1
 332 620 l 1
 244 620 l 1
540 620 m 1
 527 802 l 1
 561 959 l 1
 758 959 l 5
 724 802 l 1
 628 620 l 1
 540 620 l 1
EndSplineSet
EndChar
StartChar: numbersign
Encoding: 35 35 5
OldEncoding: 35
Width: 689
Flags: W
HStem: 191 150<33 122 321 394 597 691> 503 148<153 250 447 526 719 792>
DStem: 122 191 262 191 31 -36 170 -36 250 503 389 503 182 341 321 341 394 191 533 191 301 -36 443 -36 417 920 556 920 308 651 447 651 526 503 664 503 456 341 597 341 688 920 827 920 581 653 719 651
Fore
417 920 m 1
 556 920 l 1
 447 651 l 1
 581 653 l 1
 688 920 l 1
 827 920 l 1
 719 651 l 1
 823 651 l 1
 792 503 l 1
 664 503 l 1
 597 341 l 1
 722 341 l 1
 691 191 l 1
 533 191 l 1
 443 -36 l 1
 301 -36 l 1
 394 191 l 1
 262 191 l 1
 170 -36 l 1
 31 -36 l 1
 122 191 l 1
 3 191 l 1
 34 341 l 1
 182 341 l 1
 250 503 l 1
 123 503 l 1
 154 651 l 1
 308 651 l 1
 417 920 l 1
389 503 m 1
 321 341 l 1
 456 341 l 1
 526 503 l 1
 389 503 l 1
EndSplineSet
EndChar
StartChar: dollar
Encoding: 36 36 6
OldEncoding: 36
Width: 689
Flags: W
VStem: 39 179<197 236> 615 171<701 722>
DStem: 276 -23 362 -20 244 -158 332 -158 368 410 446 378 306 116 392 121 453 809 537 804 402 571 481 542
Fore
782 663 m 1
 611 663 l 1
 614 677 615 690 615 703 c 0
 615 726 610 746 597 763 c 1
 577 785 557 799 537 804 c 1
 481 542 l 1
 566 520 629 487 672 445 c 0
 702 416 716 379 716 335 c 0
 716 317 714 298 709 277 c 0
 696 217 675 169 646 131 c 0
 615 90 584 62 554 45 c 1
 517 22 482 7 449 1 c 1
 362 -20 l 1
 332 -158 l 1
 244 -158 l 1
 276 -23 l 1
 231 -15 l 2
 222 -13 205 -8 179 1 c 0
 153 9 135 17 124 26 c 0
 95 53 79 68 75 72 c 0
 51 105 39 147 39 197 c 0
 39 222 42 249 48 279 c 1
 221 279 l 1
 219 263 218 249 218 236 c 0
 218 220 219 207 222 195 c 0
 229 172 234 157 242 149 c 0
 252 140 262 133 275 129 c 1
 281 123 291 119 306 116 c 1
 368 410 l 1
 295 425 239 453 198 494 c 0
 165 528 148 568 148 617 c 0
 148 633 150 650 154 668 c 0
 167 745 205 809 267 860 c 1
 321 906 392 933 481 940 c 1
 496 1012 l 1
 581 1012 l 1
 566 940 l 1
 713 930 786 857 786 722 c 0
 786 704 785 684 782 663 c 1
402 571 m 1
 453 809 l 1
 382 797 339 754 322 681 c 1
 321 674 321 668 321 662 c 0
 321 651 322 641 325 633 c 0
 329 617 338 605 349 598 c 0
 363 587 381 578 402 571 c 1
446 378 m 1
 392 121 l 1
 422 133 l 1
 437 138 452 144 465 151 c 0
 478 158 490 168 501 182 c 0
 511 195 520 212 527 233 c 1
 530 248 531 261 531 274 c 0
 531 326 503 361 446 378 c 1
EndSplineSet
EndChar
StartChar: percent
Encoding: 37 37 7
OldEncoding: 37
Width: 1103
Flags: W
HStem: -21 21G<200 304> -14 129<826 853> 335 132<900 928> 446 132<299 327> 798 131<374 401>
VStem: 101 135<632 665> 462 135<713 739> 630 135<170 205> 989 135<250 276>
DStem: 931 934 1033 934 200 -21 304 -21
Fore
304 -21 m 1
 200 -21 l 1
 931 934 l 1
 1033 934 l 1
 304 -21 l 1
636 227 m 0
 650 291 685 347 741 395 c 0
 797 443 860 467 928 467 c 0
 992 467 1043 443 1081 395 c 0
 1110 360 1124 320 1124 276 c 0
 1124 260 1122 244 1118 227 c 0
 1104 158 1067 101 1009 55 c 0
 951 9 890 -14 826 -14 c 0
 758 -14 705 9 669 55 c 0
 643 88 630 126 630 170 c 0
 630 188 632 207 636 227 c 0
107 686 m 0
 121 754 157 811 214 858 c 0
 273 906 334 929 401 929 c 0
 468 929 520 906 555 858 c 1
 583 823 597 783 597 739 c 0
 597 722 595 704 591 686 c 0
 577 619 540 562 483 516 c 0
 426 469 365 446 299 446 c 0
 234 446 181 469 142 516 c 0
 115 549 101 588 101 632 c 0
 101 649 103 667 107 686 c 0
767 227 m 0
 766 220 765 212 765 205 c 0
 765 185 771 166 783 147 c 1
 801 126 824 115 853 115 c 0
 883 115 912 126 938 147 c 0
 963 170 980 196 986 227 c 0
 988 235 989 243 989 250 c 0
 989 270 982 287 969 302 c 1
 953 324 930 335 900 335 c 0
 869 335 842 324 816 302 c 0
 790 280 773 255 767 227 c 0
238 686 m 0
 236 679 236 672 236 665 c 0
 236 645 242 627 255 611 c 0
 270 589 295 578 327 578 c 0
 357 578 385 589 410 611 c 1
 436 631 452 656 459 686 c 0
 461 695 462 704 462 713 c 0
 462 733 456 752 445 768 c 0
 429 788 406 798 374 798 c 0
 342 798 312 788 288 768 c 1
 261 742 244 715 238 686 c 0
EndSplineSet
EndChar
StartChar: ampersand
Encoding: 38 38 8
OldEncoding: 38
Width: 891
Flags: W
HStem: -26 151<326 355> 0 21G<645 857> 813 148<540 571>
VStem: 61 179<184 248> 266 183<694 730>
DStem: 396 419 555 519 525 201 658 340
Fore
738 493 m 1
 890 493 l 1
 880 446 861 396 833 343 c 0
 807 294 774 250 733 213 c 1
 857 0 l 1
 645 0 l 1
 597 82 l 1
 541 42 499 15 472 3 c 0
 429 -16 380 -26 326 -26 c 4
 317 -26 l 0
 237 -26 170 -2 117 47 c 0
 79 82 61 127 61 184 c 0
 61 205 63 228 69 252 c 1
 86 310 l 1
 101 350 124 386 155 417 c 0
 186 447 217 470 247 484 c 1
 334 530 l 1
 295 588 l 2
 286 602 277 623 271 650 c 0
 268 665 266 679 266 694 c 0
 266 706 267 717 270 729 c 0
 277 760 290 789 309 817 c 2
 313 822 l 2
 340 866 378 901 425 926 c 0
 472 949 520 961 571 961 c 0
 631 961 678 947 712 919 c 0
 747 892 763 856 763 808 c 0
 763 806 763 804 763 801 c 1
 759 751 l 1
 748 701 726 658 691 621 c 1
 657 587 612 553 555 519 c 1
 658 340 l 1
 675 351 690 369 705 396 c 0
 721 420 731 444 736 468 c 1
 738 493 l 1
464 674 m 2
 495 623 l 1
 539 645 l 1
 555 657 564 665 570 671 c 0
 581 686 590 702 596 720 c 1
 599 734 601 747 601 758 c 0
 601 769 599 779 596 787 c 1
 593 804 575 813 540 813 c 0
 496 813 466 797 453 766 c 1
 450 753 449 741 449 730 c 0
 449 709 454 690 464 674 c 2
525 201 m 1
 396 419 l 1
 294 361 l 1
 268 343 251 315 243 278 c 0
 241 268 240 258 240 248 c 0
 240 215 252 185 277 157 c 1
 300 136 326 125 355 125 c 0
 400 125 457 151 525 201 c 1
EndSplineSet
EndChar
StartChar: quotesingle
Encoding: 39 39 9
OldEncoding: 39
Width: 294
Flags: W
HStem: 939 20G<265 462>
Fore
244 620 m 1
 231 802 l 1
 265 959 l 1
 462 959 l 1
 428 802 l 1
 332 620 l 1
 244 620 l 1
EndSplineSet
EndChar
StartChar: parenleft
Encoding: 40 40 10
OldEncoding: 40
Width: 411
Flags: W
HStem: 955 20G<448 579>
VStem: 90 163<146 196>
Fore
448 975 m 1
 579 975 l 1
 509 885 446 791 391 694 c 0
 337 602 301 511 281 419 c 1
 271 361 l 1
 259 291 253 221 253 150 c 0
 253 111 255 72 259 32 c 1
 267 -82 286 -177 318 -253 c 1
 187 -253 l 1
 129 -88 l 2
 118 -54 108 -14 101 32 c 0
 94 75 91 126 90 184 c 0
 90 193 90 203 90 212 c 0
 90 259 94 309 104 361 c 1
 117 424 137 484 163 541 c 0
 163 543 164 545 165 546 c 0
 187 601 216 657 250 712 c 0
 283 765 313 808 341 842 c 2
 448 975 l 1
EndSplineSet
EndChar
StartChar: parenright
Encoding: 41 41 11
OldEncoding: 41
Width: 413
Flags: W
HStem: 955 20G<214 343>
VStem: 292 160<558 580>
Fore
214 975 m 1
 343 975 l 1
 385 880 416 782 439 683 c 0
 448 642 452 599 452 554 c 0
 452 494 444 429 429 361 c 0
 403 248 362 146 307 54 c 1
 254 -31 180 -133 82 -253 c 1
 -47 -253 l 1
 19 -176 80 -81 136 32 c 0
 192 143 234 253 262 361 c 2
 275 414 l 1
 285 461 290 509 292 558 c 0
 292 567 l 0
 292 599 288 645 280 703 c 0
 273 765 264 811 255 842 c 0
 248 875 234 919 214 975 c 1
EndSplineSet
EndChar
StartChar: asterisk
Encoding: 42 42 12
OldEncoding: 42
Width: 481
Flags: W
DStem: 344 603 442 676 417 477 515 548 368 930 470 930 333 768 435 768
Fore
229 477 m 1
 158 548 l 1
 289 676 l 1
 157 727 l 1
 210 819 l 1
 333 768 l 1
 368 930 l 1
 470 930 l 1
 435 768 l 1
 580 819 l 1
 596 727 l 1
 442 676 l 1
 515 548 l 1
 417 477 l 1
 344 603 l 1
 229 477 l 1
EndSplineSet
EndChar
StartChar: plus
Encoding: 43 43 13
OldEncoding: 43
Width: 723
Flags: W
HStem: 391 157<135 344 535 743> 769 20G<429 587>
DStem: 344 391 502 391 293 150 451 150 429 789 587 789 377 548 535 548
Fore
429 789 m 5
 587 789 l 5
 535 548 l 5
 776 548 l 5
 743 391 l 5
 502 391 l 5
 451 150 l 5
 293 150 l 5
 344 391 l 5
 103 391 l 5
 136 548 l 5
 377 548 l 5
 429 789 l 5
EndSplineSet
EndChar
StartChar: comma
Encoding: 44 44 14
OldEncoding: 44
Width: 423
Flags: W
Fore
336 81 m 4
 326 19 293 -33 239 -74 c 4
 187 -115 139 -138 94 -144 c 5
 85 -111 l 5
 121 -94 147 -80 164 -67 c 5
 186 -54 202 -32 213 0 c 5
 190 0 167 7 146 21 c 4
 131 31 124 48 124 73 c 0
 124 81 125 89 126 99 c 4
 132 126 145 150 167 172 c 5
 187 190 212 200 240 200 c 4
 280 200 307 189 323 167 c 4
 334 151 340 133 340 113 c 0
 340 103 339 92 336 81 c 4
EndSplineSet
EndChar
StartChar: hyphen
Encoding: 45 45 15
OldEncoding: 45
Width: 412
Flags: W
HStem: 286 180<108 430>
Fore
109 466 m 1
 468 466 l 1
 430 286 l 1
 71 286 l 1
 109 466 l 1
EndSplineSet
EndChar
StartChar: period
Encoding: 46 46 16
OldEncoding: 46
Width: 309
Flags: W
HStem: -27 21G<119 150>
Fore
135 -27 m 4
 103 -27 82 -18 70 1 c 4
 61 14 56 30 56 47 c 0
 56 54 57 62 59 70 c 4
 64 96 78 118 99 137 c 4
 119 156 144 165 176 165 c 4
 206 165 228 156 240 137 c 4
 249 125 254 111 254 95 c 0
 254 87 253 79 251 70 c 4
 245 43 232 20 211 1 c 4
 191 -18 165 -27 135 -27 c 4
EndSplineSet
EndChar
StartChar: slash
Encoding: 47 47 17
OldEncoding: 47
Width: 344
Flags: W
HStem: -17 21G<-23 61>
DStem: 459 943 540 943 -23 -17 61 -17
Fore
459 943 m 1
 540 943 l 1
 61 -17 l 5
 -23 -17 l 1
 459 943 l 1
EndSplineSet
EndChar
StartChar: zero
Encoding: 48 48 18
OldEncoding: 48
Width: 689
Flags: W
HStem: -30 170<311 347> 787 167<484 520>
VStem: 69 179<225 259> 584 181<673 725>
Fore
311 -30 m 0
 266 -30 225 -22 189 -6 c 0
 151 11 123 33 106 61 c 0
 81 103 69 162 69 236 c 0
 69 300 78 376 97 464 c 0
 137 654 197 787 277 864 c 0
 305 891 342 914 388 931 c 0
 428 947 472 954 520 954 c 0
 620 954 689 924 728 864 c 1
 753 822 765 764 765 690 c 0
 765 626 756 551 738 464 c 0
 698 276 637 141 557 61 c 1
 493 1 411 -30 311 -30 c 0
347 140 m 0
 405 140 446 161 472 202 c 1
 498 250 526 338 553 464 c 0
 574 566 584 643 584 695 c 0
 584 706 584 716 583 725 c 1
 575 767 542 787 484 787 c 0
 457 787 433 782 412 772 c 0
 390 760 373 745 362 725 c 0
 334 679 307 592 280 464 c 0
 258 364 248 290 248 241 c 0
 248 225 249 212 251 202 c 1
 254 161 286 140 347 140 c 0
EndSplineSet
EndChar
StartChar: one
Encoding: 49 49 19
OldEncoding: 49
Width: 697
Flags: W
HStem: 0 21G<278 463> 646 123<220 251.313>
DStem: 415 646 661 933 278 0 463 0
Fore
661 933 m 1
 463 0 l 5
 278 0 l 1
 415 646 l 1
 194 646 l 1
 220 769 l 1
 256 769 294 773 336 782 c 0
 376 789 408 801 434 817 c 0
 494 854 529 892 539 933 c 1
 661 933 l 1
EndSplineSet
EndChar
StartChar: two
Encoding: 50 50 20
OldEncoding: 50
Width: 689
Flags: W
HStem: -1 166<274 632> 802 153<487 523>
VStem: 591 189<698 734> 592 188<713 734>
Fore
667 165 m 1
 632 -1 l 5
 -2 -1 l 1
 16 59 38 116 66 168 c 0
 95 221 142 269 208 311 c 0
 213 314 258 343 344 399 c 2
 346 400 l 1
 347 401 l 1
 380 423 l 2
 441 463 484 493 505 513 c 0
 551 558 577 602 586 646 c 0
 589 661 591 678 591 698 c 0
 591 700 591 701 591 703 c 0
 592 707 592 711 592 715 c 0
 592 743 582 763 563 776 c 0
 540 794 514 802 487 802 c 1
 455 798 l 1
 389 784 344 721 321 610 c 1
 142 610 l 1
 165 720 210 806 277 867 c 0
 344 926 426 955 523 955 c 0
 529 955 536 955 542 955 c 0
 690 948 769 881 779 754 c 0
 780 747 780 741 780 734 c 0
 780 698 775 659 765 615 c 0
 744 529 649 434 480 330 c 0
 369 262 300 206 274 165 c 1
 667 165 l 1
EndSplineSet
EndChar
StartChar: three
Encoding: 51 51 21
OldEncoding: 51
Width: 689
Flags: W
HStem: -30 148<304 370> 418 124<335 363> 809 146<480 529>
VStem: 49 179<190 226> 512 192<301 339>
Fore
56 274 m 1
 231 274 l 1
 229 256 228 241 228 226 c 0
 228 218 229 211 229 204 c 0
 230 188 236 173 245 160 c 0
 254 147 269 138 287 131 c 0
 317 123 344 118 370 118 c 1
 394 126 413 137 428 149 c 0
 472 184 499 225 509 272 c 0
 511 282 512 292 512 301 c 0
 512 331 501 357 478 378 c 1
 447 405 399 418 335 418 c 1
 361 542 l 1
 410 542 454 551 494 568 c 0
 530 584 554 611 567 648 c 2
 579 688 l 1
 582 700 583 711 583 723 c 0
 583 732 582 740 581 749 c 1
 575 766 564 781 548 792 c 0
 530 803 507 809 480 809 c 0
 471 809 l 0
 425 809 390 794 366 762 c 1
 347 734 330 693 317 639 c 1
 148 639 l 1
 162 708 183 764 212 807 c 0
 238 850 285 889 353 924 c 0
 395 945 453 955 529 955 c 0
 550 955 l 0
 622 955 675 936 710 899 c 0
 739 869 756 836 760 800 c 0
 761 789 762 779 762 767 c 0
 762 738 758 705 750 670 c 1
 738 630 723 600 704 579 c 0
 686 558 654 532 610 500 c 1
 654 470 682 437 693 401 c 1
 700 384 704 363 704 339 c 0
 704 312 700 280 691 244 c 0
 675 181 634 118 569 56 c 1
 507 -1 419 -30 304 -30 c 4
 260 -30 218 -23 177 -10 c 0
 138 1 106 28 80 72 c 0
 60 106 49 137 49 166 c 0
 49 167 49 167 49 167 c 1
 49 174 49 182 49 190 c 0
 49 214 51 242 56 274 c 1
EndSplineSet
EndChar
StartChar: four
Encoding: 52 52 22
OldEncoding: 52
Width: 689
Flags: W
HStem: 0 21G<363 548> 206 150<198 407 624 690>
DStem: 407 206 592 206 363 0 548 0 521 745 746 933 439 356 624 356 532 933 521 745 68 364 198 356
Fore
532 933 m 1
 746 933 l 1
 624 356 l 1
 722 356 l 1
 690 206 l 1
 592 206 l 1
 548 0 l 5
 363 0 l 1
 407 206 l 1
 35 206 l 1
 68 364 l 1
 532 933 l 1
521 745 m 1
 198 356 l 1
 439 356 l 1
 521 745 l 1
EndSplineSet
EndChar
StartChar: five
Encoding: 53 53 23
OldEncoding: 53
Width: 689
Flags: W
HStem: -28 156<311 342> 484 148<405 484> 771 164<306 768>
VStem: 525 191<369 397>
DStem: 306 935 384 771 110 417 311 578
Fore
46 245 m 1
 229 245 l 1
 228 236 227 227 227 219 c 0
 227 207 229 197 231 187 c 0
 234 169 244 155 261 146 c 0
 280 134 307 128 342 128 c 0
 390 130 428 148 459 183 c 1
 487 218 507 259 517 305 c 0
 522 330 525 352 525 371 c 0
 525 394 521 413 513 428 c 1
 491 465 455 484 405 484 c 0
 402 484 399 484 397 484 c 0
 345 484 306 461 280 417 c 1
 110 417 l 1
 306 935 l 1
 803 935 l 1
 768 771 l 1
 384 771 l 1
 311 578 l 1
 350 599 382 613 406 620 c 0
 435 628 461 632 484 632 c 0
 518 632 550 626 580 616 c 0
 638 594 678 555 699 499 c 1
 710 467 716 433 716 397 c 0
 716 370 713 343 707 314 c 0
 691 242 658 176 611 117 c 0
 574 74 533 41 488 18 c 0
 446 -5 387 -20 311 -28 c 5
 254 -28 210 -22 179 -9 c 0
 151 2 125 20 100 44 c 0
 79 66 61 90 48 117 c 1
 40 142 37 162 37 177 c 0
 37 180 37 183 37 185 c 1
 46 245 l 1
EndSplineSet
EndChar
StartChar: six
Encoding: 54 54 24
OldEncoding: 54
Width: 689
Flags: W
HStem: -30 21G<280.5 315.5 314 323> 475 141<420 518> 725 21G<607 779> 811 146<515 543>
VStem: 71 165<195 259> 540 177<361 396>
Fore
779 725 m 1
 607 725 l 1
 601 780 571 809 517 811 c 0
 479 811 445 802 416 783 c 1
 388 767 368 747 355 723 c 0
 334 687 318 646 308 597 c 0
 304 580 302 563 301 547 c 1
 334 571 365 588 393 597 c 0
 427 610 469 616 518 616 c 0
 601 616 660 579 695 505 c 0
 710 472 717 436 717 396 c 0
 717 371 714 344 708 316 c 0
 694 251 673 198 644 156 c 0
 603 93 556 47 506 19 c 0
 452 -11 391 -27 323 -30 c 4
 314 -30 l 0
 247 -30 192 -9 146 34 c 1
 102 79 76 133 71 195 c 1
 71 207 70 219 70 232 c 0
 70 298 80 376 99 466 c 0
 119 561 146 641 181 709 c 1
 220 782 270 841 330 887 c 0
 391 933 462 957 543 957 c 1
 594 954 l 1
 679 943 734 914 758 866 c 1
 774 829 782 793 782 759 c 0
 782 748 781 736 779 725 c 1
282 392 m 1
 263 365 250 333 242 297 c 0
 238 278 236 260 236 244 c 0
 236 219 241 196 251 177 c 0
 265 150 293 133 335 126 c 1
 382 126 422 140 452 167 c 1
 495 207 522 255 534 310 c 0
 538 328 540 345 540 361 c 0
 540 382 536 402 529 420 c 1
 510 457 474 475 420 475 c 1
 392 473 367 465 346 452 c 1
 320 439 299 419 282 392 c 1
EndSplineSet
EndChar
StartChar: seven
Encoding: 55 55 25
OldEncoding: 55
Width: 688
Flags: W
HStem: 0 21G<132 316> 769 164<194 620>
Fore
195 933 m 1
 850 933 l 1
 820 789 l 1
 759 732 703 673 651 612 c 0
 602 556 555 493 509 424 c 0
 465 356 427 289 396 223 c 1
 364 150 337 76 316 0 c 5
 132 0 l 1
 163 93 196 173 229 241 c 1
 258 304 293 367 334 429 c 0
 370 484 413 539 459 592 c 1
 502 646 557 705 620 769 c 1
 160 769 l 1
 195 933 l 1
EndSplineSet
EndChar
StartChar: eight
Encoding: 56 56 26
OldEncoding: 56
Width: 689
Flags: W
HStem: -30 154<309 334> 436 125<412 429> 816 141<483 520>
VStem: 39 193<199 227> 164 164<651 666> 516 201<321 341> 614 161<726 742>
Fore
629 133 m 1
 595 83 546 42 485 12 c 1
 421 -16 363 -30 309 -30 c 0
 306 -30 302 -30 299 -30 c 5
 243 -30 190 -14 141 17 c 0
 94 45 63 85 47 135 c 0
 41 155 39 176 39 199 c 0
 39 221 41 246 47 272 c 0
 70 380 135 459 240 510 c 1
 216 535 193 562 177 593 c 0
 168 611 164 631 164 653 c 0
 164 667 166 681 169 697 c 0
 179 741 197 780 224 816 c 1
 257 861 298 895 346 919 c 0
 394 944 445 957 502 957 c 0
 630 957 712 922 746 853 c 0
 766 816 775 779 775 742 c 0
 775 727 773 711 770 695 c 0
 760 651 740 612 709 579 c 0
 676 545 641 522 603 510 c 1
 649 495 681 467 699 427 c 0
 711 400 717 372 717 341 c 0
 717 323 715 305 711 286 c 0
 698 228 672 177 629 133 c 1
529 591 m 1
 550 601 568 617 583 639 c 0
 597 660 607 681 611 703 c 0
 613 712 614 720 614 728 c 0
 614 746 609 761 600 774 c 1
 582 802 551 816 507 816 c 0
 498 816 l 0
 455 816 419 804 388 780 c 1
 357 759 339 731 332 695 c 0
 329 684 328 674 328 664 c 0
 328 640 335 618 349 597 c 1
 369 573 396 561 429 561 c 0
 433 561 436 561 440 561 c 0
 478 561 508 571 529 591 c 1
449 167 m 1
 462 177 474 194 486 215 c 0
 498 242 507 265 512 286 c 0
 515 299 516 312 516 324 c 0
 516 342 513 360 506 376 c 0
 490 414 458 434 412 436 c 0
 366 436 327 421 296 392 c 0
 268 367 249 330 239 281 c 0
 235 261 232 243 232 227 c 0
 232 208 235 191 242 177 c 1
 267 142 297 124 334 124 c 1
 338 124 342 124 345 124 c 0
 384 124 419 138 449 167 c 1
EndSplineSet
EndChar
StartChar: nine
Encoding: 57 57 27
OldEncoding: 57
Width: 689
Flags: W
HStem: -30 146<282 313> 303 158<356 406> 804 157<474 503>
VStem: 49 183<180 200> 119 169<537 580> 593 172<666 691>
Fore
54 219 m 1
 235 219 l 1
 233 213 232 206 232 200 c 0
 232 182 238 165 249 149 c 1
 268 127 289 116 313 116 c 0
 384 116 438 145 474 204 c 0
 502 251 520 294 529 334 c 0
 532 347 533 358 533 367 c 0
 533 374 532 380 531 385 c 1
 499 354 463 331 421 316 c 0
 400 307 379 303 356 303 c 0
 321 303 298 305 285 308 c 0
 198 325 145 377 127 464 c 0
 122 487 119 512 119 537 c 0
 119 565 122 595 129 625 c 0
 144 696 171 756 209 804 c 0
 243 848 287 886 341 917 c 0
 389 946 443 961 503 961 c 1
 548 956 l 1
 572 956 599 949 630 935 c 0
 662 918 691 897 713 871 c 0
 739 840 752 809 753 776 c 1
 761 743 765 707 765 668 c 0
 765 617 758 560 745 498 c 0
 729 424 707 354 680 288 c 1
 644 212 615 159 593 128 c 0
 542 63 491 20 438 1 c 0
 383 -20 331 -30 282 -30 c 4
 192 -30 128 -2 90 54 c 1
 63 96 49 138 49 180 c 0
 49 193 51 206 54 219 c 1
574 762 m 1
 554 790 521 804 474 804 c 0
 437 804 397 785 354 749 c 1
 325 718 304 677 293 625 c 0
 289 609 288 594 288 580 c 0
 288 550 296 525 311 504 c 0
 333 476 364 461 406 461 c 0
 448 461 486 477 520 508 c 1
 554 537 576 576 587 625 c 0
 591 645 593 664 593 682 c 0
 593 692 592 702 591 711 c 0
 589 736 584 753 574 762 c 1
EndSplineSet
EndChar
StartChar: colon
Encoding: 58 58 28
OldEncoding: 58
Width: 375
Flags: W
HStem: -25 185<180 219> 536 182<299 338>
Fore
180 -25 m 4
 151 -25 131 -15 119 4 c 5
 109 16 104 31 104 47 c 0
 104 54 105 61 106 68 c 4
 111 91 125 113 146 132 c 4
 166 151 190 160 219 160 c 4
 250 160 271 151 283 132 c 5
 293 121 297 107 297 91 c 0
 297 83 296 76 294 68 c 4
 289 44 277 22 256 4 c 4
 236 -15 211 -25 180 -25 c 4
299 536 m 4
 270 536 250 545 238 563 c 4
 228 578 224 595 224 611 c 0
 224 616 224 622 225 628 c 4
 230 649 243 669 265 691 c 4
 285 709 309 718 338 718 c 4
 368 718 389 709 402 693 c 5
 411 679 416 664 416 648 c 0
 416 641 415 635 413 628 c 4
 409 605 396 583 375 563 c 4
 355 545 330 536 299 536 c 4
EndSplineSet
EndChar
StartChar: semicolon
Encoding: 59 59 29
OldEncoding: 59
Width: 423
Flags: W
HStem: 1 200<213 240> 480 205<306 350>
Fore
306 480 m 4
 274 480 251 490 239 511 c 4
 230 525 226 540 226 557 c 0
 226 565 227 573 229 582 c 4
 234 607 247 631 269 654 c 5
 290 674 318 685 350 685 c 4
 385 685 407 674 419 654 c 4
 428 639 432 622 432 605 c 0
 432 597 431 590 430 582 c 4
 424 555 410 532 389 511 c 4
 366 490 338 480 306 480 c 4
336 82 m 4
 326 20 293 -32 239 -73 c 4
 187 -114 139 -137 95 -143 c 5
 86 -110 l 5
 121 -93 147 -79 164 -66 c 5
 186 -53 202 -31 213 1 c 5
 190 1 168 8 147 22 c 4
 131 32 124 49 124 74 c 0
 124 82 125 90 126 100 c 4
 132 127 145 152 167 173 c 5
 188 192 212 201 240 201 c 4
 280 201 307 190 324 168 c 4
 335 153 340 135 340 114 c 0
 340 104 339 93 336 82 c 4
EndSplineSet
EndChar
StartChar: less
Encoding: 60 60 30
OldEncoding: 60
Width: 724
Flags: W
DStem: 93 391 339 469 685 150 721 321 821 789 784 617 126 548 339 469
Fore
93 391 m 5
 126 548 l 5
 821 789 l 5
 784 617 l 5
 339 469 l 5
 721 321 l 5
 685 150 l 5
 93 391 l 5
EndSplineSet
EndChar
StartChar: equal
Encoding: 61 61 31
OldEncoding: 61
Width: 723
Flags: W
HStem: 230 163<103 709> 549 157<169 777>
Fore
170 706 m 5
 810 706 l 5
 777 549 l 5
 137 549 l 5
 170 706 l 5
104 393 m 5
 744 393 l 5
 709 230 l 5
 69 230 l 5
 104 393 l 5
EndSplineSet
EndChar
StartChar: greater
Encoding: 62 62 32
OldEncoding: 62
Width: 724
Flags: W
DStem: 141 617 178 789 522 469 769 548 522 469 736 391 78 321 42 150
Fore
178 789 m 5
 769 548 l 5
 736 391 l 5
 42 150 l 5
 78 321 l 5
 522 469 l 5
 141 617 l 5
 178 789 l 5
EndSplineSet
EndChar
StartChar: question
Encoding: 63 63 33
OldEncoding: 63
Width: 757
Flags: W
HStem: -2 21G<268 465> 806 173<527 557>
VStem: 640 196<711 747>
DStem: 308 190 505 190 268 -2 465 -2
Fore
492 261 m 1
 332 261 l 1
 347 328 370 383 404 426 c 1
 443 471 491 511 546 546 c 0
 597 577 626 623 637 682 c 0
 639 692 640 702 640 711 c 0
 640 736 632 757 614 773 c 0
 594 795 565 806 531 806 c 0
 492 806 455 791 420 761 c 1
 385 730 362 687 350 632 c 1
 173 632 l 1
 198 746 250 839 331 909 c 1
 399 955 474 979 557 979 c 0
 608 979 654 971 693 956 c 0
 733 940 763 919 784 894 c 0
 819 852 836 802 836 747 c 0
 836 726 834 704 829 682 c 0
 817 628 796 581 766 541 c 0
 758 530 748 519 737 507 c 0
 725 495 712 485 697 477 c 1
 660 451 l 1
 614 421 l 2
 567 390 538 367 527 351 c 0
 512 330 501 300 492 261 c 1
268 -2 m 1
 308 190 l 1
 505 190 l 1
 465 -2 l 5
 268 -2 l 1
EndSplineSet
EndChar
StartChar: at
Encoding: 64 64 34
OldEncoding: 64
Width: 1207
Flags: W
HStem: -173 116<518 568> 85 104<863 888> 598 92<724 749> 880 108<773 814>
VStem: 23 135<245 284> 325 133<262 296> 1168 120<566 607>
Fore
918 679 m 1
 1035 679 l 1
 841 281 l 1
 837 264 835 249 835 236 c 0
 835 233 835 231 835 228 c 1
 835 227 l 0
 835 213 840 201 851 193 c 1
 859 190 869 189 880 189 c 0
 904 189 924 194 942 205 c 1
 970 216 998 234 1025 260 c 0
 1056 290 1077 314 1088 332 c 1
 1124 387 1149 442 1160 496 c 0
 1165 520 1168 543 1168 566 c 0
 1168 573 1168 581 1167 589 c 1
 1167 590 l 0
 1167 624 1154 661 1129 704 c 0
 1106 743 1075 778 1037 807 c 0
 971 856 883 880 773 880 c 0
 742 880 704 877 659 869 c 0
 614 861 560 836 495 794 c 0
 439 758 386 713 336 661 c 0
 246 571 189 466 164 346 c 0
 160 328 158 308 158 284 c 0
 158 272 159 259 159 246 c 0
 164 203 171 172 177 154 c 0
 189 125 199 104 210 92 c 0
 258 27 332 -18 431 -43 c 0
 468 -52 508 -57 553 -57 c 0
 642 -57 735 -40 834 -8 c 1
 849 -112 l 1
 760 -152 650 -173 521 -173 c 0
 478 -173 443 -171 414 -166 c 0
 359 -155 321 -147 299 -140 c 0
 263 -129 226 -109 189 -80 c 0
 148 -50 113 -12 84 34 c 0
 58 72 41 120 31 177 c 0
 26 205 23 232 23 257 c 0
 23 281 26 304 30 326 c 0
 41 377 56 425 74 467 c 1
 90 509 113 550 143 591 c 1
 168 631 198 669 233 706 c 0
 287 764 350 817 418 865 c 1
 487 910 562 944 639 966 c 0
 693 981 751 988 814 988 c 0
 926 988 1020 964 1094 913 c 0
 1222 827 1287 720 1288 591 c 1
 1287 550 1283 513 1277 483 c 0
 1262 416 1237 356 1198 302 c 0
 1135 210 1065 147 990 112 c 0
 948 94 907 85 865 85 c 0
 840 85 813 89 786 96 c 0
 754 105 730 130 714 172 c 1
 658 133 616 109 588 98 c 0
 554 86 525 79 499 79 c 0
 479 79 451 88 414 105 c 0
 382 120 357 143 343 174 c 0
 331 203 325 232 325 262 c 0
 325 277 326 293 330 309 c 0
 333 326 338 341 344 355 c 0
 385 462 449 545 537 605 c 1
 613 662 684 690 749 690 c 0
 766 690 781 688 793 684 c 0
 846 670 875 642 880 600 c 1
 918 679 l 1
529 187 m 1
 576 187 615 199 647 223 c 1
 686 248 720 286 751 337 c 0
 780 386 800 432 809 476 c 0
 811 486 812 496 812 505 c 0
 812 549 790 578 746 593 c 1
 724 598 l 1
 703 598 681 592 656 580 c 0
 639 572 613 555 579 529 c 0
 554 507 531 479 512 445 c 0
 485 402 470 368 464 341 c 0
 460 325 458 310 458 296 c 0
 458 276 462 257 470 240 c 0
 481 211 501 193 529 187 c 1
EndSplineSet
EndChar
StartChar: A
Encoding: 65 65 35
OldEncoding: 65
Width: 892
Flags: W
HStem: -1 21G<-20 181 669 870> 191 164<386 643> 939 20G<517 745>
DStem: 517 959 289 191 -20 -1 181 -1 583 728 745 959 631 355 870 -1
Fore
745 959 m 1
 870 -1 l 1
 669 -1 l 5
 643 191 l 1
 289 191 l 1
 181 -1 l 1
 -20 -1 l 1
 517 959 l 1
 745 959 l 1
583 728 m 1
 386 355 l 1
 631 355 l 1
 583 728 l 1
EndSplineSet
EndChar
StartChar: B
Encoding: 66 66 36
OldEncoding: 66
Width: 891
Flags: W
HStem: -1 164<284 517> 411 164<371 597> 795 164<256 673>
VStem: 696 189<331 337> 754 191<707 767>
DStem: 256 959 418 795 52 -1 371 575 256 959 336 411 52 -1 284 163
Fore
52 -1 m 1
 256 959 l 1
 682 959 l 2
 714 959 754 953 801 941 c 0
 844 928 875 910 895 885 c 1
 919 864 934 843 941 820 c 1
 946 767 l 1
 945 707 l 1
 938 671 923 637 901 606 c 1
 879 570 850 539 812 511 c 1
 837 489 856 460 869 425 c 0
 880 395 885 365 885 333 c 0
 885 325 884 317 883 308 c 1
 872 252 855 205 831 168 c 0
 805 128 773 93 732 63 c 0
 671 20 589 -1 485 -1 c 6
 52 -1 l 1
418 795 m 1
 371 575 l 1
 595 575 l 2
 639 575 674 585 700 606 c 0
 727 627 745 653 751 684 c 0
 753 694 754 704 754 713 c 0
 754 768 720 795 651 795 c 2
 418 795 l 1
336 411 m 1
 284 163 l 1
 515 163 l 2
 555 163 591 171 624 186 c 0
 659 203 681 240 691 297 c 0
 694 311 696 324 696 335 c 0
 696 361 688 378 671 387 c 1
 650 403 616 411 572 411 c 2
 336 411 l 1
EndSplineSet
EndChar
StartChar: C
Encoding: 67 67 37
OldEncoding: 67
Width: 892
Flags: W
HStem: -31 170<428 456> 810 164<604 649>
VStem: 86 194<303 354> 794 194<653 699>
Fore
726 329 m 1
 918 329 l 1
 908 280 884 231 849 183 c 0
 814 135 775 94 731 62 c 0
 693 36 647 15 594 0 c 1
 533 -21 477 -31 428 -31 c 4
 425 -31 422 -31 418 -31 c 0
 320 -31 240 -2 179 57 c 0
 120 118 88 199 86 303 c 1
 86 312 85 322 85 332 c 0
 85 371 91 418 102 472 c 0
 118 547 139 608 165 655 c 1
 272 868 433 974 649 974 c 0
 751 974 833 949 893 900 c 0
 957 849 988 782 988 699 c 0
 988 678 987 657 983 634 c 1
 793 634 l 1
 794 640 794 647 794 653 c 0
 794 671 791 690 784 708 c 0
 773 736 755 760 727 779 c 0
 697 800 656 810 604 810 c 0
 589 810 l 0
 551 810 510 794 463 764 c 1
 421 732 388 697 365 657 c 0
 338 615 316 559 298 490 c 0
 291 462 286 426 282 382 c 1
 281 370 280 358 280 346 c 0
 280 327 282 308 286 289 c 0
 300 226 333 182 382 155 c 1
 407 144 431 139 456 139 c 0
 478 139 506 142 542 150 c 0
 603 165 645 189 670 222 c 0
 694 255 713 290 726 329 c 1
EndSplineSet
EndChar
StartChar: D
Encoding: 68 68 38
OldEncoding: 68
Width: 890
Flags: W
HStem: -1 164<276 477> 795 164<248 605>
VStem: 758 206<610 643>
DStem: 248 959 410 795 44 -1 276 163
Fore
44 -1 m 1
 248 959 l 1
 695 959 l 2
 732 959 766 952 799 938 c 0
 835 922 866 898 890 867 c 1
 914 839 935 795 953 734 c 1
 960 706 964 676 964 643 c 0
 964 606 959 566 950 522 c 0
 934 449 911 380 880 314 c 0
 854 261 823 213 787 168 c 0
 742 117 692 76 637 45 c 0
 581 14 528 -1 477 -1 c 6
 44 -1 l 1
410 795 m 1
 276 163 l 1
 433 163 l 2
 532 163 611 206 669 293 c 1
 701 343 726 411 744 496 c 0
 753 539 758 576 758 610 c 0
 758 648 752 681 740 707 c 0
 725 743 705 766 682 776 c 0
 653 789 622 795 588 795 c 2
 410 795 l 1
EndSplineSet
EndChar
StartChar: E
Encoding: 69 69 39
OldEncoding: 69
Width: 823
Flags: W
HStem: -1 164<283 768> 411 164<370 795> 795 164<255 915>
DStem: 255 959 417 795 51 -1 370 575 255 959 335 411 51 -1 283 163
Fore
255 959 m 1
 950 959 l 1
 915 795 l 1
 417 795 l 1
 370 575 l 1
 830 575 l 1
 795 411 l 1
 335 411 l 1
 283 163 l 1
 803 163 l 1
 768 -1 l 1
 51 -1 l 5
 255 959 l 1
EndSplineSet
EndChar
StartChar: F
Encoding: 70 70 40
OldEncoding: 70
Width: 754
Flags: W
HStem: -1 21G<47 244> 411 164<366 752> 795 164<251 890>
DStem: 251 959 413 795 47 -1 366 575 251 959 331 411 47 -1 244 -1
Fore
251 959 m 1
 925 959 l 1
 890 795 l 1
 413 795 l 1
 366 575 l 1
 787 575 l 1
 752 411 l 1
 331 411 l 1
 244 -1 l 5
 47 -1 l 1
 251 959 l 1
EndSplineSet
EndChar
StartChar: G
Encoding: 71 71 41
OldEncoding: 71
Width: 965
Flags: W
HStem: -31 161<431 468> -5 21G<759 877> 351 165<602 789> 812 162<627 664>
VStem: 84 192<346 373>
Fore
568 351 m 1
 603 516 l 1
 988 516 l 1
 877 -5 l 1
 759 -5 l 1
 760 115 l 1
 725 80 697 57 676 44 c 1
 654 24 619 7 571 -7 c 1
 525 -23 478 -31 431 -31 c 0
 426 -31 421 -31 415 -31 c 4
 381 -31 347 -24 311 -12 c 1
 291 -9 268 0 242 16 c 1
 223 29 207 43 193 57 c 2
 162 92 l 1
 125 138 102 194 91 261 c 0
 87 288 84 316 84 346 c 0
 84 386 89 428 98 472 c 0
 120 575 165 669 231 755 c 0
 298 843 379 906 472 942 c 0
 527 963 590 974 662 974 c 0
 723 974 779 967 829 953 c 0
 878 939 919 911 954 870 c 1
 997 816 1019 754 1019 687 c 0
 1019 677 1018 666 1017 655 c 1
 837 655 l 1
 832 710 811 749 776 773 c 0
 740 799 693 812 637 812 c 0
 580 812 519 795 455 759 c 1
 416 729 381 687 352 634 c 0
 321 577 299 523 288 470 c 0
 280 433 276 400 276 371 c 0
 276 346 279 323 285 303 c 0
 317 199 378 141 468 130 c 1
 564 130 643 160 705 220 c 1
 747 263 775 307 789 351 c 1
 568 351 l 1
EndSplineSet
EndChar
StartChar: H
Encoding: 72 72 42
OldEncoding: 72
Width: 893
Flags: W
HStem: -1 21G<35 232 612 811> 434 164<359 704> 939 20G<239 436 816 1015>
DStem: 239 959 436 959 35 -1 359 598 239 959 324 434 35 -1 232 -1 704 434 1015 959 612 -1 811 -1 816 959 1015 959 739 598 811 -1
Fore
35 -1 m 1
 239 959 l 1
 436 959 l 1
 359 598 l 1
 739 598 l 1
 816 959 l 1
 1015 959 l 1
 811 -1 l 1
 612 -1 l 1
 704 434 l 1
 324 434 l 1
 232 -1 l 5
 35 -1 l 1
EndSplineSet
EndChar
StartChar: I
Encoding: 73 73 43
OldEncoding: 73
Width: 344
Flags: W
HStem: -1 21G<63 260> 939 20G<267 464>
DStem: 267 959 464 959 63 -1 260 -1
Fore
464 959 m 1
 260 -1 l 5
 63 -1 l 1
 267 959 l 1
 464 959 l 1
EndSplineSet
EndChar
StartChar: J
Encoding: 74 74 44
OldEncoding: 74
Width: 692
Flags: W
HStem: -30 167<311 333> 941 20G<607 804>
VStem: 40 201<186 219>
DStem: 607 961 804 961 455 243 649 230
Fore
607 961 m 1
 804 961 l 1
 649 230 l 2
 635 166 601 109 546 60 c 0
 482 2 405 -28 314 -30 c 4
 307 -30 301 -30 295 -30 c 0
 222 -30 165 -19 124 5 c 0
 97 22 77 42 64 67 c 0
 49 94 42 121 42 150 c 0
 42 151 l 1
 41 163 40 175 40 186 c 0
 40 208 42 228 46 246 c 2
 69 354 l 1
 266 354 l 1
 246 257 l 2
 243 244 241 231 241 219 c 0
 241 203 244 189 248 175 c 0
 256 149 281 137 321 137 c 0
 325 137 328 137 331 137 c 0
 365 137 395 149 418 172 c 0
 437 192 449 216 455 243 c 2
 607 961 l 1
EndSplineSet
EndChar
StartChar: K
Encoding: 75 75 45
OldEncoding: 75
Width: 888
Flags: W
HStem: -1 21G<37 234 646 885> 939 20G<241 438 815 1049>
DStem: 241 959 438 959 37 -1 348 538 241 959 299 306 37 -1 234 -1 815 959 1049 959 348 538 581 542
Fore
37 -1 m 1
 241 959 l 1
 438 959 l 1
 348 538 l 1
 815 959 l 1
 1049 959 l 1
 581 542 l 1
 885 -1 l 1
 646 -1 l 1
 424 416 l 1
 299 306 l 1
 234 -1 l 5
 37 -1 l 1
EndSplineSet
EndChar
StartChar: L
Encoding: 76 76 46
OldEncoding: 76
Width: 754
Flags: W
HStem: -1 164<288 712> 939 20G<258 457>
DStem: 258 959 457 959 54 -1 288 163
Fore
258 959 m 1
 457 959 l 1
 288 163 l 1
 747 163 l 1
 712 -1 l 5
 54 -1 l 1
 258 959 l 1
EndSplineSet
EndChar
StartChar: M
Encoding: 77 77 47
OldEncoding: 77
Width: 1032
Flags: W
HStem: -1 21G<22 221 392 589 760 959> 939 20G<226 515 874 1163>
DStem: 226 959 386 776 22 -1 221 -1 925 776 1163 959 760 -1 959 -1
Fore
589 -1 m 1
 392 -1 l 1
 386 776 l 1
 221 -1 l 1
 22 -1 l 1
 226 959 l 1
 515 959 l 1
 539 221 l 1
 874 959 l 1
 1163 959 l 1
 959 -1 l 5
 760 -1 l 1
 925 776 l 1
 589 -1 l 1
EndSplineSet
EndChar
StartChar: N
Encoding: 78 78 48
OldEncoding: 78
Width: 892
Flags: W
HStem: -1 21G<35 232 620 815> 939 20G<239 434 822 1019>
DStem: 239 959 374 668 35 -1 232 -1 374 668 434 959 620 -1 682 299 822 959 1019 959 682 299 815 -1
Fore
239 959 m 1
 434 959 l 1
 682 299 l 1
 822 959 l 1
 1019 959 l 1
 815 -1 l 5
 620 -1 l 1
 374 668 l 1
 232 -1 l 1
 35 -1 l 1
 239 959 l 1
EndSplineSet
EndChar
StartChar: O
Encoding: 79 79 49
OldEncoding: 79
Width: 963
Flags: W
HStem: -31 172<450 487> 803 173<627 664>
VStem: 82 192<352 386> 840 190<560 610>
Fore
1017 472 m 0
 1003 403 975 334 934 263 c 0
 892 190 846 132 795 90 c 1
 703 9 587 -31 450 -31 c 4
 314 -31 215 9 154 90 c 0
 121 132 99 190 89 263 c 0
 84 294 82 324 82 354 c 0
 82 393 86 433 94 472 c 0
 110 544 138 614 178 682 c 0
 219 754 266 812 317 856 c 1
 413 936 529 976 664 976 c 0
 697 976 736 972 777 965 c 1
 817 955 851 941 879 923 c 1
 908 908 934 886 958 856 c 0
 991 812 1012 754 1023 682 c 0
 1028 653 1030 623 1030 593 c 0
 1030 553 1026 513 1017 472 c 0
487 141 m 0
 557 141 619 162 676 205 c 0
 716 236 748 274 773 319 c 0
 798 365 815 416 827 472 c 0
 836 511 840 548 840 582 c 0
 840 597 839 611 838 624 c 0
 832 670 815 708 789 737 c 0
 750 781 697 803 628 803 c 0
 557 803 493 781 436 737 c 0
 400 711 369 674 343 627 c 0
 315 577 296 525 284 472 c 0
 277 440 274 409 274 378 c 0
 274 359 275 340 278 322 c 0
 284 271 298 232 323 205 c 0
 360 162 416 141 487 141 c 0
EndSplineSet
EndChar
StartChar: P
Encoding: 80 80 50
OldEncoding: 80
Width: 823
Flags: W
HStem: -1 21G<46 245> 341 165<353 575> 795 164<250 639>
VStem: 734 196<708 751>
DStem: 250 959 414 795 46 -1 353 506 250 959 317 341 46 -1 245 -1
Fore
46 -1 m 1
 250 959 l 1
 678 959 l 2
 732 959 783 950 834 931 c 0
 881 913 911 871 925 804 c 0
 928 787 930 770 930 751 c 0
 930 723 926 693 920 661 c 0
 906 598 887 548 863 513 c 0
 786 398 681 341 551 341 c 2
 317 341 l 1
 245 -1 l 5
 46 -1 l 1
414 795 m 1
 353 506 l 1
 573 506 l 2
 619 506 660 533 699 586 c 1
 712 621 l 1
 720 637 726 653 729 670 c 0
 732 683 734 696 734 708 c 0
 734 713 734 717 733 721 c 0
 728 771 692 795 625 795 c 2
 414 795 l 1
EndSplineSet
EndChar
StartChar: Q
Encoding: 81 81 51
OldEncoding: 81
Width: 962
Flags: W
HStem: -29 172<453 489> 805 173<630 667>
VStem: 86 192<352 390> 843 193<570 606>
Fore
846 136 m 1
 929 37 l 1
 804 -69 l 1
 717 37 l 1
 634 -7 546 -29 453 -29 c 4
 318 -29 220 12 159 92 c 0
 127 132 105 189 93 263 c 0
 88 292 86 322 86 352 c 0
 86 392 90 433 99 474 c 0
 114 548 143 619 183 687 c 0
 226 759 272 816 321 858 c 1
 417 938 533 978 667 978 c 0
 733 978 791 968 841 949 c 0
 893 927 933 897 960 858 c 0
 995 811 1019 753 1030 684 c 0
 1034 659 1036 633 1036 606 c 0
 1036 564 1032 520 1022 474 c 0
 1009 413 987 351 956 291 c 1
 922 229 885 177 846 136 c 1
606 168 m 1
 525 261 l 1
 651 370 l 1
 736 265 l 1
 783 325 815 395 832 474 c 0
 839 508 843 542 843 576 c 0
 843 594 842 612 840 629 c 0
 834 674 818 710 791 740 c 1
 755 784 701 805 630 805 c 0
 561 805 498 784 440 740 c 0
 405 713 373 675 347 627 c 0
 317 573 297 522 287 474 c 0
 281 447 278 419 278 390 c 0
 278 369 280 347 283 324 c 0
 288 274 303 235 327 208 c 0
 365 165 419 143 489 143 c 0
 528 143 567 151 606 168 c 1
EndSplineSet
EndChar
StartChar: R
Encoding: 82 82 52
OldEncoding: 82
Width: 890
Flags: W
HStem: -1 21G<47 246 621 833> 378 164<361 576> 795 164<251 688>
VStem: 612 205<58 80>
DStem: 251 959 415 795 47 -1 361 542 251 959 326 378 47 -1 246 -1
Fore
47 -1 m 1
 251 959 l 1
 785 959 l 2
 812 959 842 953 874 941 c 1
 900 929 924 912 944 889 c 1
 963 865 973 838 974 807 c 1
 974 769 l 1
 972 730 l 1
 969 693 l 1
 963 664 953 637 941 612 c 0
 921 573 900 544 875 524 c 1
 854 504 822 483 779 462 c 1
 805 443 l 1
 835 420 l 1
 844 410 849 397 852 383 c 1
 856 373 858 360 858 343 c 0
 858 328 l 1
 841 224 l 1
 821 114 l 1
 818 101 817 90 817 80 c 0
 817 74 818 68 819 63 c 0
 823 53 830 44 840 34 c 1
 833 -1 l 1
 621 -1 l 1
 615 20 612 40 612 58 c 0
 612 69 613 80 615 89 c 2
 656 281 l 1
 656 287 656 292 656 297 c 0
 656 314 655 327 651 337 c 1
 640 352 628 363 615 369 c 0
 603 375 583 378 557 378 c 2
 326 378 l 1
 246 -1 l 5
 47 -1 l 1
415 795 m 1
 361 542 l 1
 630 542 l 2
 658 542 688 555 719 580 c 0
 748 604 768 640 778 686 c 0
 780 698 782 709 782 719 c 0
 782 770 748 795 681 795 c 2
 415 795 l 1
EndSplineSet
EndChar
StartChar: S
Encoding: 83 83 53
OldEncoding: 83
Width: 826
Flags: W
HStem: -31 163<355 433> 821 155<539 580>
VStem: 50 191<245 274> 710 194<698 750>
Fore
895 669 m 5
 707 669 l 5
 709 679 710 689 710 698 c 0
 710 714 708 728 702 742 c 4
 694 765 677 784 650 801 c 5
 622 814 587 821 544 821 c 4
 435 821 369 784 346 710 c 5
 343 694 341 680 341 669 c 0
 341 660 342 653 344 647 c 5
 352 634 367 624 386 615 c 5
 392 607 409 600 434 594 c 4
 435 594 470 586 538 571 c 4
 568 566 593 560 613 554 c 5
 717 536 786 505 820 461 c 4
 842 431 854 394 854 352 c 0
 854 333 851 312 847 291 c 4
 837 244 816 196 784 148 c 4
 751 99 713 62 671 39 c 5
 595 -5 490 -29 355 -31 c 4
 326 -31 288 -25 240 -12 c 4
 194 0 159 17 134 39 c 4
 98 69 74 106 63 150 c 4
 54 182 50 214 50 247 c 0
 50 260 51 274 52 287 c 5
 244 287 l 5
 242 277 241 267 241 257 c 0
 241 232 249 208 265 187 c 4
 293 150 349 132 433 132 c 4
 462 132 493 136 524 145 c 4
 551 151 575 162 596 176 c 4
 623 196 641 224 648 261 c 4
 650 270 651 279 651 287 c 0
 651 307 646 324 635 337 c 4
 624 353 606 366 582 375 c 4
 558 384 523 393 476 402 c 6
 366 423 l 6
 328 431 299 438 281 446 c 4
 250 456 224 473 200 495 c 4
 179 516 165 545 158 580 c 5
 155 594 154 610 154 628 c 0
 154 653 157 681 164 713 c 5
 189 792 237 857 306 907 c 5
 374 953 465 976 580 976 c 4
 644 976 701 969 749 956 c 4
 807 941 851 907 880 856 c 4
 896 826 904 791 904 750 c 0
 904 725 901 698 895 669 c 5
EndSplineSet
EndChar
StartChar: T
Encoding: 84 84 54
OldEncoding: 84
Width: 758
Flags: W
HStem: -1 21G<263 461> 795 164<175 432 176 909>
DStem: 432 795 630 795 263 -1 461 -1
Fore
176 959 m 1
 944 959 l 1
 909 795 l 1
 630 795 l 1
 461 -1 l 5
 263 -1 l 1
 432 795 l 1
 141 795 l 1
 176 959 l 1
EndSplineSet
EndChar
StartChar: U
Encoding: 85 85 55
OldEncoding: 85
Width: 892
Flags: W
HStem: -30 172<422 456> 941 20G<248 447 813 1010>
VStem: 100 202<232 260>
DStem: 248 961 447 961 108 299 306 297 813 961 1010 961 672 297 870 299
Fore
813 961 m 1
 1010 961 l 1
 870 299 l 2
 840 160 760 64 627 10 c 0
 561 -17 493 -30 422 -30 c 4
 361 -30 301 -19 244 3 c 1
 148 62 100 138 100 232 c 0
 100 254 103 276 108 299 c 2
 248 961 l 1
 447 961 l 1
 306 297 l 2
 303 284 302 272 302 260 c 0
 302 233 309 209 323 188 c 0
 342 157 386 142 454 142 c 0
 522 142 574 157 610 188 c 1
 643 220 664 257 672 297 c 2
 813 961 l 1
EndSplineSet
EndChar
StartChar: V
Encoding: 86 86 56
OldEncoding: 86
Width: 825
Flags: W
HStem: -1 21G<305 475> 939 20G<186 382 806 1005>
Fore
806 959 m 1
 1005 959 l 1
 475 -1 l 5
 305 -1 l 1
 186 959 l 1
 382 959 l 1
 441 235 l 1
 806 959 l 1
EndSplineSet
EndChar
StartChar: W
Encoding: 87 87 57
OldEncoding: 87
Width: 1170
Flags: W
HStem: -1 21G<213 392 708 887> 939 20G<148 360 651 859 1151 1359>
VStem: 704 144<230.195 352.953 492.814 729.789>
Fore
148 959 m 1
 360 959 l 1
 355 239 l 1
 651 959 l 1
 859 959 l 1
 848 230 l 1
 1151 959 l 1
 1359 959 l 1
 887 -1 l 1
 708 -1 l 1
 704 730 l 1
 392 -1 l 5
 213 -1 l 1
 148 959 l 1
EndSplineSet
EndChar
StartChar: X
Encoding: 88 88 58
OldEncoding: 88
Width: 825
Flags: W
HStem: -1 21G<-21 210 576 808> 939 20G<197 429 773 1005>
Fore
197 959 m 1
 429 959 l 1
 531 648 l 1
 773 959 l 1
 1005 959 l 1
 609 489 l 1
 808 -1 l 5
 576 -1 l 1
 462 325 l 1
 210 -1 l 1
 -21 -1 l 1
 384 482 l 1
 197 959 l 1
EndSplineSet
EndChar
StartChar: Y
Encoding: 89 89 59
OldEncoding: 89
Width: 825
Flags: W
HStem: -1 21G<300 497> 939 20G<188 407 787 1009>
DStem: 375 355 572 355 300 -1 497 -1
Fore
787 959 m 1
 1009 959 l 1
 572 355 l 1
 497 -1 l 5
 300 -1 l 1
 375 355 l 1
 188 959 l 1
 407 959 l 1
 516 545 l 1
 787 959 l 1
EndSplineSet
MinimumDistance: x6,1 
EndChar
StartChar: Z
Encoding: 90 90 60
OldEncoding: 90
Width: 758
Flags: W
HStem: -1 164<260 716> 792 167<196 652>
DStem: 652 792 885 795 28 163 260 163
Fore
197 959 m 1
 920 959 l 1
 885 795 l 1
 260 163 l 1
 751 163 l 1
 716 -1 l 5
 -7 -1 l 1
 28 163 l 1
 652 792 l 1
 162 795 l 1
 197 959 l 1
EndSplineSet
EndChar
StartChar: bracketleft
Encoding: 91 91 61
OldEncoding: 91
Width: 408
Flags: W
HStem: 842 133<267 555>
DStem: 267 975 410 842 6 -253 206 -116
Fore
555 842 m 1
 410 842 l 1
 206 -116 l 1
 351 -116 l 1
 322 -253 l 1
 6 -253 l 1
 267 975 l 1
 583 975 l 1
 555 842 l 1
EndSplineSet
EndChar
StartChar: backslash
Encoding: 92 92 62
OldEncoding: 92
Width: 344
Flags: W
HStem: -26 21G<256 353>
DStem: 162 934 262 934 256 -26 353 -26
Fore
162 934 m 1
 262 934 l 1
 353 -26 l 1
 256 -26 l 1
 162 934 l 1
EndSplineSet
EndChar
StartChar: bracketright
Encoding: 93 93 63
OldEncoding: 93
Width: 416
Flags: W
HStem: -253 137<-24 268> 955 20G<209 529>
DStem: 328 842 529 975 124 -116 268 -253
Fore
181 842 m 1
 209 975 l 1
 529 975 l 1
 268 -253 l 1
 -52 -253 l 1
 -23 -116 l 1
 124 -116 l 1
 328 842 l 1
 181 842 l 1
EndSplineSet
EndChar
StartChar: asciicircum
Encoding: 94 94 64
OldEncoding: 94
Width: 723
Flags: W
DStem: 447 897 495 731 109 337 257 337 495 731 610 897 567 337 715 337
Fore
109 337 m 1
 447 897 l 1
 610 897 l 1
 715 337 l 1
 567 337 l 1
 495 731 l 1
 257 337 l 1
 109 337 l 1
EndSplineSet
EndChar
StartChar: underscore
Encoding: 95 95 65
OldEncoding: 95
Width: 689
Flags: W
HStem: -184 92<-94 681>
Fore
700 -92 m 1
 681 -184 l 1
 -112 -184 l 1
 -93 -92 l 1
 700 -92 l 1
EndSplineSet
EndChar
StartChar: grave
Encoding: 96 96 66
OldEncoding: 96
Width: 535
Flags: W
HStem: 776 183<262 633>
Fore
633 776 m 5
 475 776 l 1
 262 959 l 1
 524 959 l 1
 633 776 l 5
EndSplineSet
EndChar
StartChar: a
Encoding: 97 97 67
OldEncoding: 97
Width: 689
Flags: W
HStem: -31 153<172 329> -1 21G<453 648> 591 132<436 466>
VStem: 546 173<538 560>
Fore
648 -1 m 1
 453 -1 l 1
 447 10 444 23 444 38 c 0
 444 48 445 59 448 70 c 1
 412 41 375 18 338 1 c 0
 292 -20 236 -31 172 -31 c 1
 74 -19 24 31 24 118 c 0
 24 139 27 163 33 189 c 0
 45 244 72 293 116 337 c 0
 153 375 210 401 289 414 c 1
 347 416 412 427 482 445 c 1
 515 461 537 488 545 527 c 0
 546 532 546 536 546 540 c 0
 546 555 539 567 524 575 c 0
 509 586 479 591 436 591 c 0
 389 589 355 578 333 557 c 1
 315 538 301 511 291 476 c 1
 117 476 l 1
 154 641 270 723 464 723 c 0
 534 723 588 715 627 697 c 0
 689 674 719 627 719 560 c 0
 719 541 717 521 712 499 c 2
 629 108 l 2
 628 101 627 95 627 89 c 0
 627 66 636 45 653 25 c 1
 648 -1 l 1
496 295 m 2
 504 335 l 1
 479 324 445 315 401 306 c 1
 324 297 l 1
 298 293 276 283 258 268 c 0
 238 250 225 230 220 207 c 1
 220 182 l 1
 222 170 226 159 231 149 c 0
 236 141 246 134 263 129 c 0
 279 125 300 122 329 122 c 1
 381 129 419 148 443 180 c 1
 468 209 486 247 496 295 c 2
EndSplineSet
EndChar
StartChar: b
Encoding: 98 98 68
OldEncoding: 98
Width: 756
Flags: W
HStem: -31 158<388 400> 0 21G<31 213> 565 159<489 571> 940 20G<235 417>
VStem: 604 190<407 453>
DStem: 235 960 417 960 31 0 344 615
Fore
31 0 m 5
 235 960 l 5
 417 960 l 5
 344 615 l 5
 394 688 471 724 571 724 c 4
 690 722 761 668 783 565 c 4
 791 526 794 489 794 453 c 0
 794 419 791 386 784 355 c 4
 771 291 737 218 684 134 c 5
 654 90 626 59 598 39 c 5
 574 16 543 -1 505 -14 c 4
 473 -25 433 -31 389 -31 c 4
 318 -29 264 5 228 71 c 5
 213 0 l 5
 31 0 l 5
489 565 m 4
 435 565 388 537 349 483 c 4
 318 440 297 394 286 344 c 4
 281 321 279 300 279 279 c 0
 279 253 283 229 290 205 c 4
 307 153 342 127 396 127 c 4
 453 127 500 153 535 205 c 4
 566 250 587 297 597 344 c 4
 602 366 604 387 604 407 c 0
 604 433 601 458 594 483 c 4
 586 513 574 534 554 545 c 4
 533 558 511 565 489 565 c 4
EndSplineSet
EndChar
StartChar: c
Encoding: 99 99 69
OldEncoding: 99
Width: 689
Flags: W
HStem: -31 153<317 361> 564 159<451 487>
VStem: 62 192<251 262>
Fore
740 445 m 5
 565 445 l 5
 562 496 553 528 536 540 c 4
 516 556 489 564 453 564 c 4
 451 564 450 564 448 564 c 0
 391 564 342 530 303 460 c 5
 294 436 l 5
 280 395 l 5
 264 339 l 5
 258 308 254 282 254 260 c 0
 254 251 l 4
 257 199 267 165 284 149 c 4
 302 134 328 125 361 122 c 4
 395 122 424 130 450 145 c 4
 475 161 500 196 523 249 c 5
 698 249 l 5
 689 207 667 166 632 127 c 4
 598 86 567 55 539 34 c 4
 506 11 475 -5 445 -14 c 4
 405 -26 363 -31 317 -31 c 4
 312 -31 306 -31 301 -31 c 0
 241 -31 193 -16 155 13 c 4
 117 42 91 79 78 125 c 4
 66 161 60 193 60 221 c 0
 60 230 60 239 62 247 c 5
 62 273 67 305 75 344 c 4
 91 418 114 477 146 522 c 5
 182 579 218 623 256 654 c 4
 295 685 329 703 361 710 c 4
 404 719 446 723 487 723 c 4
 502 723 l 0
 573 723 627 710 666 684 c 4
 698 661 721 624 733 575 c 4
 740 544 744 515 744 490 c 0
 744 473 742 458 740 445 c 5
EndSplineSet
EndChar
StartChar: d
Encoding: 100 100 70
OldEncoding: 100
Width: 761
Flags: W
HStem: -30 158<300 363> -4 21G<488 673> 568 157<439 461> 941 20G<693 878>
VStem: 60 187<257 291>
DStem: 693 961 878 961 620 616 673 -4
Fore
878 961 m 1
 673 -4 l 1
 488 -4 l 1
 504 72 l 1
 475 39 442 15 405 -2 c 0
 360 -21 325 -30 300 -30 c 4
 294 -30 289 -30 284 -30 c 0
 252 -30 223 -25 194 -13 c 0
 164 -2 138 16 120 40 c 0
 101 63 87 95 78 135 c 0
 66 183 60 226 60 266 c 0
 60 290 62 313 67 334 c 0
 82 414 112 491 160 563 c 0
 229 669 323 723 439 725 c 0
 544 725 604 689 620 616 c 1
 693 961 l 1
 878 961 l 1
457 568 m 0
 404 568 357 541 314 486 c 1
 285 442 265 396 255 347 c 0
 250 324 247 300 247 277 c 0
 247 253 250 230 255 206 c 1
 274 154 310 128 363 128 c 0
 416 128 463 154 502 206 c 1
 532 250 552 297 563 347 c 0
 568 374 571 398 571 421 c 0
 571 445 568 467 561 486 c 0
 545 541 511 568 457 568 c 0
EndSplineSet
EndChar
StartChar: e
Encoding: 101 101 71
OldEncoding: 101
Width: 689
Flags: W
HStem: -31 150<308 377> 297 125<263 711> 571 153<440 471>
VStem: 44 184<193 242> 552 182<463 490> 552 183<448 482>
Fore
711 297 m 5
 236 297 l 5
 231 272 228 250 228 231 c 0
 228 212 231 196 236 184 c 4
 248 160 264 143 287 134 c 4
 313 124 343 119 377 119 c 5
 407 127 434 137 456 149 c 5
 477 165 493 182 501 200 c 5
 684 200 l 5
 662 154 630 114 589 80 c 4
 545 44 499 17 449 -1 c 4
 398 -21 350 -31 308 -31 c 4
 250 -31 192 -14 135 22 c 5
 106 47 84 72 72 99 c 5
 55 129 46 160 44 193 c 5
 44 227 45 256 48 279 c 5
 62 344 75 395 88 432 c 4
 118 515 158 580 207 624 c 4
 252 667 298 695 343 708 c 4
 382 718 425 724 471 724 c 4
 539 724 592 710 629 684 c 5
 667 660 695 627 712 584 c 4
 727 550 734 520 734 494 c 0
 734 492 734 491 734 490 c 4
 734 483 735 476 735 469 c 0
 735 444 733 420 730 397 c 5
 711 297 l 5
263 422 m 5
 548 422 l 5
 551 436 552 450 552 463 c 0
 552 484 549 503 542 522 c 4
 528 555 497 571 450 571 c 4
 447 571 445 571 442 571 c 0
 396 571 357 556 325 527 c 4
 291 494 271 459 263 422 c 5
EndSplineSet
EndChar
StartChar: f
Encoding: 102 102 72
OldEncoding: 102
Width: 412
Flags: W
HStem: -1 21G<93 278> 575 122<140 215 426 510> 820 139<471 556>
DStem: 215 575 400 575 93 -1 278 -1
Fore
115 575 m 1
 141 697 l 1
 241 697 l 1
 259 781 l 2
 271 836 294 881 331 913 c 1
 369 944 415 959 471 959 c 2
 586 959 l 1
 556 820 l 1
 492 820 l 2
 465 820 449 804 442 772 c 2
 426 697 l 1
 536 697 l 1
 510 575 l 1
 400 575 l 1
 278 -1 l 5
 93 -1 l 1
 215 575 l 1
 115 575 l 1
EndSplineSet
EndChar
StartChar: g
Encoding: 103 103 73
OldEncoding: 103
Width: 761
Flags: W
HStem: -289 127<233 281> -31 148<296 359> 558 166<440 462>
VStem: -7 194<-114 -97> 60 172<225 278>
Fore
647 713 m 5
 821 713 l 5
 665 -18 l 6
 656 -62 637 -104 606 -144 c 4
 578 -181 544 -211 505 -234 c 4
 444 -270 353 -289 233 -289 c 0
 225 -289 216 -289 207 -289 c 4
 140 -287 85 -264 42 -220 c 4
 9 -188 -7 -153 -7 -114 c 0
 -7 -104 -6 -94 -4 -84 c 5
 188 -84 l 5
 187 -88 187 -93 187 -97 c 0
 187 -129 218 -151 281 -162 c 5
 333 -162 379 -148 419 -120 c 4
 459 -93 482 -62 489 -26 c 6
 511 75 l 5
 493 58 471 39 444 18 c 4
 426 3 404 -8 379 -16 c 5
 356 -26 329 -31 296 -31 c 4
 246 -31 210 -25 187 -14 c 4
 162 -2 136 18 110 49 c 4
 93 70 81 97 74 128 c 5
 64 159 60 192 60 225 c 0
 60 225 l 4
 60 263 65 299 72 333 c 4
 85 394 106 451 135 504 c 4
 166 561 203 606 243 638 c 5
 307 696 380 724 460 724 c 4
 487 724 510 721 528 715 c 4
 536 712 549 703 568 689 c 5
 594 658 l 6
 598 651 609 634 624 607 c 5
 647 713 l 5
453 558 m 4
 397 558 347 532 304 479 c 5
 269 429 248 382 239 338 c 4
 235 318 232 298 232 278 c 0
 232 251 236 225 244 199 c 4
 261 145 299 117 359 117 c 4
 418 117 468 145 508 199 c 4
 538 240 559 287 570 338 c 4
 575 360 577 382 577 404 c 0
 577 429 574 454 568 479 c 5
 547 532 509 558 453 558 c 4
EndSplineSet
EndChar
StartChar: h
Encoding: 104 104 74
OldEncoding: 104
Width: 758
Flags: W
HStem: -1 21G<42 227 482 667> 561 162<510 587> 939 20G<246 417>
DStem: 246 959 417 959 42 -1 345 619 246 959 315 416 42 -1 227 -1 578 450 778 520 482 -1 667 -1
Fore
417 959 m 1
 345 619 l 1
 406 688 487 723 587 723 c 0
 650 723 701 707 740 674 c 0
 769 650 784 617 784 573 c 0
 784 557 782 539 778 520 c 2
 667 -1 l 5
 482 -1 l 1
 578 450 l 2
 580 461 581 473 581 485 c 0
 581 498 580 511 577 524 c 1
 568 543 546 555 510 561 c 1
 464 561 423 550 388 526 c 0
 350 501 326 464 315 416 c 2
 227 -1 l 1
 42 -1 l 1
 246 959 l 1
 417 959 l 1
EndSplineSet
EndChar
StartChar: i
Encoding: 105 105 75
OldEncoding: 105
Width: 344
Flags: W
HStem: -1 21G<67 252> 795 21G<236 421> 939 20G<271 456>
DStem: 218 712 403 712 67 -1 252 -1
Fore
236 795 m 1
 271 959 l 1
 456 959 l 1
 421 795 l 1
 236 795 l 1
67 -1 m 1
 218 712 l 1
 403 712 l 5
 252 -1 l 1
 67 -1 l 1
EndSplineSet
EndChar
StartChar: j
Encoding: 106 106 76
OldEncoding: 106
Width: 348
Flags: W
HStem: -290 153<-74 -11.9344> 796 21G<246 429> 940 20G<281 464>
DStem: 228 712 411 712 59 -86 231 -135
Fore
246 796 m 5
 281 960 l 5
 464 960 l 5
 429 796 l 5
 246 796 l 5
59 -86 m 6
 228 712 l 5
 411 712 l 5
 231 -135 l 6
 226 -158 217 -178 203 -197 c 4
 188 -221 172 -238 156 -250 c 5
 135 -267 115 -276 94 -279 c 4
 43 -286 -13 -290 -74 -290 c 5
 -41 -137 l 5
 -7 -137 18 -134 31 -128 c 5
 45 -120 54 -106 59 -86 c 6
EndSplineSet
EndChar
StartChar: k
Encoding: 107 107 77
OldEncoding: 107
Width: 685
Flags: W
HStem: -1 21G<33 215 458 676> 939 20G<237 419>
DStem: 237 959 419 959 33 -1 307 434 237 959 262 221 33 -1 215 -1 600 712 811 712 307 434 513 441
Fore
237 959 m 1
 419 959 l 1
 307 434 l 1
 600 712 l 1
 811 712 l 1
 513 441 l 1
 676 -1 l 1
 458 -1 l 1
 357 304 l 1
 262 221 l 1
 215 -1 l 5
 33 -1 l 1
 237 959 l 1
EndSplineSet
EndChar
StartChar: l
Encoding: 108 108 78
OldEncoding: 108
Width: 344
Flags: W
HStem: -1 21G<67 252> 939 20G<271 456>
DStem: 271 959 456 959 67 -1 252 -1
Fore
271 959 m 1
 456 959 l 1
 252 -1 l 5
 67 -1 l 1
 271 959 l 1
EndSplineSet
EndChar
StartChar: m
Encoding: 109 109 79
OldEncoding: 109
Width: 1103
Flags: W
HStem: -1 21G<12 194 423 606 834 1019> 566 162<861 938>
VStem: 940 193<506 568>
DStem: 163 712 287 436 12 -1 194 -1 527 489 699 436 423 -1 606 -1 938 489 1124 494 834 -1 1019 -1
Fore
194 -1 m 5
 12 -1 l 5
 163 712 l 5
 345 712 l 5
 323 606 l 5
 362 648 399 678 435 695 c 5
 469 714 514 723 571 723 c 5
 613 719 643 709 660 695 c 4
 677 679 697 653 718 619 c 5
 747 653 780 680 815 701 c 5
 850 719 891 728 938 728 c 5
 990 723 l 5
 1085 711 1133 659 1133 568 c 0
 1133 546 1130 521 1124 494 c 6
 1019 -1 l 5
 834 -1 l 5
 938 489 l 6
 939 495 940 501 940 506 c 0
 940 541 914 561 861 566 c 5
 818 566 782 552 753 525 c 4
 723 494 705 465 699 436 c 6
 606 -1 l 5
 423 -1 l 5
 527 489 l 5
 526 538 498 564 442 566 c 4
 407 566 375 555 344 531 c 5
 315 511 296 479 287 436 c 6
 194 -1 l 5
EndSplineSet
EndChar
StartChar: n
Encoding: 110 110 80
OldEncoding: 110
Width: 758
Flags: W
HStem: -1 21G<37 220 488 673> 576 148<476 552>
VStem: 588 195<495 551>
DStem: 188 712 317 455 37 -1 220 -1 581 437 775 478 488 -1 673 -1
Fore
37 -1 m 5
 188 712 l 5
 371 712 l 5
 349 606 l 5
 377 645 408 674 443 693 c 4
 479 713 515 724 552 724 c 4
 706 724 783 666 783 551 c 0
 783 529 780 504 775 478 c 6
 673 -1 l 5
 488 -1 l 5
 581 437 l 6
 586 459 588 478 588 495 c 0
 588 512 585 526 580 538 c 4
 569 563 534 576 476 576 c 5
 427 569 390 554 365 532 c 4
 339 508 323 483 317 455 c 6
 220 -1 l 5
 37 -1 l 5
EndSplineSet
EndChar
StartChar: o
Encoding: 111 111 81
OldEncoding: 111
Width: 758
Flags: W
HStem: -31 160<345 379> 569 157<472 506>
VStem: 64 190<247 289> 600 191<414 467>
Fore
345 -31 m 4
 245 -31 170 -1 116 58 c 4
 91 87 76 130 68 185 c 4
 66 206 64 227 64 247 c 0
 64 282 68 316 75 349 c 4
 88 409 109 464 139 516 c 5
 166 571 200 612 240 641 c 5
 314 698 403 726 506 726 c 4
 608 726 683 698 733 641 c 4
 762 608 780 566 789 516 c 5
 790 500 791 484 791 467 c 0
 791 428 787 389 778 349 c 4
 767 296 747 241 718 185 c 4
 690 135 654 92 609 58 c 4
 534 -1 445 -31 345 -31 c 4
473 569 m 4
 415 569 365 543 325 490 c 4
 293 447 271 400 260 349 c 4
 256 328 254 308 254 289 c 0
 254 262 258 235 266 210 c 4
 283 157 321 129 379 129 c 4
 434 129 484 157 529 210 c 5
 562 261 584 307 593 349 c 4
 598 372 600 394 600 414 c 0
 600 441 596 467 588 490 c 4
 570 543 532 569 473 569 c 4
EndSplineSet
EndChar
StartChar: p
Encoding: 112 112 82
OldEncoding: 112
Width: 756
Flags: W
HStem: -31 154<383 400> 563 162<489 555>
VStem: 602 188<408 448>
DStem: 181 713 227 75 -32 -289 150 -289
Fore
181 713 m 5
 363 713 l 5
 340 607 l 5
 386 650 l 6
 400 663 416 676 434 689 c 4
 450 700 467 708 486 715 c 4
 503 721 526 725 555 725 c 4
 636 725 697 696 738 638 c 4
 763 604 780 560 787 507 c 4
 789 487 790 468 790 448 c 0
 790 410 786 371 778 333 c 4
 767 281 746 227 718 174 c 4
 691 123 658 81 620 49 c 4
 584 19 550 -2 516 -14 c 4
 489 -25 449 -31 398 -31 c 4
 364 -31 339 -26 322 -16 c 5
 303 -10 287 1 273 16 c 4
 264 23 249 43 227 75 c 5
 150 -289 l 5
 -32 -289 l 5
 181 713 l 5
489 563 m 4
 435 563 386 536 343 481 c 5
 312 430 293 384 284 342 c 4
 279 322 277 301 277 278 c 0
 277 254 280 229 284 203 c 5
 304 150 341 123 395 123 c 4
 447 123 494 150 534 203 c 5
 566 252 585 298 595 342 c 4
 599 364 602 385 602 408 c 0
 602 432 599 456 593 481 c 5
 575 536 540 563 489 563 c 4
EndSplineSet
EndChar
StartChar: q
Encoding: 113 113 83
OldEncoding: 113
Width: 761
Flags: W
HStem: -31 141<290 357>
VStem: 53 190<225 265>
DStem: 505 75 823 711 428 -289 611 -289
Fore
823 711 m 5
 611 -289 l 5
 428 -289 l 5
 505 75 l 5
 487 58 464 39 438 18 c 4
 420 3 397 -8 373 -16 c 5
 350 -26 322 -31 290 -31 c 4
 238 -31 201 -25 179 -14 c 4
 148 0 122 21 101 49 c 4
 77 79 62 121 56 174 c 4
 54 191 53 208 53 225 c 0
 53 261 57 298 65 333 c 4
 78 394 99 451 128 504 c 4
 160 562 196 607 234 638 c 4
 262 663 293 684 331 702 c 4
 361 717 403 724 453 724 c 4
 506 722 543 711 565 692 c 5
 588 673 606 645 618 607 c 5
 640 711 l 5
 823 711 l 5
453 558 m 4
 400 558 353 531 312 477 c 5
 282 431 261 384 250 336 c 4
 245 312 243 288 243 265 c 0
 243 240 246 216 252 192 c 4
 266 138 301 110 357 110 c 4
 411 110 457 138 497 192 c 4
 528 233 549 281 560 336 c 4
 566 361 568 385 568 407 c 0
 568 433 565 456 557 477 c 5
 541 531 507 558 453 558 c 4
EndSplineSet
EndChar
StartChar: r
Encoding: 114 114 84
OldEncoding: 114
Width: 478
Flags: W
HStem: -1 21G<51 234> 541 183<504 607>
DStem: 202 712 319 402 51 -1 234 -1
Fore
51 -1 m 5
 202 712 l 5
 385 712 l 5
 356 576 l 5
 372 600 386 620 398 633 c 4
 413 648 437 666 469 686 c 4
 507 711 554 724 607 724 c 5
 567 536 l 5
 504 541 l 5
 462 541 426 531 398 511 c 4
 365 490 340 454 319 402 c 5
 234 -1 l 5
 51 -1 l 5
EndSplineSet
EndChar
StartChar: s
Encoding: 115 115 85
OldEncoding: 115
Width: 689
Flags: W
HStem: -31 139<303 361> 584 139<420 453>
VStem: 554 181<516 539>
Fore
40 209 m 5
 223 209 l 5
 225 184 232 165 245 152 c 4
 256 139 269 129 287 122 c 4
 312 112 336 108 361 108 c 4
 364 108 366 108 369 108 c 0
 436 108 476 132 490 182 c 4
 491 187 491 192 491 196 c 0
 491 205 490 213 487 222 c 4
 483 233 472 240 456 242 c 5
 243 309 l 6
 185 326 150 350 137 381 c 4
 127 403 122 426 122 448 c 0
 122 460 123 471 126 483 c 4
 142 560 184 622 251 670 c 5
 303 706 370 723 453 723 c 4
 468 723 l 0
 553 723 617 707 662 673 c 4
 700 644 723 615 730 584 c 4
 733 570 735 555 735 539 c 0
 735 521 733 503 729 483 c 5
 550 483 l 5
 552 496 554 507 554 517 c 0
 554 526 552 534 550 540 c 5
 543 554 526 565 500 573 c 4
 474 581 453 584 434 584 c 4
 403 584 375 578 350 564 c 5
 329 555 316 538 311 513 c 4
 310 509 310 505 310 502 c 0
 310 484 320 473 342 467 c 6
 593 395 l 6
 614 389 632 377 651 360 c 4
 669 342 682 322 690 300 c 4
 693 287 694 273 694 260 c 0
 694 247 693 235 690 222 c 4
 681 177 660 133 627 89 c 4
 593 45 546 13 486 -8 c 4
 469 -13 440 -18 400 -24 c 4
 367 -29 335 -31 303 -31 c 4
 241 -29 190 -20 152 -3 c 5
 76 34 37 91 37 166 c 0
 37 180 38 194 40 209 c 5
EndSplineSet
EndChar
StartChar: t
Encoding: 116 116 86
OldEncoding: 116
Width: 413
Flags: W
HStem: -47 20G<244.5 260> -26 144<275 326> 581 122<142 208 419 495>
DStem: 208 581 393 581 109 115 308 181 276 898 461 898 234 703 419 703
Fore
143 703 m 1
 234 703 l 1
 276 898 l 1
 461 898 l 1
 419 703 l 1
 521 703 l 1
 495 581 l 1
 393 581 l 1
 308 181 l 2
 306 168 304 157 304 148 c 0
 304 128 312 118 326 118 c 2
 393 115 l 1
 367 -9 l 1
 332 -20 300 -26 275 -26 c 4
 269 -26 263 -27 257 -27 c 0
 232 -27 211 -23 194 -16 c 1
 137 1 109 41 109 103 c 0
 109 115 l 1
 208 581 l 1
 117 581 l 1
 143 703 l 1
EndSplineSet
EndChar
StartChar: u
Encoding: 117 117 87
OldEncoding: 117
Width: 759
Flags: W
HStem: 0 21G<482 667>
VStem: 69 195<147 218>
DStem: 183 713 365 713 77 218 271 271 634 713 819 713 536 252 667 0
Fore
819 713 m 5
 667 0 l 5
 482 0 l 5
 501 88 l 5
 463 44 431 16 405 2 c 4
 384 -11 348 -22 299 -31 c 5
 248 -29 206 -23 174 -14 c 4
 138 -5 110 18 92 55 c 5
 77 80 69 111 69 147 c 0
 69 169 72 192 77 218 c 6
 183 713 l 5
 365 713 l 5
 271 271 l 6
 266 251 264 233 264 218 c 0
 264 199 267 184 273 171 c 4
 283 147 317 134 376 134 c 5
 428 141 465 155 487 176 c 5
 513 199 530 225 536 252 c 6
 634 713 l 5
 819 713 l 5
EndSplineSet
EndChar
StartChar: v
Encoding: 118 118 88
OldEncoding: 118
Width: 689
Flags: W
HStem: -1 21G<222 417>
Fore
127 712 m 5
 322 712 l 5
 359 189 l 5
 621 712 l 5
 816 712 l 5
 417 -1 l 5
 222 -1 l 5
 127 712 l 5
EndSplineSet
EndChar
StartChar: w
Encoding: 119 119 89
OldEncoding: 119
Width: 964
Flags: W
HStem: -1 21G<147 337 562 752>
VStem: 557 136<211.148 500.863>
DStem: 505 712 557 501 294 211 337 -1 557 501 697 712 562 -1 693 211
Fore
99 712 m 5
 289 712 l 5
 294 211 l 5
 505 712 l 5
 697 712 l 5
 693 211 l 5
 910 712 l 5
 1102 712 l 5
 752 -1 l 5
 562 -1 l 5
 557 501 l 5
 337 -1 l 5
 147 -1 l 5
 99 712 l 5
EndSplineSet
EndChar
StartChar: x
Encoding: 120 120 90
OldEncoding: 120
Width: 689
Flags: W
HStem: -1 21G<-21 199 442 662>
Fore
138 712 m 5
 359 712 l 5
 429 496 l 5
 593 712 l 5
 811 712 l 5
 503 355 l 5
 662 -1 l 5
 442 -1 l 5
 368 209 l 5
 199 -1 l 5
 -21 -1 l 5
 288 355 l 5
 138 712 l 5
EndSplineSet
EndChar
StartChar: y
Encoding: 121 121 91
OldEncoding: 121
Width: 689
Flags: W
HStem: -291 151<7 41>
Fore
121 712 m 5
 324 712 l 5
 370 193 l 5
 628 712 l 5
 818 712 l 5
 331 -149 l 5
 318 -178 295 -208 259 -240 c 4
 238 -259 200 -273 147 -279 c 4
 91 -287 44 -291 7 -291 c 5
 39 -140 l 5
 96 -140 136 -134 157 -121 c 5
 191 -105 211 -79 219 -43 c 4
 221 -34 222 -26 222 -18 c 0
 222 -12 221 -6 220 -1 c 5
 121 712 l 5
EndSplineSet
EndChar
StartChar: z
Encoding: 122 122 92
OldEncoding: 122
Width: 619
Flags: W
HStem: -1 150<251 579> 562 150<166 462>
DStem: 462 562 689 562 23 149 251 149
Fore
167 712 m 5
 721 712 l 5
 689 562 l 5
 251 149 l 5
 611 149 l 5
 579 -1 l 5
 -9 -1 l 5
 23 149 l 5
 462 562 l 5
 135 562 l 5
 167 712 l 5
EndSplineSet
EndChar
StartChar: braceleft
Encoding: 123 123 93
OldEncoding: 123
Width: 483
Flags: W
HStem: -253 130<300 336> 306 123<87 113> 845 130<485 570>
VStem: 181 153<248 277>
DStem: 179 229 328 227 115 -72 269 -53 299 794 445 776 234 491 385 495
Fore
87 306 m 1
 113 429 l 1
 185 429 226 450 234 491 c 2
 299 794 l 2
 311 850 337 894 378 926 c 0
 420 958 455 975 485 975 c 2
 597 975 l 1
 570 845 l 1
 522 845 l 2
 494 845 475 839 467 829 c 0
 458 819 450 801 445 776 c 2
 385 495 l 2
 370 424 320 381 234 366 c 1
 264 362 292 351 315 334 c 1
 328 321 334 302 334 277 c 0
 334 262 332 246 328 227 c 2
 269 -53 l 2
 267 -62 266 -69 266 -77 c 0
 266 -87 268 -96 271 -103 c 0
 275 -116 290 -123 316 -123 c 2
 364 -123 l 1
 336 -253 l 1
 224 -253 l 2
 196 -253 167 -236 138 -204 c 0
 119 -182 109 -154 109 -120 c 0
 109 -105 111 -89 115 -72 c 2
 179 229 l 2
 180 236 181 242 181 248 c 0
 181 286 150 306 87 306 c 1
EndSplineSet
EndChar
StartChar: bar
Encoding: 124 124 94
OldEncoding: 124
Width: 346
Flags: W
HStem: 955 20G<318 422>
DStem: 318 975 422 975 57 -253 161 -253
Fore
422 975 m 1
 161 -253 l 1
 57 -253 l 1
 318 975 l 1
 422 975 l 1
EndSplineSet
EndChar
StartChar: braceright
Encoding: 125 125 95
OldEncoding: 125
Width: 478
Flags: W
HStem: 306 123<496 522> 955 20G<270 381>
VStem: 271 156<453 479>
DStem: 219 227 373 229 160 -53 309 -72 336 776 493 794 276 495 429 493
Fore
522 429 m 1
 496 306 l 1
 462 306 435 300 416 290 c 0
 393 278 379 257 373 229 c 2
 309 -72 l 2
 297 -129 269 -173 228 -204 c 0
 186 -236 150 -253 120 -253 c 2
 9 -253 l 1
 37 -123 l 1
 85 -123 l 2
 113 -123 130 -116 140 -103 c 0
 148 -94 155 -77 160 -53 c 2
 219 227 l 2
 237 312 290 359 377 368 c 1
 348 370 320 380 294 398 c 0
 279 408 271 427 271 453 c 0
 271 465 273 479 276 495 c 2
 336 776 l 2
 339 791 341 803 341 812 c 0
 341 819 340 825 338 829 c 0
 334 841 318 847 291 847 c 2
 243 847 l 1
 270 975 l 1
 381 975 l 2
 399 975 419 969 442 957 c 1
 461 941 477 920 489 893 c 1
 495 877 498 860 498 841 c 0
 498 826 496 810 493 794 c 2
 429 493 l 2
 428 488 427 484 427 479 c 0
 427 446 459 429 522 429 c 1
EndSplineSet
EndChar
StartChar: asciitilde
Encoding: 126 126 96
OldEncoding: 126
Width: 723
Flags: W
Fore
181 248 m 1
 88 248 l 1
 111 315 145 366 189 401 c 0
 227 429 262 443 293 443 c 0
 316 443 340 435 365 419 c 2
 482 343 l 2
 507 326 528 317 546 317 c 0
 585 317 610 345 622 401 c 1
 724 401 l 1
 719 376 709 350 696 324 c 0
 685 302 663 278 630 250 c 0
 596 221 564 206 532 206 c 0
 505 206 475 217 444 237 c 2
 315 315 l 2
 294 328 276 334 261 334 c 0
 239 334 223 325 211 308 c 0
 199 289 189 269 181 248 c 1
EndSplineSet
EndChar
StartChar: uni0E10.descless
Encoding: 128 63232 97
OldEncoding: 63232
Width: 687
Flags: W
HStem: 0 21G<407 553> 188 93<244 265> 403 97<290 310> 644 107<681 704> 705 99<433 454>
VStem: 118 98<308 331> 511 137<454 492>
Fore
407 0 m 5
 407 15 l 0
 407 50 401 95 391 149 c 5
 380 209 374 239 371 239 c 5
 362 230 348 219 329 207 c 5
 306 195 278 188 244 188 c 4
 194 188 159 204 141 235 c 5
 126 256 118 280 118 308 c 0
 118 319 119 331 122 343 c 4
 131 387 153 423 187 452 c 4
 220 482 262 498 310 500 c 4
 354 500 389 492 411 476 c 4
 432 459 445 429 451 385 c 5
 468 316 l 5
 478 272 l 5
 501 381 l 6
 507 411 511 435 511 454 c 0
 511 471 508 483 502 491 c 4
 492 507 462 522 413 535 c 4
 338 556 287 568 259 573 c 6
 140 591 l 5
 150 642 l 5
 198 692 247 732 297 763 c 4
 346 790 398 804 454 804 c 4
 505 804 553 796 598 778 c 5
 656 760 691 751 704 751 c 4
 730 751 760 758 796 772 c 5
 797 732 l 5
 798 721 798 709 798 698 c 0
 798 687 798 676 796 665 c 5
 748 651 710 644 681 644 c 5
 627 648 l 5
 558 674 l 5
 486 697 l 6
 472 702 456 705 435 705 c 4
 415 705 394 700 372 690 c 4
 348 680 333 672 329 665 c 5
 420 652 l 5
 462 644 492 636 510 630 c 4
 583 610 626 582 640 547 c 4
 646 533 648 514 648 492 c 0
 648 463 644 427 635 385 c 6
 553 0 l 5
 407 0 l 5
264 281 m 5
 284 281 299 287 312 299 c 4
 325 310 333 324 337 343 c 4
 338 349 339 354 339 359 c 0
 339 370 336 378 330 385 c 4
 322 397 310 403 290 403 c 4
 270 403 254 397 242 385 c 4
 229 375 221 361 217 343 c 4
 216 339 216 335 216 331 c 0
 216 321 218 311 224 301 c 5
 233 290 246 283 264 281 c 5
EndSplineSet
EndChar
StartChar: uni0E34.left
Encoding: 129 63233 98
OldEncoding: 63233
Width: 0
Flags: W
HStem: 915 97<-460 -421.792> 1084 93<-326 -300>
Fore
-291 1177 m 0
 -236 1177 -191 1161 -155 1130 c 1
 -122 1105 -101 1075 -90 1040 c 0
 -78 999 -71 963 -71 933 c 0
 -71 932 -72 930 -72 929 c 1
 -72 841 l 1
 -172 873 l 1
 -225 886 -278 897 -334 905 c 0
 -370 912 -420 915 -483 915 c 1
 -601 911 l 1
 -680 903 l 1
 -651 982 -600 1047 -529 1097 c 1
 -459 1150 -382 1177 -300 1177 c 0
 -291 1177 l 0
-311 1084 m 1
 -354 1084 -391 1076 -425 1061 c 0
 -463 1044 -487 1026 -497 1008 c 1
 -460 1012 l 1
 -404 1012 l 1
 -324 1008 l 1
 -282 1003 -246 996 -216 989 c 1
 -167 968 l 1
 -187 1036 -234 1075 -311 1084 c 1
EndSplineSet
EndChar
StartChar: uni0E35.left
Encoding: 130 63234 99
OldEncoding: 63234
Width: 0
Flags: W
HStem: 1083 93<-345 -321>
DStem: -412 1012 -412 1012 -481 1010 -343 1007 -132 1259 -9 1259 -162 1120 -77 940
Fore
-310 1176 m 0
 -275 1176 -242 1168 -211 1153 c 1
 -188 1140 -172 1129 -162 1120 c 1
 -132 1259 l 1
 -9 1259 l 1
 -77 940 l 1
 -75 940 -74 920 -74 880 c 0
 -74 867 -74 853 -74 836 c 1
 -191 873 l 2
 -230 884 -285 895 -353 906 c 0
 -391 912 -442 915 -505 915 c 2
 -591 912 l 1
 -658 908 l 1
 -699 902 l 1
 -684 947 -655 993 -614 1039 c 0
 -577 1080 -531 1114 -477 1138 c 0
 -422 1164 -371 1176 -321 1176 c 0
 -318 1176 -314 1176 -310 1176 c 0
-332 1083 m 1
 -373 1083 -409 1076 -443 1060 c 0
 -482 1043 -507 1025 -517 1005 c 1
 -481 1010 l 1
 -412 1012 l 1
 -343 1007 l 2
 -309 1004 -274 997 -239 988 c 1
 -188 968 l 1
 -195 997 -209 1022 -230 1041 c 0
 -249 1062 -283 1076 -332 1083 c 1
EndSplineSet
EndChar
StartChar: uni0E36.left
Encoding: 131 63235 100
OldEncoding: 63235
Width: 0
Flags: W
HStem: 914 97<-479 -440.065> 1082 93<-332 -308> 1182 90<-134 -111>
VStem: -101 97<1150 1160>
Fore
-4 1157 m 1
 -19 1088 -49 1043 -95 1022 c 1
 -84 987 -78 964 -77 953 c 0
 -74 931 -72 904 -72 873 c 0
 -72 861 -72 848 -73 835 c 1
 -190 872 l 2
 -228 883 -283 894 -352 905 c 0
 -389 911 -440 914 -503 914 c 2
 -589 912 l 1
 -656 907 l 1
 -697 902 l 1
 -682 947 -653 992 -612 1038 c 0
 -575 1080 -529 1113 -475 1138 c 0
 -422 1163 -366 1175 -308 1175 c 1
 -282 1173 l 1
 -263 1168 l 1
 -256 1189 -240 1211 -213 1235 c 0
 -189 1260 -155 1272 -111 1272 c 0
 -75 1272 -47 1262 -28 1241 c 0
 -12 1220 -4 1193 -4 1160 c 0
 -4 1157 l 1
-330 1082 m 1
 -371 1082 -408 1075 -441 1060 c 0
 -481 1042 -505 1025 -515 1007 c 1
 -479 1011 l 1
 -422 1011 l 1
 -341 1007 l 1
 -307 1003 -272 996 -237 987 c 1
 -186 967 l 1
 -193 996 -207 1021 -228 1040 c 0
 -247 1062 -281 1076 -330 1082 c 1
-151 1102 m 0
 -139 1102 -128 1106 -119 1115 c 0
 -110 1123 -104 1132 -102 1142 c 0
 -102 1145 -101 1147 -101 1150 c 0
 -101 1157 -104 1163 -108 1168 c 0
 -113 1177 -122 1182 -134 1182 c 0
 -159 1182 -175 1169 -180 1142 c 0
 -181 1137 -182 1133 -182 1129 c 0
 -182 1111 -171 1102 -151 1102 c 0
EndSplineSet
EndChar
StartChar: uni0E37.left
Encoding: 132 63236 101
OldEncoding: 63236
Width: 0
Flags: W
HStem: 1083 93<-319 -290>
DStem: -397 1012 -397 1012 -466 1010 -328 1007 -111 1259 5 1259 -142 1116 -63 940
Fore
-142 1116 m 1
 -111 1259 l 1
 5 1259 l 1
 -63 940 l 1
 -61 940 -59 915 -59 865 c 0
 -59 856 -59 847 -59 836 c 1
 -176 873 l 2
 -215 884 -270 895 -338 906 c 0
 -376 912 -427 915 -490 915 c 2
 -576 912 l 1
 -643 908 l 1
 -684 902 l 1
 -632 1014 -571 1087 -500 1123 c 0
 -430 1158 -360 1176 -290 1176 c 1
 -272 1259 l 1
 -164 1259 l 1
 -188 1149 l 1
 -184 1149 -168 1138 -142 1116 c 1
-317 1083 m 1
 -358 1083 -394 1076 -428 1060 c 0
 -467 1043 -492 1025 -502 1005 c 1
 -466 1010 l 1
 -397 1012 l 1
 -328 1007 l 2
 -294 1004 -259 997 -224 988 c 1
 -173 968 l 1
 -180 997 -194 1022 -215 1041 c 0
 -234 1062 -268 1076 -317 1083 c 1
EndSplineSet
EndChar
StartChar: ellipsis
Encoding: 133 8230 102
OldEncoding: 8230
Width: 1076
Flags: W
HStem: -24 21G<150.5 217.5>
Fore
644 64 m 4
 633 14 593 -15 521 -24 c 5
 459 -24 426 0 426 50 c 0
 426 53 427 57 427 61 c 5
 440 122 484 153 557 153 c 4
 589 153 613 144 629 126 c 4
 640 114 646 100 646 84 c 0
 646 77 645 71 644 64 c 4
982 64 m 5
 971 14 930 -15 857 -24 c 5
 796 -24 764 0 764 49 c 0
 764 53 765 57 765 61 c 5
 778 122 821 153 893 153 c 4
 924 153 948 144 967 126 c 5
 977 113 983 98 983 79 c 0
 983 74 982 69 982 64 c 5
309 64 m 4
 296 5 254 -24 181 -24 c 4
 120 -24 90 -3 90 40 c 0
 90 47 91 55 93 64 c 4
 105 123 148 153 219 153 c 4
 281 153 311 131 311 88 c 0
 311 81 310 73 309 64 c 4
EndSplineSet
EndChar
StartChar: uni0E48.low_left
Encoding: 134 63237 103
OldEncoding: 63237
Width: 0
Flags: W
DStem: -175 1200 -41 1200 -250 848 -116 848
Fore
-250 848 m 1
 -175 1200 l 1
 -41 1200 l 1
 -116 848 l 1
 -250 848 l 1
EndSplineSet
EndChar
StartChar: uni0E49.low_left
Encoding: 135 63238 104
OldEncoding: 63238
Width: 0
Flags: W
HStem: 1153 97<-388 -367>
VStem: -542 98<1077 1101> -354 108<1109 1130>
Fore
-250 1098 m 4
 -260 1060 -273 1029 -289 1003 c 5
 -305 981 -316 969 -321 968 c 6
 -293 973 l 5
 -253 987 l 6
 -233 995 -215 1004 -201 1012 c 4
 -180 1026 -165 1040 -155 1052 c 4
 -118 1106 -94 1151 -86 1188 c 5
 -78 1241 l 5
 53 1241 l 5
 16 1070 -62 959 -184 906 c 4
 -256 875 -333 860 -414 860 c 5
 -478 862 l 5
 -496 864 -508 866 -514 869 c 5
 -505 915 l 5
 -493 919 -481 926 -469 936 c 5
 -454 947 -445 957 -440 968 c 5
 -482 980 l 6
 -502 986 -519 1003 -531 1029 c 4
 -538 1043 -542 1059 -542 1077 c 0
 -542 1088 -540 1100 -538 1112 c 4
 -529 1151 -511 1183 -479 1209 c 4
 -447 1237 -410 1250 -367 1250 c 4
 -332 1250 -306 1243 -290 1228 c 4
 -270 1211 -257 1191 -252 1167 c 5
 -248 1156 -246 1143 -246 1130 c 0
 -246 1120 -247 1109 -250 1098 c 4
-407 1063 m 4
 -393 1063 -381 1068 -373 1078 c 4
 -363 1087 -357 1098 -354 1109 c 4
 -354 1112 -353 1115 -353 1118 c 0
 -353 1126 -355 1133 -360 1140 c 4
 -364 1149 -374 1153 -388 1153 c 4
 -403 1153 -415 1149 -424 1140 c 5
 -435 1131 -441 1121 -443 1109 c 4
 -444 1106 -444 1104 -444 1101 c 0
 -444 1094 -442 1086 -437 1078 c 4
 -432 1068 -422 1063 -407 1063 c 4
EndSplineSet
EndChar
StartChar: uni0E4A.low_left
Encoding: 136 63239 105
OldEncoding: 63239
Width: 0
Flags: W
HStem: 841 71<-491 -476> 955 20G<-476 -460.5> 1086 86<-423 -403>
VStem: -441 78<945 967> -237 100<1039 1078> -68 101<1144 1161>
Fore
-491 841 m 4
 -532 843 -560 861 -577 894 c 4
 -590 918 -596 944 -596 971 c 0
 -596 986 -594 1002 -589 1019 c 4
 -581 1058 -560 1094 -527 1128 c 4
 -498 1157 -463 1172 -421 1172 c 4
 -390 1172 -369 1166 -359 1155 c 5
 -344 1142 -336 1134 -335 1130 c 5
 -299 1155 l 6
 -282 1166 -261 1172 -235 1172 c 4
 -194 1172 -166 1159 -152 1134 c 4
 -142 1119 -137 1100 -137 1078 c 0
 -137 1064 -139 1049 -142 1033 c 4
 -151 995 -167 960 -192 929 c 5
 -186 930 -176 936 -161 947 c 4
 -144 958 -131 971 -120 984 c 4
 -96 1019 -82 1051 -75 1081 c 4
 -71 1102 -68 1123 -68 1144 c 5
 31 1176 l 5
 32 1172 33 1167 33 1161 c 0
 33 1148 30 1131 26 1108 c 4
 11 1042 -16 986 -58 940 c 5
 -87 906 -124 883 -168 871 c 4
 -206 860 -256 854 -317 854 c 5
 -315 873 l 5
 -313 892 l 5
 -298 905 -285 918 -276 929 c 4
 -259 948 -248 973 -242 1002 c 4
 -238 1016 -237 1029 -237 1039 c 0
 -237 1067 -250 1081 -276 1081 c 4
 -289 1081 -303 1078 -316 1070 c 4
 -321 1067 -329 1061 -342 1051 c 5
 -348 1058 -356 1066 -368 1072 c 4
 -380 1081 -396 1086 -416 1086 c 4
 -452 1086 -475 1069 -485 1035 c 5
 -466 1040 l 5
 -434 1044 l 5
 -403 1042 -383 1032 -373 1015 c 4
 -367 1002 -363 986 -363 967 c 0
 -363 957 -364 945 -367 933 c 4
 -372 908 -388 886 -412 868 c 4
 -435 850 -462 841 -491 841 c 4
-465 975 m 4
 -487 975 -500 965 -504 945 c 4
 -505 943 -505 941 -505 939 c 0
 -505 933 -503 928 -500 924 c 4
 -494 916 -487 912 -478 912 c 4
 -469 912 -461 915 -453 922 c 4
 -448 929 -443 936 -441 945 c 4
 -441 947 -441 948 -441 950 c 0
 -441 955 -442 961 -444 966 c 5
 -448 972 -456 975 -465 975 c 4
EndSplineSet
EndChar
StartChar: uni0E4B.low_left
Encoding: 137 63240 106
OldEncoding: 63240
Width: 0
Flags: W
HStem: 1001 123<-401 -292 -138 -30>
DStem: -292 1001 -164 1001 -320 869 -192 869 -238 1255 -110 1255 -266 1124 -138 1124
Fore
-292 1001 m 5
 -426 1001 l 5
 -400 1124 l 5
 -266 1124 l 5
 -238 1255 l 5
 -110 1255 l 5
 -138 1124 l 5
 -4 1124 l 5
 -30 1001 l 5
 -164 1001 l 5
 -192 869 l 5
 -320 869 l 5
 -292 1001 l 5
EndSplineSet
EndChar
StartChar: uni0E4C.low_left
Encoding: 138 63241 107
OldEncoding: 63241
Width: 0
Flags: W
HStem: 849 93<-239 -224> 1030 92<-207 -179>
VStem: -385 122<970 986> -171 100<1000 1022>
Fore
28 1138 m 4
 -40 1128 -109 1122 -179 1122 c 4
 -139 1122 -110 1110 -93 1085 c 5
 -78 1067 -71 1046 -71 1022 c 0
 -71 1013 -72 1004 -74 995 c 4
 -80 957 -98 923 -130 893 c 4
 -160 864 -197 849 -239 849 c 4
 -248 849 l 0
 -296 849 -333 863 -358 893 c 4
 -376 914 -385 940 -385 972 c 0
 -385 986 -383 1000 -380 1016 c 4
 -359 1104 -310 1166 -233 1202 c 5
 -198 1216 -151 1224 -95 1226 c 4
 -36 1231 5 1238 29 1248 c 4
 54 1257 71 1281 79 1319 c 5
 194 1319 l 5
 184 1271 167 1232 140 1202 c 4
 111 1168 74 1147 28 1138 c 4
-207 1030 m 4
 -220 1030 -232 1026 -244 1018 c 5
 -254 1009 -260 998 -262 986 c 4
 -263 983 -263 981 -263 978 c 0
 -263 971 -261 963 -257 956 c 4
 -250 947 -239 942 -226 942 c 4
 -211 942 -199 947 -190 956 c 5
 -180 964 -175 974 -172 986 c 4
 -171 991 -171 996 -171 1000 c 0
 -171 1020 -182 1030 -207 1030 c 4
EndSplineSet
EndChar
StartChar: uni0E48.low
Encoding: 139 63242 108
OldEncoding: 63242
Width: 0
Flags: W
DStem: 10 1200 144 1200 -65 848 69 848
Fore
-65 848 m 5
 10 1200 l 5
 144 1200 l 5
 69 848 l 5
 -65 848 l 5
EndSplineSet
EndChar
StartChar: uni0E49.low
Encoding: 140 63243 109
OldEncoding: 63243
Width: 0
Flags: W
HStem: 1153 97<-101 -78>
VStem: -253 96<1074 1101> -64 105<1109 1135>
Fore
37 1098 m 0
 25 1050 11 1017 -2 1001 c 1
 -17 980 -27 969 -32 968 c 1
 -25 968 -13 971 7 978 c 1
 30 983 52 991 72 1001 c 0
 92 1011 113 1028 134 1052 c 1
 171 1103 194 1150 204 1193 c 1
 211 1241 l 1
 340 1241 l 1
 303 1070 225 959 103 906 c 0
 33 875 -43 860 -125 860 c 1
 -189 862 l 1
 -203 868 -210 869 -215 869 c 0
 -219 869 -221 868 -223 868 c 0
 -223 868 -224 869 -225 869 c 5
 -216 915 l 1
 -204 919 -192 926 -180 936 c 1
 -165 947 -156 957 -150 968 c 1
 -195 980 l 2
 -215 986 -232 1003 -244 1029 c 0
 -250 1042 -253 1057 -253 1074 c 0
 -253 1086 -251 1099 -249 1112 c 0
 -241 1148 -221 1181 -189 1209 c 0
 -158 1237 -121 1250 -78 1250 c 0
 -30 1250 3 1234 22 1202 c 0
 35 1182 41 1160 41 1135 c 0
 41 1123 40 1111 37 1098 c 0
-120 1063 m 0
 -107 1063 -94 1068 -83 1078 c 1
 -72 1091 -66 1102 -64 1109 c 0
 -64 1111 -64 1114 -64 1116 c 0
 -64 1123 -66 1131 -70 1140 c 1
 -77 1149 -88 1153 -101 1153 c 0
 -116 1153 -128 1149 -137 1140 c 1
 -148 1131 -154 1121 -156 1109 c 0
 -157 1106 -157 1104 -157 1101 c 0
 -157 1094 -155 1086 -150 1078 c 0
 -145 1068 -135 1063 -120 1063 c 0
EndSplineSet
EndChar
StartChar: uni0E4A.low
Encoding: 141 63244 110
OldEncoding: 63244
Width: 0
Flags: W
HStem: 843 81<-324 -296> 1107 94<-258 -229>
VStem: -253 67<958 979> -48 109<1054 1097> 138 109<1155 1194>
Fore
-324 843 m 4
 -370 843 -401 863 -419 903 c 4
 -432 930 -438 957 -438 985 c 0
 -438 1002 -436 1018 -431 1035 c 4
 -422 1079 -400 1118 -366 1153 c 4
 -333 1185 -294 1201 -248 1201 c 4
 -233 1201 -217 1199 -203 1194 c 5
 -177 1181 l 5
 -160 1167 l 5
 -153 1156 l 5
 -145 1163 -131 1173 -113 1183 c 4
 -94 1195 -72 1201 -47 1201 c 4
 -7 1201 25 1188 47 1163 c 5
 56 1144 61 1122 61 1097 c 0
 61 1082 60 1066 56 1049 c 4
 48 1011 28 973 -1 936 c 5
 33 954 l 5
 51 967 66 981 77 995 c 4
 105 1026 123 1065 133 1112 c 4
 136 1127 138 1141 138 1155 c 0
 138 1166 137 1177 136 1188 c 5
 246 1209 l 5
 246 1204 247 1200 247 1194 c 0
 247 1178 244 1159 240 1137 c 4
 224 1061 192 997 144 947 c 4
 109 908 70 884 27 873 c 4
 -21 861 -75 854 -136 854 c 5
 -133 871 l 5
 -131 896 l 5
 -120 904 -107 918 -92 938 c 4
 -73 960 -59 986 -53 1017 c 4
 -50 1031 -48 1044 -48 1054 c 0
 -48 1087 -63 1104 -91 1104 c 4
 -109 1104 -126 1099 -143 1090 c 4
 -156 1084 -166 1077 -175 1070 c 5
 -175 1070 l 5
 -175 1070 l 0
 -175 1072 -177 1075 -181 1081 c 5
 -205 1099 l 5
 -217 1105 -231 1107 -243 1107 c 4
 -284 1107 -310 1089 -319 1053 c 5
 -297 1061 l 5
 -261 1066 l 5
 -231 1063 -209 1052 -197 1031 c 4
 -190 1015 -186 998 -186 979 c 0
 -186 967 -187 955 -190 942 c 4
 -195 917 -211 894 -237 873 c 4
 -262 853 -290 843 -324 843 c 4
-281 991 m 4
 -304 991 -319 980 -323 958 c 4
 -324 954 -325 951 -325 948 c 0
 -325 932 -315 924 -296 924 c 4
 -273 924 -258 936 -253 958 c 4
 -253 961 -252 964 -252 967 c 0
 -252 973 -254 978 -256 982 c 4
 -261 988 -269 991 -281 991 c 4
EndSplineSet
EndChar
StartChar: uni0E4B.low
Encoding: 142 63245 111
OldEncoding: 63245
Width: 0
Flags: W
HStem: 1001 123<-143 -32 119 228>
DStem: -32 1001 93 1001 -60 869 65 869 22 1255 147 1255 -6 1124 119 1124
Fore
-32 1001 m 5
 -168 1001 l 5
 -142 1124 l 5
 -6 1124 l 5
 22 1255 l 5
 147 1255 l 5
 119 1124 l 5
 254 1124 l 5
 228 1001 l 5
 93 1001 l 5
 65 869 l 5
 -60 869 l 5
 -32 1001 l 5
EndSplineSet
EndChar
StartChar: uni0E4C.low
Encoding: 143 63246 112
OldEncoding: 63246
Width: 0
Flags: W
HStem: 849 90<-79 -64> 1030 90<-47 -19>
VStem: -227 124<971 986> -11 100<998 1022>
Fore
186 1136 m 4
 162 1132 125 1128 75 1125 c 6
 -19 1120 l 5
 21 1120 50 1108 66 1083 c 5
 82 1066 89 1046 89 1022 c 0
 89 1013 88 1003 86 993 c 5
 80 955 62 921 30 891 c 4
 -2 863 -38 849 -79 849 c 4
 -135 849 -175 865 -201 895 c 5
 -218 918 -227 944 -227 973 c 0
 -227 986 -225 1000 -221 1014 c 4
 -213 1052 -195 1090 -167 1127 c 4
 -145 1157 -114 1181 -73 1199 c 4
 -40 1213 5 1222 64 1227 c 4
 119 1229 162 1235 191 1246 c 4
 214 1253 230 1277 239 1317 c 5
 354 1317 l 5
 332 1214 276 1153 186 1136 c 4
-47 1030 m 4
 -61 1030 -74 1025 -85 1016 c 4
 -94 1007 -100 996 -102 986 c 4
 -103 984 -103 982 -103 979 c 0
 -103 972 -101 964 -98 954 c 4
 -93 944 -82 939 -66 939 c 4
 -51 939 -39 944 -30 954 c 4
 -20 964 -15 975 -12 986 c 4
 -12 990 -11 994 -11 998 c 0
 -11 1006 -13 1013 -16 1019 c 5
 -26 1026 -36 1030 -47 1030 c 4
EndSplineSet
EndChar
StartChar: uni0E0D.descless
Encoding: 144 63247 113
OldEncoding: 63247
Width: 1044
Flags: W
HStem: -15 85<214 235> -1 120<447 782> 195 86<261 275> 709 95<486 539> 765 20G<967 1101>
VStem: 93 88<97 122> 312 86<149 166> 628 131<608 630>
DStem: 626 591 754 570 525 119 658 119 967 785 1101 785 840 186 966 149
Fore
1101 785 m 5
 966 149 l 6
 957 108 944 76 927 52 c 4
 911 31 889 17 860 10 c 4
 830 2 792 -1 745 -1 c 6
 423 -1 l 5
 448 119 l 5
 525 119 l 5
 626 591 l 6
 627 600 628 608 628 616 c 0
 628 641 619 661 600 677 c 4
 574 696 536 707 486 709 c 4
 462 709 431 704 391 692 c 4
 348 680 316 664 297 644 c 5
 317 640 339 634 362 626 c 4
 393 616 419 601 441 582 c 5
 427 517 l 5
 401 517 374 509 347 494 c 4
 320 478 300 444 289 390 c 6
 265 279 l 5
 270 281 l 5
 277 281 l 6
 309 281 334 274 353 260 c 4
 373 245 386 226 391 204 c 4
 396 193 398 180 398 166 c 0
 398 156 397 145 394 133 c 4
 389 107 378 83 361 61 c 4
 345 38 324 20 299 5 c 4
 273 -8 245 -15 214 -15 c 4
 166 -15 133 0 115 29 c 5
 101 48 93 71 93 97 c 0
 93 109 95 122 98 135 c 6
 150 381 l 6
 160 427 173 461 188 485 c 4
 205 511 229 533 260 551 c 5
 248 558 231 564 208 570 c 4
 179 579 150 585 124 586 c 5
 133 630 l 5
 156 657 203 694 273 739 c 4
 341 782 430 804 539 804 c 4
 593 804 634 796 664 781 c 4
 697 763 720 744 732 723 c 4
 747 697 756 672 757 646 c 4
 759 636 759 626 759 617 c 0
 759 601 757 585 754 570 c 6
 658 119 l 5
 770 119 l 6
 794 119 811 123 822 131 c 5
 827 138 833 156 840 186 c 6
 967 785 l 5
 1101 785 l 5
235 70 m 4
 245 70 258 73 272 80 c 5
 283 88 291 95 297 103 c 4
 303 112 308 122 310 133 c 4
 312 139 312 145 312 151 c 0
 312 163 309 172 304 179 c 4
 295 190 281 195 261 195 c 4
 242 195 225 189 211 177 c 4
 195 163 185 148 182 133 c 4
 181 129 181 126 181 122 c 0
 181 111 185 101 192 91 c 4
 201 77 216 70 235 70 c 4
EndSplineSet
EndChar
StartChar: quoteleft
Encoding: 145 8216 114
OldEncoding: 8216
Width: 291
Flags: W
Fore
200 787 m 4
 211 851 244 902 297 942 c 5
 350 984 399 1007 442 1012 c 5
 451 979 l 5
 413 961 387 946 373 935 c 5
 351 921 334 898 323 868 c 5
 348 868 371 861 391 847 c 4
 406 837 413 819 413 793 c 0
 413 786 413 778 411 769 c 5
 406 744 393 720 370 696 c 5
 351 678 326 669 298 669 c 4
 256 669 229 680 214 701 c 5
 203 716 197 734 197 756 c 0
 197 766 198 776 200 787 c 4
EndSplineSet
EndChar
StartChar: quoteright
Encoding: 146 8217 115
OldEncoding: 8217
Width: 290
Flags: W
HStem: 976 21G<349 366.5>
Fore
441 880 m 4
 441 877 l 0
 441 816 417 762 370 716 c 5
 324 667 278 636 236 624 c 5
 220 653 l 5
 255 677 279 696 291 708 c 4
 311 726 324 750 330 781 c 5
 322 779 314 779 306 779 c 0
 289 779 272 782 257 789 c 4
 235 798 223 821 221 859 c 4
 222 883 231 908 250 934 c 4
 266 956 289 968 319 973 c 4
 332 975 344 976 354 976 c 0
 379 976 397 971 410 958 c 5
 431 941 441 916 441 882 c 0
 441 881 441 881 441 880 c 4
EndSplineSet
EndChar
StartChar: quotedblleft
Encoding: 147 8220 116
OldEncoding: 8220
Width: 587
Flags: W
Fore
197 783 m 4
 207 845 239 897 293 939 c 5
 345 982 392 1006 435 1011 c 5
 445 980 l 5
 409 961 383 946 367 935 c 4
 346 920 330 897 320 866 c 5
 345 866 368 860 388 848 c 4
 404 838 411 820 411 793 c 0
 411 786 411 777 409 768 c 4
 405 742 392 718 370 697 c 4
 351 678 327 668 298 668 c 4
 289 668 l 0
 252 668 228 679 213 698 c 4
 201 714 194 733 194 755 c 0
 194 764 195 773 197 783 c 4
477 790 m 4
 486 852 518 904 572 946 c 5
 622 988 669 1012 713 1017 c 5
 725 987 l 5
 689 968 662 952 646 940 c 4
 626 926 610 903 598 872 c 5
 622 872 646 866 666 853 c 4
 682 843 690 824 690 798 c 0
 690 791 690 783 689 775 c 4
 684 748 671 724 649 703 c 4
 630 684 606 674 577 674 c 4
 575 674 573 674 572 674 c 0
 532 674 506 684 492 704 c 5
 480 718 473 737 473 759 c 0
 473 769 475 779 477 790 c 4
EndSplineSet
EndChar
StartChar: quotedblright
Encoding: 148 8221 117
OldEncoding: 8221
Width: 588
Flags: W
HStem: 976 21G<312 347 590 624.5>
Fore
702 857 m 4
 692 795 659 744 604 702 c 4
 552 661 504 638 460 633 c 5
 450 665 l 5
 486 683 513 698 530 709 c 4
 551 724 568 747 578 777 c 5
 553 777 531 784 511 797 c 4
 496 807 489 824 489 849 c 0
 489 857 490 866 491 876 c 4
 497 903 510 926 532 947 c 4
 551 966 576 976 604 976 c 4
 645 976 673 965 688 943 c 5
 700 928 706 909 706 887 c 0
 706 878 704 868 702 857 c 4
424 857 m 4
 414 795 381 744 326 702 c 5
 274 661 227 638 183 633 c 5
 172 665 l 5
 208 683 235 698 252 709 c 4
 272 723 289 746 301 777 c 5
 277 777 255 784 233 797 c 4
 218 808 211 825 211 850 c 0
 211 858 212 866 213 876 c 4
 219 903 232 926 254 947 c 4
 273 966 298 976 326 976 c 4
 368 976 397 965 410 943 c 5
 422 929 428 911 428 889 c 0
 428 879 427 869 424 857 c 4
EndSplineSet
EndChar
StartChar: bullet
Encoding: 149 8226 118
OldEncoding: 8226
Width: 370
Flags: W
Fore
218 205 m 0
 157 205 112 225 84 265 c 0
 66 292 57 322 57 356 c 0
 57 371 59 386 62 402 c 0
 70 437 85 469 106 497 c 0
 130 529 159 554 190 572 c 0
 222 590 260 599 301 599 c 0
 344 599 378 590 404 572 c 0
 429 553 446 529 456 499 c 1
 460 484 462 469 462 452 c 0
 462 436 460 419 456 402 c 0
 445 348 418 301 376 263 c 0
 334 225 281 205 218 205 c 0
EndSplineSet
EndChar
StartChar: endash
Encoding: 150 8211 119
OldEncoding: 8211
Width: 1090
Flags: W
HStem: 343 67<19 1164>
Fore
20 410 m 1
 1178 410 l 1
 1164 343 l 1
 6 343 l 1
 20 410 l 1
EndSplineSet
EndChar
StartChar: emdash
Encoding: 151 8212 120
OldEncoding: 8212
Width: 2183
Flags: W
HStem: 343 67<-47 2256>
Fore
-46 410 m 1
 2270 410 l 1
 2256 343 l 1
 -60 343 l 1
 -46 410 l 1
EndSplineSet
EndChar
StartChar: uni0E31.left
Encoding: 152 63248 121
OldEncoding: 63248
Width: 0
Flags: W
HStem: 847 112<-170 -150> 977 21G<-286 -266> 1088 93<-255 -233>
VStem: -423 101<995 1020> -208 91<1047 1072>
Fore
-233 1181 m 0
 -187 1181 -155 1166 -136 1138 c 0
 -123 1119 -117 1097 -117 1072 c 0
 -117 1059 -119 1045 -122 1030 c 0
 -125 1014 -131 999 -137 986 c 0
 -145 975 -151 965 -157 959 c 1
 -100 959 -44 972 10 999 c 0
 65 1026 118 1079 171 1160 c 1
 273 1118 l 1
 248 1065 211 1017 163 975 c 0
 109 929 58 897 8 880 c 0
 -51 858 -110 847 -170 847 c 1
 -218 849 l 1
 -276 855 -328 874 -375 907 c 1
 -407 931 -423 960 -423 995 c 0
 -423 1006 -421 1018 -418 1030 c 0
 -409 1071 -388 1107 -353 1138 c 0
 -322 1166 -282 1181 -233 1181 c 0
-276 977 m 0
 -256 977 -242 982 -231 993 c 0
 -219 1005 -213 1018 -210 1032 c 0
 -209 1037 -208 1042 -208 1047 c 0
 -208 1056 -210 1064 -214 1072 c 0
 -221 1082 -233 1088 -253 1088 c 0
 -273 1088 -288 1082 -298 1072 c 0
 -310 1060 -317 1047 -321 1032 c 0
 -322 1028 -322 1024 -322 1020 c 0
 -322 1010 -319 1001 -315 993 c 0
 -309 982 -296 977 -276 977 c 0
EndSplineSet
EndChar
StartChar: uni0E4D.left
Encoding: 153 63249 122
OldEncoding: 63249
Width: 0
Flags: W
HStem: 903 95<-252 -232> 1121 95<-208 -186>
VStem: -380 99<1026 1045> -157 98<1074 1100>
Fore
-186 1216 m 4
 -137 1216 -101 1201 -80 1170 c 4
 -66 1150 -59 1127 -59 1100 c 0
 -59 1088 -61 1075 -63 1061 c 4
 -72 1019 -94 982 -129 949 c 5
 -165 918 -206 903 -252 903 c 4
 -300 903 -336 918 -358 949 c 5
 -373 973 -380 999 -380 1026 c 0
 -380 1038 -379 1049 -376 1061 c 4
 -368 1102 -346 1138 -311 1170 c 4
 -278 1201 -236 1216 -186 1216 c 4
-232 998 m 4
 -214 998 -199 1004 -185 1017 c 4
 -171 1028 -163 1042 -158 1061 c 4
 -157 1066 -157 1070 -157 1074 c 0
 -157 1085 -160 1094 -167 1102 c 4
 -175 1115 -188 1121 -206 1121 c 4
 -225 1121 -240 1115 -253 1104 c 4
 -266 1094 -276 1079 -279 1061 c 4
 -281 1055 -281 1050 -281 1045 c 0
 -281 1034 -278 1025 -272 1017 c 4
 -264 1004 -250 998 -232 998 c 4
EndSplineSet
EndChar
StartChar: uni0E47.left
Encoding: 154 63250 123
OldEncoding: 63250
Width: 0
Flags: W
HStem: 842 84<-186 -168> 954 104<-384 -350> 998 82<-155 -135> 1100 93<-212 -178>
VStem: -123 88<963 997>
Fore
-186 842 m 0
 -209 842 -228 848 -242 859 c 1
 -257 867 -274 881 -294 900 c 0
 -317 922 -332 935 -339 939 c 0
 -352 949 -367 954 -384 954 c 0
 -399 954 -415 942 -431 917 c 0
 -447 893 -459 867 -465 838 c 1
 -494 838 l 1
 -522 855 -543 884 -558 924 c 1
 -568 948 -574 974 -574 1001 c 0
 -574 1015 -572 1029 -569 1043 c 0
 -564 1066 -557 1085 -548 1100 c 0
 -523 1139 -495 1165 -466 1178 c 0
 -437 1192 -396 1199 -344 1199 c 2
 -287 1197 l 1
 -188 1193 l 1
 -145 1193 -114 1199 -96 1213 c 1
 -75 1224 -59 1251 -50 1294 c 1
 56 1294 l 1
 41 1225 13 1176 -28 1146 c 0
 -71 1115 -132 1100 -212 1100 c 1
 -308 1104 l 1
 -356 1104 -393 1098 -416 1085 c 0
 -439 1075 -454 1049 -463 1007 c 1
 -459 1017 -446 1028 -429 1039 c 0
 -408 1052 -382 1058 -350 1058 c 0
 -320 1058 -299 1052 -287 1041 c 2
 -257 1014 l 1
 -233 1058 -191 1080 -135 1080 c 0
 -96 1080 -69 1070 -51 1049 c 0
 -41 1035 -35 1017 -35 997 c 0
 -35 986 -37 975 -39 963 c 0
 -47 928 -64 899 -91 877 c 0
 -117 854 -149 842 -186 842 c 0
-168 926 m 0
 -157 926 -146 930 -138 937 c 0
 -131 943 -126 952 -123 963 c 0
 -123 967 -122 970 -122 973 c 0
 -122 979 -124 984 -127 988 c 0
 -132 995 -141 998 -153 998 c 0
 -161 998 -170 994 -180 986 c 0
 -189 980 -193 972 -195 963 c 0
 -196 959 -196 956 -196 953 c 0
 -196 947 -195 941 -191 937 c 0
 -184 930 -177 926 -168 926 c 0
EndSplineSet
EndChar
StartChar: uni0E48.left
Encoding: 155 63251 124
OldEncoding: 63251
Width: 0
Flags: W
DStem: -63 1568 60 1568 -120 1297 3 1297
Fore
-120 1297 m 1
 -63 1568 l 1
 60 1568 l 1
 3 1297 l 5
 -120 1297 l 1
EndSplineSet
EndChar
StartChar: uni0E49.left
Encoding: 156 63252 125
OldEncoding: 63252
Width: 0
Flags: W
HStem: 1552 80<-151 -131>
VStem: -279 80<1485 1505> -118 87<1516 1532>
Fore
-34 1503 m 4
 -44 1463 -56 1436 -68 1422 c 5
 -80 1404 -88 1394 -92 1391 c 5
 -61 1399 l 6
 -44 1404 -25 1411 -5 1422 c 4
 12 1431 30 1445 48 1464 c 5
 68 1488 81 1511 88 1533 c 5
 98 1555 106 1585 114 1623 c 5
 220 1623 l 5
 189 1475 124 1381 24 1338 c 4
 -39 1312 -103 1299 -167 1299 c 4
 -178 1299 -195 1301 -222 1304 c 6
 -256 1309 l 5
 -248 1347 l 5
 -219 1364 l 5
 -207 1370 -199 1379 -194 1391 c 5
 -229 1402 l 6
 -251 1409 -265 1423 -271 1442 c 4
 -277 1455 -279 1470 -279 1485 c 0
 -279 1495 -278 1505 -276 1515 c 4
 -269 1547 -252 1575 -224 1598 c 4
 -197 1621 -167 1632 -131 1632 c 4
 -91 1632 -63 1619 -47 1594 c 5
 -36 1573 -31 1551 -31 1530 c 0
 -31 1521 -32 1512 -34 1503 c 4
-168 1473 m 4
 -141 1473 -125 1486 -120 1512 c 4
 -119 1516 -118 1520 -118 1524 c 0
 -118 1530 -120 1535 -123 1540 c 4
 -128 1548 -137 1552 -151 1552 c 4
 -163 1552 -174 1548 -184 1540 c 4
 -191 1533 -196 1524 -199 1512 c 4
 -199 1510 -199 1508 -199 1505 c 0
 -199 1498 -197 1492 -194 1484 c 5
 -186 1477 -178 1473 -168 1473 c 4
EndSplineSet
EndChar
StartChar: uni0E4A.left
Encoding: 157 63253 126
OldEncoding: 63253
Width: 0
Flags: W
HStem: 1286 69<-313 -298> 1518 81<-255 -232 -109 -72>
VStem: -414 89<1375 1411> -262 72<1392 1410> -71 94<1478 1512>
Fore
-313 1286 m 4
 -350 1288 -378 1306 -395 1339 c 4
 -408 1360 -414 1384 -414 1411 c 0
 -414 1424 -412 1439 -409 1454 c 5
 -395 1496 -375 1531 -347 1558 c 4
 -320 1586 -286 1599 -246 1599 c 4
 -227 1599 -213 1598 -202 1593 c 5
 -172 1573 l 5
 -163 1560 l 5
 -163 1560 l 5
 -158 1567 -145 1576 -128 1586 c 4
 -112 1595 -93 1599 -72 1599 c 4
 -32 1599 -4 1588 10 1565 c 4
 19 1551 23 1533 23 1512 c 0
 23 1499 22 1485 18 1470 c 4
 11 1434 -4 1400 -28 1368 c 5
 -24 1370 -14 1377 1 1390 c 5
 19 1402 31 1412 38 1421 c 4
 62 1453 77 1485 83 1516 c 4
 87 1534 89 1553 90 1575 c 5
 184 1604 l 5
 185 1599 185 1593 185 1587 c 0
 185 1575 184 1560 180 1544 c 4
 166 1477 138 1423 97 1381 c 5
 68 1348 33 1326 -7 1315 c 4
 -46 1305 -94 1299 -150 1299 c 5
 -146 1317 l 5
 -144 1337 l 5
 -137 1343 -124 1354 -109 1370 c 4
 -96 1385 -85 1408 -76 1440 c 4
 -73 1454 -71 1467 -71 1478 c 0
 -71 1485 -72 1491 -73 1496 c 4
 -77 1509 -89 1516 -109 1516 c 4
 -122 1516 -134 1512 -145 1505 c 5
 -159 1498 -167 1492 -170 1487 c 5
 -170 1487 l 5
 -170 1487 l 0
 -170 1489 -172 1492 -177 1496 c 6
 -205 1512 l 6
 -215 1516 -227 1518 -241 1518 c 4
 -276 1518 -299 1503 -308 1472 c 4
 -307 1473 -299 1475 -287 1478 c 5
 -259 1480 l 6
 -233 1480 -213 1471 -200 1452 c 4
 -193 1441 -190 1427 -190 1410 c 0
 -190 1399 -191 1388 -194 1375 c 4
 -199 1352 -212 1332 -234 1313 c 5
 -260 1295 -286 1286 -313 1286 c 4
-288 1412 m 4
 -308 1412 -320 1403 -324 1385 c 4
 -324 1381 -325 1378 -325 1375 c 0
 -325 1362 -316 1355 -300 1355 c 4
 -279 1355 -267 1365 -263 1385 c 4
 -262 1388 -262 1391 -262 1393 c 0
 -262 1406 -270 1412 -288 1412 c 4
EndSplineSet
EndChar
StartChar: uni0E4B.left
Encoding: 158 63254 127
OldEncoding: 63254
Width: 0
Flags: W
HStem: 1409 106<-201 -108 31 124>
Fore
-108 1409 m 5
 -223 1409 l 5
 -200 1515 l 5
 -85 1515 l 5
 -63 1617 l 5
 53 1617 l 5
 31 1515 l 5
 147 1515 l 5
 124 1409 l 5
 8 1409 l 5
 -13 1309 l 5
 -129 1309 l 5
 -108 1409 l 5
EndSplineSet
EndChar
StartChar: uni0E4C.left
Encoding: 159 63255 128
OldEncoding: 63255
Width: 0
Flags: W
HStem: 1237 79<-114 -101>
VStem: -237 104<1334 1356> -56 88<1364 1383>
Fore
113 1482 m 4
 108 1482 66 1478 -12 1471 c 5
 -61 1469 l 5
 -28 1469 -2 1459 14 1438 c 4
 26 1421 32 1403 32 1383 c 0
 32 1377 31 1370 30 1363 c 4
 24 1328 8 1299 -19 1274 c 4
 -46 1250 -78 1237 -113 1237 c 4
 -122 1237 l 0
 -163 1237 -193 1250 -213 1277 c 5
 -229 1295 -237 1317 -237 1344 c 0
 -237 1355 -236 1366 -233 1378 c 4
 -217 1456 -174 1508 -107 1535 c 4
 -74 1549 -35 1557 11 1559 c 4
 54 1561 89 1567 116 1575 c 4
 138 1582 153 1602 160 1635 c 5
 257 1635 l 5
 248 1594 232 1561 207 1535 c 5
 183 1505 151 1487 113 1482 c 4
-87 1392 m 4
 -111 1392 -127 1380 -132 1356 c 4
 -133 1351 -133 1347 -133 1343 c 0
 -133 1325 -123 1316 -103 1316 c 4
 -78 1316 -63 1329 -57 1356 c 4
 -56 1359 -56 1361 -56 1364 c 0
 -56 1371 -58 1377 -61 1381 c 4
 -68 1388 -76 1392 -87 1392 c 4
EndSplineSet
EndChar
StartChar: uni0E01
Encoding: 161 3585 130
OldEncoding: 3585
Width: 807
Flags: W
HStem: -1 21G<84 221 563 696> 703 102<518 553>
VStem: 681 138<578 608>
DStem: 165 381 304 390 84 -1 221 -1 676 533 812 544 563 -1 696 -1
Fore
274 551 m 1
 263 558 245 564 223 570 c 0
 193 579 165 585 139 586 c 1
 148 630 l 1
 183 665 l 2
 197 677 223 697 263 723 c 1
 305 747 347 766 391 781 c 0
 435 796 490 805 553 805 c 0
 616 805 668 795 709 776 c 0
 751 755 782 726 802 688 c 0
 813 665 819 638 819 608 c 0
 819 588 816 567 812 544 c 2
 696 -1 l 1
 563 -1 l 5
 676 533 l 2
 680 549 681 564 681 578 c 0
 681 612 671 640 650 661 c 0
 620 689 577 703 520 703 c 0
 454 703 385 682 312 642 c 1
 341 635 l 2
 347 634 365 629 395 619 c 0
 418 610 437 598 455 582 c 1
 441 517 l 1
 416 517 389 509 362 494 c 0
 335 479 315 444 304 390 c 2
 221 -1 l 1
 84 -1 l 1
 165 381 l 2
 175 427 187 461 203 485 c 0
 220 511 243 533 274 551 c 1
EndSplineSet
EndChar
StartChar: uni0E02
Encoding: 162 3586 131
OldEncoding: 3586
Width: 792
Flags: W
HStem: -1 120<191 521> 444 95<234 255> 660 145<280 391> 766 20G<712 849>
VStem: 104 102<564 583> 329 100<616 641> 488 118<615 642>
DStem: 335 353 473 358 285 119 422 119 712 786 849 786 585 186 714 149
Fore
484 587 m 1
 487 602 488 615 488 627 c 0
 488 646 484 662 475 673 c 1
 457 690 437 699 416 702 c 1
 420 692 425 680 428 666 c 0
 429 658 429 650 429 641 c 0
 429 628 428 615 425 602 c 0
 413 555 390 517 357 488 c 1
 322 459 280 444 234 444 c 0
 189 444 154 459 128 490 c 0
 112 511 104 536 104 564 c 0
 104 576 105 589 108 602 c 0
 117 644 136 681 167 713 c 0
 198 744 233 767 271 782 c 0
 310 798 349 805 391 805 c 0
 468 805 526 784 564 742 c 0
 592 712 606 676 606 636 c 0
 606 623 605 610 602 596 c 0
 595 563 588 540 579 525 c 0
 570 511 555 492 536 470 c 2
 495 419 l 1
 486 404 479 384 473 358 c 2
 422 119 l 1
 507 119 l 2
 535 119 553 122 564 131 c 1
 572 139 578 157 585 186 c 2
 712 786 l 1
 849 786 l 1
 714 149 l 2
 700 86 677 46 643 29 c 1
 611 9 557 -1 482 -1 c 2
 167 -1 l 5
 192 119 l 1
 285 119 l 1
 335 353 l 2
 341 380 350 403 362 424 c 0
 373 440 389 459 410 481 c 0
 429 498 443 514 456 530 c 0
 463 538 472 557 484 587 c 1
255 539 m 0
 275 539 291 545 305 558 c 0
 316 569 324 583 327 599 c 0
 329 605 329 611 329 616 c 0
 329 626 327 635 323 643 c 0
 315 654 300 660 280 660 c 0
 262 660 246 653 232 640 c 0
 219 630 212 616 208 599 c 0
 207 593 206 588 206 583 c 0
 206 573 209 565 215 558 c 0
 223 545 237 539 255 539 c 0
EndSplineSet
EndChar
StartChar: uni0E03
Encoding: 163 3587 132
OldEncoding: 3587
Width: 874
Flags: W
HStem: -1 120<274 612> 337 93<234 252> 550 92<276 298> 766 20G<797 931>
VStem: 90 112<467 482> 326 97<506 523> 581 114<650 668>
DStem: 447 480 579 469 370 119 504 119 797 786 931 786 670 187 804 187
Fore
234 337 m 0
 173 337 133 356 112 394 c 1
 97 418 90 447 90 480 c 0
 90 499 92 519 97 540 c 0
 102 564 108 585 115 603 c 0
 127 643 151 679 186 712 c 0
 215 740 248 763 287 781 c 0
 319 797 347 805 368 805 c 1
 446 756 l 1
 555 805 l 5
 594 798 629 779 659 749 c 0
 683 725 695 698 695 668 c 0
 695 660 695 652 693 644 c 0
 688 619 677 598 660 580 c 1
 610 533 l 1
 595 517 584 495 579 469 c 2
 504 119 l 1
 592 119 l 2
 619 119 638 123 648 132 c 1
 656 140 664 158 670 187 c 2
 797 786 l 1
 931 786 l 1
 804 187 l 2
 789 119 768 71 740 43 c 1
 715 14 666 -1 594 -1 c 2
 250 -1 l 1
 275 119 l 1
 370 119 l 1
 447 480 l 2
 461 546 495 591 548 617 c 1
 568 629 578 640 580 650 c 0
 581 652 581 654 581 655 c 0
 581 671 567 686 540 701 c 1
 423 650 l 1
 325 701 l 1
 302 697 280 686 260 668 c 1
 243 650 232 636 228 626 c 1
 233 630 240 633 248 635 c 0
 262 640 278 642 298 642 c 0
 329 642 355 635 375 622 c 1
 393 612 406 595 415 571 c 0
 421 555 423 539 423 523 c 0
 423 514 422 505 420 496 c 0
 414 454 392 416 357 381 c 1
 324 351 283 337 234 337 c 0
250 430 m 0
 270 430 286 435 299 448 c 0
 313 460 321 474 324 489 c 0
 325 495 326 500 326 506 c 0
 326 516 323 526 317 533 c 1
 310 545 297 550 276 550 c 0
 261 550 246 544 228 531 c 0
 216 521 208 507 204 489 c 0
 203 484 202 479 202 475 c 0
 202 465 205 456 210 448 c 0
 221 435 235 430 250 430 c 0
EndSplineSet
EndChar
StartChar: uni0E04
Encoding: 164 3588 133
OldEncoding: 3588
Width: 800
Flags: W
HStem: -2 21G<138 275 556 690> 506 95<447 467> 699 106<498 528>
VStem: 112 117<443 465> 496 97<463 484> 671 138<563 589>
DStem: 667 520 802 527 556 -2 690 -2
Fore
400 288 m 1
 363 293 l 1
 347 297 339 300 339 302 c 0
 339 302 l 2
 275 -2 l 1
 138 -2 l 1
 165 129 l 2
 170 149 172 169 172 187 c 0
 172 200 171 212 169 224 c 0
 161 256 152 288 140 319 c 0
 131 342 122 375 114 416 c 0
 113 426 112 436 112 448 c 0
 112 468 115 492 120 518 c 0
 135 579 164 632 206 675 c 0
 249 720 299 752 355 772 c 0
 414 794 471 805 528 805 c 4
 587 805 640 795 687 774 c 0
 731 754 764 722 788 679 c 0
 802 653 809 623 809 589 c 0
 809 570 807 549 802 527 c 2
 690 -2 l 1
 556 -2 l 1
 667 520 l 2
 670 535 671 549 671 563 c 0
 671 599 659 629 635 652 c 0
 599 683 555 699 499 699 c 0
 441 699 385 682 333 650 c 0
 280 615 247 570 235 513 c 0
 231 493 229 474 229 456 c 0
 229 444 230 432 231 421 c 0
 234 396 237 383 239 383 c 1
 240 386 l 2
 249 430 271 476 306 522 c 1
 341 573 393 599 467 601 c 0
 513 601 547 587 570 557 c 0
 585 536 593 512 593 484 c 0
 593 472 592 459 589 445 c 0
 580 403 558 367 524 337 c 0
 489 307 448 291 400 288 c 1
420 383 m 0
 439 383 456 389 470 401 c 1
 482 413 490 428 494 445 c 0
 495 451 496 457 496 463 c 0
 496 473 493 482 489 489 c 0
 480 501 467 506 447 506 c 0
 429 506 412 500 399 487 c 0
 385 477 377 463 374 445 c 0
 372 439 372 434 372 429 c 0
 372 418 375 409 380 401 c 0
 390 389 402 383 420 383 c 0
EndSplineSet
EndChar
StartChar: uni0E05
Encoding: 165 3589 134
OldEncoding: 3589
Width: 800
Flags: W
HStem: -1 21G<138 275 556 690> 513 95<448 468>
VStem: 113 117<446 472> 497 97<470 491> 677 132<590 610>
DStem: 167 136 341 309 138 -1 275 -1 668 529 803 533 556 -1 690 -1
Fore
416 800 m 5
 526 749 l 1
 666 800 l 1
 708 787 742 765 766 735 c 0
 791 704 805 671 807 635 c 0
 808 620 809 606 809 593 c 0
 809 571 807 551 803 533 c 2
 690 -1 l 1
 556 -1 l 1
 668 529 l 2
 674 556 677 580 677 602 c 0
 677 609 677 616 676 622 c 0
 675 643 659 663 632 681 c 1
 502 637 l 1
 397 688 l 1
 354 672 318 650 290 622 c 1
 262 590 244 556 237 520 c 0
 232 500 230 481 230 463 c 0
 230 450 231 439 233 427 c 0
 235 402 239 390 241 390 c 1
 241 392 l 2
 251 437 272 482 307 529 c 1
 342 579 395 606 468 608 c 0
 514 608 548 593 572 564 c 0
 587 543 594 518 594 491 c 0
 594 478 593 465 590 452 c 0
 581 410 559 374 525 344 c 0
 491 313 449 297 402 295 c 1
 365 299 l 1
 348 304 341 307 341 309 c 0
 341 309 l 2
 275 -1 l 1
 138 -1 l 1
 167 136 l 2
 171 156 173 176 173 194 c 0
 173 207 172 219 170 231 c 0
 163 263 154 295 141 325 c 0
 132 349 123 381 116 423 c 0
 114 433 113 443 113 455 c 0
 113 475 116 498 121 524 c 0
 152 659 251 751 416 800 c 5
422 390 m 0
 441 390 457 396 472 408 c 1
 483 420 491 435 495 452 c 0
 496 458 497 464 497 470 c 0
 497 480 495 489 490 496 c 0
 482 507 468 513 448 513 c 0
 430 513 414 507 400 494 c 0
 387 483 379 469 375 452 c 0
 374 446 373 441 373 435 c 0
 373 425 376 415 382 408 c 0
 391 396 404 390 422 390 c 0
EndSplineSet
EndChar
StartChar: uni0E06
Encoding: 166 3590 135
OldEncoding: 3590
Width: 1002
Flags: W
HStem: -16 104<327 339> 0 21G<758 892> 335 91<232 249> 548 90<272 297> 766 20G<925 1059>
VStem: 88 110<463 482> 191 108<119 140> 322 100<503 523> 578 115<652 668>
DStem: 397 256 531 252 369 120 503 120 925 786 1059 786 805 220 892 0
Fore
576 465 m 2
 554 364 l 1
 597 357 632 347 657 335 c 0
 676 328 707 309 750 278 c 1
 778 255 797 236 805 220 c 1
 925 786 l 1
 1059 786 l 1
 892 0 l 1
 758 0 l 1
 758 2 759 4 759 7 c 0
 759 22 752 46 740 79 c 0
 725 120 700 158 667 192 c 0
 635 225 589 245 531 252 c 1
 503 120 l 2
 494 81 475 49 443 22 c 0
 412 -3 375 -16 331 -16 c 0
 277 -16 237 2 215 37 c 0
 199 61 191 88 191 119 c 0
 191 132 192 146 195 161 c 0
 206 212 233 257 273 296 c 0
 313 336 362 358 420 364 c 1
 445 479 l 2
 459 544 492 590 547 616 c 1
 564 622 574 632 577 645 c 0
 578 648 578 650 578 653 c 0
 578 670 565 685 538 698 c 1
 421 647 l 1
 323 698 l 1
 299 694 276 683 256 664 c 0
 237 645 224 629 216 616 c 1
 221 620 231 625 247 629 c 0
 257 633 273 636 297 638 c 1
 342 638 375 624 397 596 c 0
 414 575 422 550 422 523 c 0
 422 513 421 503 419 493 c 0
 412 451 389 414 351 382 c 0
 314 351 274 335 232 335 c 0
 173 338 132 356 110 391 c 0
 95 415 88 443 88 476 c 0
 88 494 90 513 95 534 c 0
 99 556 105 578 112 599 c 0
 134 657 173 706 229 744 c 0
 284 782 329 801 365 801 c 1
 443 755 l 1
 553 801 l 5
 590 796 626 779 658 748 c 0
 682 724 693 697 693 668 c 0
 693 660 692 652 691 643 c 0
 686 623 680 607 670 594 c 1
 635 556 l 1
 597 516 l 1
 588 505 581 488 576 465 c 2
304 108 m 0
 308 95 319 88 335 88 c 0
 353 88 364 99 369 120 c 2
 397 256 l 1
 377 254 356 244 336 225 c 1
 317 203 305 181 301 159 c 0
 299 153 299 146 299 140 c 0
 299 129 301 119 304 108 c 0
247 426 m 0
 264 426 280 432 294 444 c 0
 308 454 317 469 321 488 c 0
 322 493 322 499 322 503 c 0
 322 514 320 523 315 530 c 0
 305 542 291 548 272 548 c 0
 255 548 240 542 226 530 c 0
 211 519 203 505 200 488 c 0
 198 482 198 476 198 471 c 0
 198 460 201 451 207 444 c 0
 217 432 230 426 247 426 c 0
EndSplineSet
EndChar
StartChar: uni0E07
Encoding: 167 3591 136
OldEncoding: 3591
Width: 641
Flags: W
HStem: -22 115<385 403> 491 93<475 495> 493 91<494 502> 706 95<520 541>
VStem: 347 99<609 629> 571 102<661 686>
DStem: 94 493 216 563 260 53 266 431 94 493 266 431 260 53 341 236 502 493 670 653 426 137 555 113
Fore
541 801 m 4
 587 801 622 787 649 760 c 1
 665 738 673 713 673 686 c 0
 673 676 672 665 670 653 c 2
 555 113 l 2
 546 72 526 39 495 14 c 1
 460 -10 423 -22 385 -22 c 0
 320 -22 279 3 260 53 c 2
 94 493 l 1
 216 563 l 1
 266 431 l 1
 341 236 l 1
 380 126 l 1
 386 104 394 93 403 93 c 0
 412 93 420 108 426 137 c 2
 502 493 l 1
 495 493 l 1
 475 491 l 1
 430 491 396 506 369 537 c 1
 355 558 347 582 347 609 c 0
 347 621 348 633 351 645 c 0
 360 688 382 725 415 755 c 0
 452 786 493 801 541 801 c 4
495 584 m 0
 514 584 530 589 543 601 c 0
 556 613 565 627 569 645 c 0
 570 651 571 656 571 661 c 0
 571 673 568 682 562 690 c 1
 556 701 542 706 521 706 c 0
 506 706 490 700 473 687 c 0
 460 677 452 663 448 645 c 0
 447 639 446 634 446 629 c 0
 446 618 449 609 455 601 c 0
 465 589 479 584 495 584 c 0
EndSplineSet
EndChar
StartChar: uni0E08
Encoding: 168 3592 137
OldEncoding: 3592
Width: 755
Flags: W
HStem: -10 97<497 520> 236 95<281 303> 450 95<325 347> 695 110<479 509>
VStem: 154 98<355 378> 631 137<585 609>
DStem: 626 540 761 545 538 129 678 157
Fore
678 157 m 2
 664 88 640 43 608 22 c 0
 578 1 541 -10 497 -10 c 0
 460 -10 432 -1 413 18 c 0
 392 34 380 62 377 101 c 1
 374 201 l 1
 367 260 l 1
 366 258 357 253 341 245 c 0
 328 239 308 236 281 236 c 0
 230 238 195 253 177 282 c 1
 162 303 154 327 154 355 c 0
 154 366 155 378 158 390 c 0
 166 430 188 467 223 499 c 0
 257 530 298 545 347 545 c 0
 429 545 473 510 483 439 c 0
 484 430 l 2
 506 117 l 1
 505 113 505 110 505 107 c 0
 505 94 509 87 515 87 c 0
 524 87 533 102 538 129 c 2
 626 540 l 2
 629 557 631 572 631 585 c 0
 631 618 621 643 600 659 c 0
 572 683 532 695 481 695 c 0
 385 695 295 652 208 566 c 1
 135 628 l 1
 233 746 356 805 509 805 c 0
 598 805 666 782 716 737 c 0
 751 706 768 663 768 609 c 0
 768 590 766 568 761 545 c 2
 678 157 l 2
301 331 m 0
 321 331 337 336 352 346 c 1
 363 358 370 372 374 390 c 0
 375 397 376 404 376 410 c 0
 376 419 374 427 370 434 c 1
 361 445 347 450 327 450 c 0
 308 450 291 444 279 432 c 0
 265 421 257 407 253 390 c 0
 252 386 252 382 252 378 c 0
 252 367 255 357 261 349 c 0
 271 337 284 331 301 331 c 0
EndSplineSet
EndChar
StartChar: uni0E09
Encoding: 169 3593 138
OldEncoding: 3593
Width: 867
Flags: W
HStem: -17 99<676 723> -1 317<196.841 221> 438 95<232 252> 695 110<514 548>
VStem: 60 100<341 363> 283 98<396 423> 672 136<581 605> 784 94<190 208>
DStem: 608 257 741 257 576 109 710 112 667 538 801 540 629 357 762 357
Fore
252 533 m 0
 294 533 328 520 352 494 c 0
 371 475 381 451 381 423 c 0
 381 414 380 404 378 394 c 2
 338 206 l 1
 373 245 418 277 472 301 c 1
 523 327 574 345 629 357 c 1
 667 538 l 2
 671 554 672 569 672 583 c 0
 672 613 664 637 646 656 c 0
 621 682 577 695 514 695 c 0
 474 695 431 682 384 656 c 0
 341 631 300 600 261 564 c 1
 184 626 l 1
 227 675 282 719 348 756 c 1
 411 788 478 805 548 805 c 0
 642 805 713 781 760 734 c 1
 792 700 808 656 808 605 c 0
 808 584 806 563 801 540 c 2
 762 357 l 1
 809 348 842 325 860 288 c 0
 872 262 878 234 878 206 c 0
 878 189 876 171 871 153 c 1
 860 102 835 61 799 31 c 0
 762 -1 720 -17 676 -17 c 0
 642 -17 616 -7 595 12 c 0
 580 27 572 48 572 73 c 0
 572 84 573 96 576 109 c 2
 608 257 l 1
 534 240 467 206 406 156 c 0
 347 107 307 54 289 -1 c 1
 159 -1 l 1
 207 226 l 1
 197 223 l 1
 186 221 l 1
 137 223 104 240 83 270 c 0
 68 290 60 314 60 341 c 0
 60 352 61 364 64 376 c 0
 72 416 94 452 129 484 c 0
 163 517 203 533 252 533 c 0
781 165 m 0
 783 175 784 184 784 193 c 0
 784 206 782 218 777 228 c 0
 770 243 757 253 741 257 c 1
 710 112 l 1
 709 109 709 106 709 103 c 0
 709 89 714 82 723 82 c 1
 731 84 739 89 746 96 c 1
 768 131 l 1
 775 144 779 155 781 165 c 0
208 316 m 0
 227 316 243 322 258 334 c 1
 269 345 278 360 281 378 c 0
 283 384 283 390 283 396 c 0
 283 406 281 415 277 422 c 0
 269 433 254 438 234 438 c 0
 217 438 201 432 186 420 c 0
 173 409 165 395 161 378 c 0
 160 373 160 368 160 363 c 0
 160 353 162 344 168 336 c 0
 177 323 190 316 208 316 c 0
EndSplineSet
EndChar
StartChar: uni0E0A
Encoding: 170 3594 139
OldEncoding: 3594
Width: 799
Flags: W
HStem: -1 120<205 525> 443 97<253 276> 575 97<605 613> 782 20G<383 428.5>
VStem: 124 104<563 586> 352 99<617 641> 658 139<501 536>
DStem: 354 359 486 346 303 119 437 119 652 452 788 464 596 186 721 149
Fore
499 591 m 4
 502 604 504 616 504 628 c 0
 504 647 499 662 487 675 c 5
 475 694 457 705 435 707 c 5
 437 705 441 693 449 670 c 5
 451 660 451 651 451 641 c 0
 451 629 450 617 448 606 c 4
 438 560 417 521 382 489 c 4
 345 458 303 443 253 443 c 4
 209 443 173 458 148 489 c 4
 132 510 124 534 124 563 c 0
 124 576 126 591 129 606 c 4
 137 644 156 678 187 707 c 5
 217 737 251 760 290 776 c 4
 331 794 367 802 399 802 c 4
 458 802 508 790 547 765 c 4
 586 739 609 709 613 672 c 5
 632 672 664 684 710 707 c 5
 757 728 810 776 870 853 c 5
 954 790 l 5
 921 738 884 699 842 672 c 4
 804 648 773 632 751 624 c 5
 761 618 774 605 788 582 c 5
 794 571 797 555 797 536 c 0
 797 516 794 492 788 464 c 6
 721 149 l 6
 712 106 701 74 687 52 c 4
 673 31 654 17 629 10 c 4
 603 3 567 -1 521 -1 c 6
 181 -1 l 5
 206 119 l 5
 303 119 l 5
 354 359 l 6
 359 383 368 404 379 423 c 4
 391 441 406 459 426 478 c 5
 470 527 l 5
 483 543 493 565 499 591 c 4
276 540 m 4
 294 540 310 547 324 559 c 4
 338 570 346 583 350 600 c 4
 351 606 352 612 352 617 c 0
 352 628 349 637 342 644 c 4
 334 655 320 661 302 661 c 4
 284 661 269 655 254 642 c 4
 241 631 233 617 230 600 c 4
 228 595 228 590 228 586 c 0
 228 575 231 567 237 559 c 4
 246 547 259 540 276 540 c 4
605 575 m 5
 596 541 587 518 580 508 c 4
 568 490 556 476 545 467 c 5
 536 455 523 439 510 418 c 4
 501 403 493 379 486 346 c 6
 437 119 l 5
 515 119 l 6
 544 119 563 123 574 131 c 4
 582 139 589 157 596 186 c 6
 652 452 l 6
 656 471 658 487 658 501 c 0
 658 523 653 539 644 549 c 5
 632 566 619 575 605 575 c 5
EndSplineSet
EndChar
StartChar: uni0E0B
Encoding: 171 3595 140
OldEncoding: 3595
Width: 847
Flags: W
HStem: -1 120<252 586> 341 93<219 236> 555 92<260 285>
VStem: 73 112<470 490> 309 100<514 532> 708 138<499 534>
DStem: 404 372 533 346 350 119 484 119 702 452 838 464 646 186 771 149
Fore
541 809 m 5
 571 807 600 791 631 763 c 4
 658 736 672 708 672 678 c 0
 672 672 l 5
 694 675 725 689 766 712 c 5
 808 733 858 780 918 853 c 5
 1004 790 l 5
 970 736 933 697 894 672 c 4
 856 648 825 632 803 624 c 5
 814 619 826 605 838 582 c 5
 843 569 846 553 846 534 c 0
 846 514 843 490 838 464 c 6
 771 149 l 6
 757 87 738 46 713 27 c 4
 686 8 638 -1 571 -1 c 6
 228 -1 l 5
 253 119 l 5
 350 119 l 5
 404 372 l 6
 409 396 418 417 429 434 c 5
 443 451 458 467 477 483 c 5
 524 531 l 5
 536 545 545 565 553 591 c 5
 557 613 560 632 560 645 c 0
 560 651 559 657 558 661 c 4
 555 675 545 688 528 702 c 5
 528 703 l 5
 524 705 l 5
 409 654 l 5
 310 705 l 5
 283 701 262 690 246 672 c 4
 229 654 218 640 214 631 c 5
 219 634 225 637 234 640 c 4
 244 644 262 647 285 647 c 4
 314 647 339 640 361 626 c 4
 381 614 394 597 401 575 c 4
 406 561 409 546 409 532 c 0
 409 522 408 511 405 501 c 4
 398 458 377 420 340 388 c 4
 306 357 266 341 219 341 c 4
 159 341 119 360 95 399 c 5
 80 425 73 455 73 488 c 0
 73 506 76 525 80 545 c 5
 97 608 l 5
 115 649 139 685 169 714 c 4
 204 746 237 770 270 785 c 4
 304 801 331 809 352 809 c 5
 432 760 l 5
 500 790 l 5
 541 809 l 5
653 575 m 5
 646 549 636 529 627 515 c 4
 615 496 603 482 592 471 c 5
 558 420 l 5
 549 403 539 378 533 346 c 6
 484 119 l 5
 563 119 l 6
 591 119 611 123 621 131 c 4
 632 141 640 159 646 186 c 6
 702 452 l 6
 706 470 708 486 708 499 c 0
 708 522 702 539 692 549 c 5
 679 566 667 575 653 575 c 5
234 434 m 4
 253 434 271 440 285 452 c 5
 297 465 304 479 307 494 c 4
 309 501 309 508 309 514 c 0
 309 523 307 531 303 538 c 5
 294 549 280 555 260 555 c 4
 244 555 227 548 212 536 c 4
 200 525 191 511 187 494 c 4
 186 489 185 485 185 480 c 0
 185 469 189 460 194 452 c 4
 204 440 217 434 234 434 c 4
EndSplineSet
EndChar
StartChar: uni0E0C
Encoding: 172 3596 141
OldEncoding: 3596
Width: 1044
Flags: W
HStem: -14 80<510 527> -14 85<214 235> -1 21G<800 934> 196 86<262 277> 710 95<486 539> 766 20G<967 1101>
VStem: 94 87<98 123> 313 85<150 167> 415 77<88 112> 629 130<609 629>
DStem: 626 592 754 571 562 293 694 286 967 786 1101 786 839 185 934 -1
Fore
653 92 m 2
 646 61 631 36 607 15 c 0
 582 -4 550 -14 510 -14 c 0
 470 -14 443 0 429 28 c 0
 420 45 415 65 415 88 c 0
 415 103 417 119 421 136 c 0
 429 173 445 207 469 238 c 0
 491 264 522 283 562 293 c 1
 626 592 l 2
 628 600 629 608 629 616 c 0
 629 641 619 662 600 677 c 0
 574 697 536 708 486 710 c 0
 462 710 431 705 391 693 c 0
 348 681 316 665 297 645 c 1
 317 641 339 635 362 627 c 0
 393 617 419 602 441 583 c 1
 427 518 l 1
 401 518 374 510 347 494 c 0
 320 479 301 445 289 390 c 2
 266 280 l 1
 270 282 l 1
 277 282 l 2
 309 282 334 275 353 260 c 0
 373 245 386 227 392 205 c 0
 396 194 398 181 398 167 c 0
 398 157 397 146 394 134 c 0
 389 108 378 83 361 62 c 0
 345 39 324 21 299 6 c 0
 274 -7 245 -14 214 -14 c 0
 166 -14 133 1 115 30 c 1
 101 49 94 72 94 98 c 0
 94 110 95 123 98 136 c 2
 150 381 l 2
 160 427 173 462 188 485 c 0
 205 512 230 534 260 552 c 1
 248 559 231 565 208 571 c 0
 178 580 151 586 124 587 c 1
 133 631 l 1
 156 658 203 694 273 740 c 0
 341 783 430 805 539 805 c 4
 593 805 634 797 664 781 c 0
 697 764 720 745 732 724 c 0
 747 698 756 673 758 647 c 0
 759 637 759 627 759 618 c 0
 759 602 758 586 754 571 c 2
 694 286 l 1
 722 280 745 268 765 251 c 0
 794 231 811 218 817 212 c 0
 829 201 836 192 839 185 c 1
 967 786 l 1
 1101 786 l 1
 934 -1 l 1
 800 -1 l 1
 794 25 783 59 764 101 c 1
 742 145 711 172 672 182 c 1
 653 92 l 2
235 71 m 0
 245 71 258 74 272 81 c 1
 283 88 291 96 297 103 c 0
 303 112 308 123 310 134 c 0
 312 140 313 146 313 152 c 0
 313 164 310 173 304 180 c 0
 296 191 282 196 262 196 c 0
 243 196 225 190 211 178 c 0
 195 164 186 149 182 134 c 0
 182 130 181 127 181 123 c 0
 181 112 185 102 193 92 c 0
 202 78 216 71 235 71 c 0
537 79 m 1
 564 205 l 1
 543 203 527 195 517 182 c 0
 507 170 499 151 494 127 c 0
 493 122 492 117 492 112 c 0
 492 102 495 93 499 85 c 1
 504 73 511 66 521 66 c 0
 527 66 533 70 537 79 c 1
EndSplineSet
EndChar
StartChar: uni0E0D
Encoding: 173 3597 142
OldEncoding: 3597
Width: 1044
Flags: W
HStem: -121 85<516 536> -15 85<214 235> -1 120<447 788> 195 86<261 275> 709 95<486 539> 765 20G<967 1101>
VStem: 93 88<97 122> 312 86<149 166> 571 83<-167 -146> 628 131<608 630>
DStem: 626 591 754 570 525 119 658 119 967 785 1101 785 840 186 966 149
Fore
1101 785 m 5
 966 149 l 6
 957 108 944 76 927 52 c 4
 911 31 889 17 860 10 c 4
 830 2 792 -1 745 -1 c 6
 423 -1 l 5
 448 119 l 5
 525 119 l 5
 626 591 l 6
 627 600 628 608 628 616 c 0
 628 641 619 661 600 677 c 4
 574 696 536 707 486 709 c 4
 462 709 431 704 391 692 c 4
 348 680 316 664 297 644 c 5
 317 640 339 634 362 626 c 4
 393 616 419 601 441 582 c 5
 427 517 l 5
 401 517 374 509 347 494 c 4
 320 478 300 444 289 390 c 6
 265 279 l 5
 270 281 l 5
 277 281 l 6
 309 281 334 274 353 260 c 4
 373 245 386 226 391 204 c 4
 396 193 398 180 398 166 c 0
 398 156 397 145 394 133 c 4
 389 107 378 83 361 61 c 4
 345 38 324 20 299 5 c 4
 273 -8 245 -15 214 -15 c 4
 166 -15 133 0 115 29 c 5
 101 48 93 71 93 97 c 0
 93 109 95 122 98 135 c 6
 150 381 l 6
 160 427 173 461 188 485 c 4
 205 511 229 533 260 551 c 5
 248 558 231 564 208 570 c 4
 179 579 150 585 124 586 c 5
 133 630 l 5
 156 657 203 694 273 739 c 4
 341 782 430 804 539 804 c 4
 593 804 634 796 664 781 c 4
 697 763 720 744 732 723 c 4
 747 697 756 672 757 646 c 4
 759 636 759 626 759 617 c 0
 759 601 757 585 754 570 c 6
 658 119 l 5
 770 119 l 6
 794 119 811 123 822 131 c 5
 827 138 833 156 840 186 c 6
 967 785 l 5
 1101 785 l 5
609 -268 m 1
 636 -268 668 -254 706 -226 c 1
 741 -197 769 -136 788 -45 c 1
 920 -45 l 1
 902 -130 874 -198 833 -249 c 0
 791 -300 747 -335 699 -353 c 1
 654 -373 606 -383 554 -383 c 0
 511 -383 478 -378 453 -367 c 0
 405 -349 374 -325 360 -295 c 0
 351 -275 346 -254 346 -232 c 0
 346 -216 349 -200 353 -184 c 0
 361 -145 382 -111 417 -80 c 1
 448 -51 488 -36 536 -36 c 0
 585 -36 619 -51 638 -80 c 0
 649 -100 654 -122 654 -146 c 0
 654 -159 652 -173 649 -187 c 0
 642 -221 629 -248 609 -268 c 1
491 -247 m 0
 510 -247 528 -241 543 -229 c 0
 557 -217 565 -203 569 -184 c 0
 570 -178 571 -173 571 -167 c 0
 571 -157 568 -147 562 -140 c 0
 551 -128 536 -121 518 -121 c 0
 500 -121 483 -128 468 -140 c 0
 454 -151 445 -166 441 -184 c 0
 440 -188 440 -192 440 -196 c 0
 440 -208 444 -219 451 -229 c 0
 461 -241 474 -247 491 -247 c 0
235 70 m 4
 245 70 258 73 272 80 c 5
 283 88 291 95 297 103 c 4
 303 112 308 122 310 133 c 4
 312 139 312 145 312 151 c 0
 312 163 309 172 304 179 c 4
 295 190 281 195 261 195 c 4
 242 195 225 189 211 177 c 4
 195 163 185 148 182 133 c 4
 181 129 181 126 181 122 c 0
 181 111 185 101 192 91 c 4
 201 77 216 70 235 70 c 4
EndSplineSet
EndChar
StartChar: uni0E0E
Encoding: 174 3598 143
OldEncoding: 3598
Width: 880
Flags: W
HStem: -378 114<171 195> -149 113<241 263> 205 88<183 203> 703 102<591 626>
VStem: 11 91<101 125> 30 112<-248 -213> 754 138<576 603>
DStem: 750 534 886 545 595 -195 690 -378
Fore
486 -109 m 5
 528 -136 551 -152 554 -155 c 6
 595 -195 l 5
 750 534 l 6
 753 549 754 563 754 576 c 0
 754 611 743 639 721 662 c 4
 690 689 648 703 593 703 c 4
 561 703 527 698 490 686 c 4
 454 677 420 663 385 642 c 5
 450 627 l 6
 475 621 501 606 528 582 c 5
 514 518 l 5
 490 518 464 510 438 494 c 4
 408 478 387 444 376 390 c 6
 323 141 l 6
 313 95 292 58 260 30 c 5
 230 1 190 -14 138 -16 c 5
 86 -14 51 1 34 30 c 5
 19 51 11 74 11 101 c 0
 11 112 12 124 15 136 c 4
 24 181 46 218 81 247 c 5
 112 278 152 293 203 293 c 6
 214 293 l 5
 219 291 l 5
 238 381 l 6
 247 425 261 460 279 485 c 4
 297 512 320 535 348 552 c 5
 338 558 321 564 297 571 c 4
 265 580 236 585 210 587 c 5
 219 631 l 5
 257 666 l 6
 274 682 301 701 337 724 c 4
 375 747 417 766 462 781 c 4
 507 797 563 805 626 805 c 4
 688 805 741 795 783 775 c 5
 827 756 858 727 874 686 c 5
 886 662 892 634 892 603 c 0
 892 585 890 565 886 545 c 6
 690 -378 l 5
 556 -378 l 5
 533 -333 509 -299 484 -276 c 4
 457 -249 437 -232 425 -223 c 5
 397 -266 362 -302 317 -332 c 4
 269 -363 220 -378 171 -378 c 0
 162 -378 l 4
 119 -378 84 -361 57 -327 c 5
 39 -306 30 -280 30 -248 c 0
 30 -235 32 -221 35 -206 c 4
 48 -154 75 -114 116 -84 c 4
 158 -54 206 -38 263 -36 c 4
 297 -36 339 -44 386 -61 c 5
 405 -23 l 5
 432 43 l 5
 540 17 l 5
 514 -54 l 5
 486 -109 l 5
156 71 m 4
 176 71 194 78 209 92 c 4
 224 106 233 122 236 138 c 4
 238 145 239 152 239 158 c 0
 239 169 236 179 232 187 c 4
 221 199 207 205 185 205 c 4
 164 205 146 199 132 187 c 4
 117 173 107 156 103 138 c 4
 102 134 102 129 102 125 c 0
 102 113 105 102 112 92 c 4
 121 78 135 71 156 71 c 4
239 -255 m 5
 265 -244 286 -230 301 -211 c 4
 317 -193 328 -180 332 -170 c 5
 305 -156 275 -149 241 -149 c 4
 215 -149 192 -155 175 -167 c 4
 157 -179 146 -194 142 -213 c 5
 142 -235 l 5
 144 -254 162 -264 195 -264 c 4
 215 -264 230 -261 239 -255 c 5
EndSplineSet
EndChar
StartChar: uni0E0F
Encoding: 175 3599 144
OldEncoding: 3599
Width: 880
Flags: W
HStem: -380 99<126 152> -179 97<180 205> 205 88<173 203> 703 102<591 626>
VStem: 11 83<101 125> 15 99<-260 -241> 754 138<576 603>
DStem: 750 534 886 545 594 -199 690 -378
Fore
530 -118 m 5
 594 -199 l 5
 750 534 l 6
 753 549 754 563 754 576 c 0
 754 611 743 640 721 662 c 4
 691 690 648 703 593 703 c 4
 561 703 527 698 490 687 c 4
 454 677 420 663 385 642 c 5
 450 627 l 6
 475 621 501 606 528 583 c 5
 514 518 l 5
 490 518 464 510 438 494 c 4
 408 479 388 444 377 390 c 6
 324 141 l 6
 314 95 292 58 260 30 c 5
 230 1 190 -14 138 -16 c 5
 86 -14 51 1 34 30 c 5
 19 51 11 74 11 101 c 0
 11 112 12 124 15 136 c 4
 24 181 46 218 81 247 c 5
 112 278 152 293 203 293 c 6
 214 293 l 5
 219 291 l 5
 238 381 l 6
 247 425 261 460 279 485 c 4
 297 513 320 535 348 552 c 5
 338 558 321 564 297 571 c 4
 265 580 237 586 210 587 c 5
 219 631 l 5
 257 666 l 6
 274 682 301 701 337 724 c 4
 375 747 417 766 462 781 c 4
 507 797 563 805 626 805 c 4
 688 805 741 795 783 775 c 5
 827 757 858 727 874 687 c 5
 886 662 892 634 892 603 c 0
 892 585 890 566 886 545 c 6
 690 -378 l 5
 562 -378 l 5
 492 -264 l 5
 361 -378 l 5
 354 -352 346 -330 336 -312 c 4
 327 -299 319 -286 310 -274 c 5
 294 -297 273 -318 250 -338 c 4
 218 -366 177 -380 126 -380 c 4
 85 -380 55 -365 37 -336 c 4
 22 -315 15 -289 15 -260 c 0
 15 -245 17 -230 21 -213 c 5
 34 -172 58 -139 92 -116 c 4
 128 -93 166 -82 205 -82 c 4
 243 -82 277 -92 307 -114 c 5
 316 -98 327 -77 338 -51 c 4
 356 -10 368 20 374 39 c 5
 470 22 l 5
 433 -73 402 -140 376 -179 c 5
 391 -195 l 5
 406 -221 l 5
 484 -158 l 6
 515 -133 529 -120 530 -118 c 5
156 71 m 5
 179 74 196 82 207 94 c 4
 219 106 227 120 230 138 c 4
 232 145 232 151 232 156 c 0
 232 168 230 178 225 187 c 4
 215 199 198 205 173 205 c 5
 153 203 136 196 122 185 c 4
 109 173 100 158 96 141 c 4
 95 135 94 130 94 125 c 0
 94 112 99 101 108 92 c 5
 117 78 132 71 156 71 c 5
184 -274 m 4
 198 -268 213 -256 227 -237 c 5
 244 -211 l 5
 244 -211 l 5
 222 -190 200 -179 180 -179 c 4
 153 -179 132 -191 117 -215 c 5
 115 -225 114 -234 114 -241 c 0
 114 -268 127 -281 152 -281 c 4
 163 -281 174 -278 184 -274 c 4
EndSplineSet
EndChar
StartChar: uni0E10
Encoding: 176 3600 145
OldEncoding: 3600
Width: 665
Flags: W
HStem: -443 81<-36 -15> -277 79<3 22> -114 80<397 416> 0 21G<407 553> 188 93<244 265> 403 97<290 310> 644 107<681 704> 705 99<432 454>
VStem: -138 83<-343 -330> 118 98<308 331> 252 86<-197 -180> 443 81<-156 -131> 511 137<454 492>
Fore
407 0 m 5
 407 15 l 0
 407 50 401 95 391 149 c 5
 380 209 374 239 371 239 c 5
 362 230 348 219 329 207 c 5
 306 195 278 188 244 188 c 4
 194 188 159 204 141 235 c 5
 126 256 118 280 118 308 c 0
 118 319 119 331 122 343 c 4
 131 387 153 423 187 452 c 4
 220 482 262 498 310 500 c 4
 354 500 389 492 411 476 c 4
 432 459 445 429 451 385 c 5
 468 316 l 5
 478 272 l 5
 501 381 l 6
 507 411 511 435 511 454 c 0
 511 471 508 483 502 491 c 4
 492 507 462 522 413 535 c 4
 338 556 287 568 259 573 c 6
 140 591 l 5
 150 642 l 5
 198 692 247 732 297 763 c 4
 346 790 398 804 454 804 c 4
 505 804 553 796 598 778 c 5
 656 760 691 751 704 751 c 4
 730 751 760 758 796 772 c 5
 797 732 l 5
 798 721 798 709 798 698 c 0
 798 687 798 676 796 665 c 5
 748 651 710 644 681 644 c 5
 627 648 l 5
 558 674 l 5
 486 697 l 6
 472 702 456 705 435 705 c 4
 415 705 394 700 372 690 c 4
 348 680 333 672 329 665 c 5
 420 652 l 5
 462 644 492 636 510 630 c 4
 583 610 626 582 640 547 c 4
 646 533 648 514 648 492 c 0
 648 463 644 427 635 385 c 6
 553 0 l 5
 407 0 l 5
264 281 m 5
 284 281 299 287 312 299 c 4
 325 310 333 324 337 343 c 4
 338 349 339 354 339 359 c 0
 339 370 336 378 330 385 c 4
 322 397 310 403 290 403 c 4
 270 403 254 397 242 385 c 4
 229 375 221 361 217 343 c 4
 216 339 216 335 216 331 c 0
 216 321 218 311 224 301 c 5
 233 290 246 283 264 281 c 5
328 -348 m 1
 370 -323 l 1
 376 -295 l 1
 360 -297 l 1
 318 -297 289 -284 271 -257 c 1
 259 -240 252 -220 252 -197 c 0
 252 -187 254 -176 256 -165 c 0
 264 -128 283 -97 313 -72 c 0
 342 -46 376 -34 416 -34 c 0
 455 -34 483 -46 503 -70 c 0
 517 -87 524 -107 524 -131 c 0
 524 -140 523 -149 521 -158 c 2
 492 -297 l 2
 487 -320 476 -339 459 -352 c 1
 443 -369 423 -383 399 -394 c 2
 313 -438 l 1
 234 -387 l 1
 145 -436 l 1
 96 -374 l 1
 66 -420 21 -443 -36 -443 c 0
 -38 -443 -41 -443 -43 -443 c 0
 -74 -443 -100 -430 -121 -403 c 1
 -132 -385 -138 -365 -138 -343 c 0
 -138 -333 -136 -322 -134 -311 c 0
 -127 -278 -107 -251 -75 -230 c 0
 -44 -208 -12 -198 22 -198 c 0
 54 -198 82 -208 103 -230 c 1
 128 -170 l 1
 138 -140 148 -105 156 -65 c 1
 244 -65 l 1
 234 -114 222 -155 208 -191 c 0
 194 -232 175 -268 154 -297 c 1
 183 -334 l 1
 220 -316 l 2
 241 -304 253 -297 253 -295 c 1
 328 -348 l 1
3 -277 m 0
 -14 -277 -26 -281 -35 -290 c 0
 -45 -300 -51 -311 -54 -323 c 0
 -54 -327 -55 -330 -55 -334 c 0
 -55 -353 -41 -362 -15 -362 c 0
 1 -362 17 -355 32 -341 c 0
 43 -328 52 -317 57 -308 c 1
 53 -302 47 -295 40 -288 c 0
 29 -280 16 -277 3 -277 c 0
379 -219 m 0
 394 -219 408 -213 419 -202 c 1
 431 -193 439 -181 442 -167 c 0
 442 -163 443 -159 443 -156 c 0
 443 -147 440 -138 434 -131 c 0
 428 -120 417 -114 402 -114 c 0
 383 -114 368 -120 360 -131 c 1
 349 -142 342 -154 340 -167 c 0
 339 -172 338 -176 338 -180 c 0
 338 -188 340 -196 345 -202 c 1
 350 -213 361 -219 379 -219 c 0
EndSplineSet
EndChar
StartChar: uni0E11
Encoding: 177 3601 146
OldEncoding: 3601
Width: 1027
Flags: W
HStem: -2 21G<321 447 783 917> 341 93<210 229> 554 92<251 275> 683 106<897 921>
VStem: 66 112<476 487> 302 97<513 536> 557 110<658 674> 919 136<663 687>
DStem: 424 484 557 478 321 -2 524 323 730 656 857 652 524 323 447 -2 909 593 1045 603 783 -2 917 -2
Fore
557 478 m 2
 524 323 l 1
 730 656 l 1
 763 707 791 741 811 760 c 0
 833 780 869 789 921 789 c 4
 994 789 1035 773 1048 741 c 0
 1053 726 1055 708 1055 687 c 0
 1055 663 1052 635 1045 603 c 2
 917 -2 l 1
 783 -2 l 1
 909 593 l 2
 916 626 919 650 919 665 c 0
 919 674 913 680 901 683 c 1
 889 683 879 679 870 672 c 1
 857 652 l 1
 447 -2 l 1
 321 -2 l 1
 424 484 l 2
 438 550 470 595 524 621 c 1
 543 632 555 643 557 654 c 0
 557 655 557 657 557 658 c 0
 557 672 544 688 517 705 c 1
 400 654 l 1
 301 705 l 1
 277 700 255 689 236 672 c 1
 220 654 209 640 205 630 c 1
 210 634 216 637 225 639 c 0
 237 644 253 646 275 646 c 0
 305 646 331 639 352 626 c 0
 373 614 386 597 394 575 c 0
 397 564 399 551 399 536 c 0
 399 525 398 513 396 500 c 1
 387 455 365 417 330 387 c 0
 297 356 256 341 210 341 c 0
 150 341 109 359 87 396 c 0
 73 421 66 450 66 483 c 0
 66 501 68 521 72 542 c 0
 77 566 83 588 90 607 c 0
 108 648 131 684 162 716 c 1
 195 747 229 770 263 785 c 0
 294 801 322 809 345 809 c 1
 423 760 l 1
 532 809 l 1
 570 802 604 783 633 753 c 0
 656 729 667 703 667 674 c 0
 667 666 666 657 664 648 c 0
 660 631 655 617 648 605 c 1
 612 570 l 2
 602 560 590 547 577 531 c 0
 569 521 562 503 557 478 c 2
227 434 m 0
 246 434 263 439 278 452 c 1
 290 464 297 478 300 493 c 0
 301 500 302 507 302 513 c 0
 302 522 300 530 296 537 c 1
 287 549 273 554 253 554 c 0
 237 554 220 548 205 535 c 0
 193 525 184 511 180 493 c 0
 179 489 178 484 178 480 c 0
 178 470 182 460 187 452 c 0
 196 439 210 434 227 434 c 0
EndSplineSet
EndChar
StartChar: uni0E12
Encoding: 178 3602 147
OldEncoding: 3602
Width: 1082
Flags: W
HStem: -14 80<549 563> 0 21G<112 230 834 969> 514 95<437 458> 766 20G<1003 1136>
VStem: 83 119<414 452> 264 99<416 436> 451 79<90 110> 487 97<469 487> 662 132<607 627>
DStem: 654 552 785 534 599 293 732 287 1003 786 1136 786 875 185 969 0
Fore
240 163 m 1
 300 233 l 1
 360 300 l 1
 328 302 303 319 283 349 c 0
 271 368 264 391 264 416 c 0
 264 429 266 442 269 455 c 0
 278 499 301 535 336 565 c 0
 371 594 412 609 458 609 c 0
 506 609 540 595 561 567 c 0
 576 542 584 515 584 487 c 0
 584 476 583 465 580 453 c 0
 572 403 548 358 509 317 c 1
 230 0 l 1
 112 0 l 1
 126 64 133 117 133 160 c 0
 133 168 132 176 132 183 c 1
 112 254 l 2
 99 294 91 337 84 384 c 1
 83 394 83 404 83 414 c 0
 83 447 86 481 94 516 c 0
 110 580 150 639 213 693 c 1
 274 748 335 784 395 801 c 1
 509 748 l 1
 648 803 l 1
 718 764 762 726 778 689 c 1
 789 669 794 645 794 615 c 0
 794 591 791 564 785 534 c 2
 732 287 l 1
 767 278 798 262 824 238 c 1
 875 185 l 1
 1003 786 l 1
 1136 786 l 1
 969 0 l 1
 834 0 l 1
 829 28 817 62 799 101 c 0
 781 144 750 171 710 183 c 1
 691 92 l 2
 685 64 669 38 643 15 c 0
 618 -4 587 -14 549 -14 c 0
 509 -14 482 0 467 28 c 0
 456 47 451 67 451 90 c 0
 451 105 453 120 457 136 c 0
 465 172 482 206 508 238 c 0
 529 264 560 283 599 293 c 1
 654 552 l 2
 659 576 662 596 662 612 c 0
 662 626 660 638 657 647 c 0
 650 666 636 681 617 693 c 1
 488 647 l 1
 372 693 l 1
 279 650 224 589 208 511 c 0
 204 493 202 474 202 452 c 0
 202 407 211 355 228 296 c 0
 236 268 240 239 242 210 c 1
 240 163 l 1
573 79 m 1
 600 205 l 1
 565 201 542 175 532 127 c 0
 531 121 530 116 530 110 c 0
 530 102 532 93 535 85 c 1
 543 73 550 66 557 66 c 0
 563 66 569 70 573 79 c 1
412 391 m 0
 432 391 447 397 460 409 c 0
 473 420 481 435 485 453 c 0
 487 459 487 465 487 470 c 0
 487 481 484 490 479 497 c 1
 473 508 459 514 438 514 c 0
 420 514 404 507 390 495 c 0
 377 484 369 470 365 453 c 0
 364 447 363 442 363 436 c 0
 363 426 366 416 372 409 c 0
 381 397 395 391 412 391 c 0
EndSplineSet
MinimumDistance: x42,28 
EndChar
StartChar: uni0E13
Encoding: 179 3603 148
OldEncoding: 3603
Width: 1073
Flags: W
HStem: -36 20G<897.5 937.5> -14 85<206 226> 0 21G<491 620> 196 86<253 267> 710 95<477 530> 766 20G<959 1093>
VStem: 86 87<98 123> 304 85<151 168> 620 130<607 631> 811 137<71 98> 1022 95<188 213>
DStem: 617 592 745 571 491 0 676 245 847 258 981 258 815 110 950 113 959 786 1093 786 868 358 1002 358
Fore
491 0 m 1
 617 592 l 2
 619 601 620 609 620 617 c 0
 620 642 610 662 591 678 c 0
 566 697 527 708 477 710 c 0
 453 710 422 705 383 693 c 0
 339 681 307 665 288 645 c 1
 308 641 330 635 353 627 c 0
 384 617 410 602 432 583 c 1
 418 518 l 1
 392 518 366 510 338 495 c 0
 311 479 292 445 280 391 c 2
 257 280 l 1
 262 282 l 1
 269 282 l 2
 300 282 325 275 344 261 c 0
 364 246 377 227 384 205 c 0
 387 194 389 182 389 168 c 0
 389 157 388 146 385 134 c 0
 380 108 369 84 353 62 c 0
 336 39 315 21 290 6 c 0
 265 -7 237 -14 206 -14 c 0
 157 -14 124 1 106 30 c 1
 93 49 86 72 86 98 c 0
 86 110 87 123 90 136 c 2
 142 382 l 2
 152 427 164 462 179 485 c 0
 197 512 221 534 251 552 c 1
 239 559 222 565 200 571 c 0
 169 580 142 586 116 587 c 1
 125 631 l 1
 147 658 194 695 264 740 c 0
 332 783 421 805 530 805 c 0
 584 805 625 797 655 782 c 0
 689 764 711 745 723 724 c 0
 738 698 747 673 749 647 c 0
 750 637 750 627 750 618 c 0
 750 602 749 586 745 571 c 2
 676 245 l 1
 704 271 736 295 773 317 c 0
 813 340 845 354 868 358 c 1
 959 786 l 1
 1093 786 l 1
 1002 358 l 1
 1047 349 1080 326 1100 289 c 0
 1111 267 1117 242 1117 213 c 0
 1117 195 1114 175 1110 154 c 0
 1099 104 1074 63 1037 32 c 0
 1000 0 960 -16 915 -16 c 0
 880 -16 852 -6 832 13 c 0
 818 27 811 46 811 71 c 0
 811 83 812 96 815 110 c 2
 847 258 l 1
 797 240 752 206 712 157 c 0
 668 104 637 52 620 0 c 1
 491 0 l 1
226 71 m 0
 236 71 249 74 263 81 c 1
 275 88 282 96 288 104 c 0
 295 113 299 123 301 134 c 0
 303 141 304 147 304 153 c 0
 304 164 301 173 295 180 c 0
 288 191 273 196 253 196 c 0
 234 196 217 190 203 178 c 0
 187 164 178 149 174 134 c 0
 174 130 173 127 173 123 c 0
 173 112 177 102 185 92 c 0
 194 78 207 71 226 71 c 0
1019 166 m 0
 1021 174 1022 181 1022 188 c 0
 1022 202 1019 215 1013 227 c 0
 1005 243 994 254 981 258 c 1
 950 113 l 2
 949 107 948 102 948 98 c 0
 948 88 952 83 960 83 c 0
 973 85 985 94 996 110 c 0
 1007 129 1015 148 1019 166 c 0
EndSplineSet
EndChar
StartChar: uni0E14
Encoding: 180 3604 149
OldEncoding: 3604
Width: 799
Flags: W
HStem: -1 21G<129 247 554 688> 511 95<454 475> 688 116<493 528>
VStem: 105 116<383 453> 150 107<159 209> 281 99<413 435> 504 96<465 484> 673 135<574 592>
DStem: 670 544 801 533 554 -1 688 -1
Fore
522 804 m 0
 636 802 716 775 759 723 c 0
 792 684 808 640 808 590 c 0
 808 572 805 553 801 533 c 2
 688 -1 l 1
 554 -1 l 1
 670 544 l 2
 672 555 673 566 673 576 c 0
 673 608 661 634 635 654 c 1
 600 677 555 688 501 688 c 0
 440 688 382 671 326 637 c 0
 271 603 237 557 225 498 c 0
 222 485 221 470 221 453 c 0
 221 412 229 359 245 295 c 0
 253 267 257 238 258 209 c 1
 257 163 l 1
 316 230 l 2
 316 230 l 0
 316 230 l 0
 316 231 336 253 376 297 c 1
 345 299 319 315 300 346 c 0
 287 365 281 388 281 413 c 0
 281 425 282 438 285 452 c 0
 294 495 317 532 352 561 c 0
 388 591 429 606 475 606 c 0
 523 606 557 592 577 564 c 0
 592 539 600 512 600 484 c 0
 600 473 599 462 597 450 c 0
 588 400 564 355 526 314 c 1
 247 -1 l 1
 129 -1 l 1
 142 63 150 116 150 159 c 0
 150 167 149 175 149 182 c 1
 129 253 l 1
 119 292 111 335 105 383 c 1
 105 396 104 409 104 421 c 0
 104 456 107 487 113 515 c 0
 126 563 151 608 191 652 c 0
 230 697 278 734 335 763 c 0
 393 790 455 804 522 804 c 0
429 390 m 0
 449 390 464 396 477 408 c 0
 490 419 498 433 502 450 c 0
 503 456 504 461 504 467 c 0
 504 477 501 487 495 494 c 1
 489 505 476 511 455 511 c 0
 438 511 422 504 406 491 c 0
 393 481 385 467 382 450 c 0
 381 445 380 440 380 435 c 0
 380 425 383 416 389 408 c 0
 398 396 412 390 429 390 c 0
EndSplineSet
EndChar
StartChar: uni0E15
Encoding: 181 3605 150
OldEncoding: 3605
Width: 799
Flags: W
HStem: -1 21G<129 247 554 688> 513 95<454 475>
VStem: 101 118<383 453> 150 107<158 209> 281 99<415 437> 504 97<468 486> 679 132<606 624>
DStem: 671 551 801 533 554 -1 688 -1
Fore
688 -1 m 1
 554 -1 l 1
 671 551 l 2
 676 575 679 595 679 612 c 0
 679 626 677 637 673 646 c 0
 666 665 653 681 634 693 c 1
 505 646 l 1
 389 693 l 1
 297 649 241 588 225 511 c 0
 221 493 219 474 219 453 c 0
 219 407 228 355 245 295 c 0
 253 267 257 238 258 209 c 1
 257 163 l 1
 317 233 l 1
 377 299 l 1
 345 302 320 318 300 348 c 0
 287 367 281 390 281 415 c 0
 281 428 283 441 286 454 c 0
 295 498 318 534 353 564 c 0
 389 593 429 608 475 608 c 0
 523 608 557 594 577 566 c 0
 593 541 601 514 601 486 c 0
 601 475 600 464 597 452 c 0
 588 402 565 357 526 316 c 1
 247 -1 l 1
 129 -1 l 1
 142 63 150 116 150 158 c 0
 150 167 149 175 149 182 c 1
 129 253 l 2
 117 293 107 336 101 383 c 1
 101 394 100 406 100 417 c 0
 100 449 103 481 110 515 c 0
 127 579 167 638 230 693 c 1
 291 748 351 783 412 800 c 1
 527 747 l 1
 664 802 l 5
 735 763 779 725 795 688 c 1
 806 668 811 644 811 614 c 0
 811 590 808 563 801 533 c 2
 688 -1 l 1
429 390 m 0
 449 390 464 396 477 408 c 0
 490 419 498 434 502 452 c 0
 503 458 504 464 504 469 c 0
 504 480 501 489 495 496 c 1
 490 507 476 513 455 513 c 0
 437 513 421 507 407 494 c 0
 395 483 386 469 382 452 c 0
 381 447 380 441 380 437 c 0
 380 425 383 416 389 408 c 0
 398 396 412 390 429 390 c 0
EndSplineSet
EndChar
StartChar: uni0E16
Encoding: 182 3606 151
OldEncoding: 3606
Width: 807
Flags: W
HStem: -14 88<236 266> -1 21G<563 696> 207 88<283 299.031> 703 102<518 553>
VStem: 110 97<104 127> 343 87<156 175> 682 137<579 609>
DStem: 677 534 812 545 563 -1 696 -1
Fore
284 295 m 1
 302 295 l 2
 351 295 387 280 407 249 c 0
 422 227 430 202 430 175 c 0
 430 164 428 153 426 141 c 0
 417 97 395 61 361 32 c 1
 327 1 285 -14 236 -14 c 4
 189 -14 155 1 135 32 c 1
 118 53 110 77 110 104 c 0
 110 116 111 128 114 141 c 2
 165 381 l 2
 175 427 187 462 203 485 c 0
 220 512 244 534 274 552 c 1
 263 559 245 565 223 571 c 0
 193 580 166 586 139 587 c 1
 148 631 l 1
 184 666 l 2
 197 678 223 697 263 724 c 1
 305 748 347 767 391 781 c 0
 435 797 490 805 553 805 c 0
 616 805 668 796 709 777 c 0
 752 756 782 726 802 689 c 0
 814 666 819 639 819 609 c 0
 819 589 817 568 812 545 c 2
 696 -1 l 1
 563 -1 l 1
 677 534 l 2
 680 550 682 565 682 579 c 0
 682 613 671 641 651 662 c 0
 620 689 577 703 520 703 c 0
 454 703 385 683 312 642 c 1
 341 636 l 2
 347 635 365 630 395 620 c 0
 418 611 437 598 455 583 c 1
 441 518 l 1
 416 518 389 510 362 494 c 0
 335 479 316 445 304 390 c 2
 284 295 l 1
266 74 m 1
 284 76 301 83 314 94 c 0
 329 106 338 121 341 138 c 0
 343 144 343 151 343 156 c 0
 343 169 340 179 334 189 c 0
 325 201 307 207 283 207 c 1
 262 205 246 198 235 187 c 0
 221 176 213 161 209 141 c 0
 208 136 207 132 207 127 c 0
 207 115 211 105 217 94 c 0
 225 81 242 74 266 74 c 1
EndSplineSet
EndChar
StartChar: uni0E17
Encoding: 183 3607 152
OldEncoding: 3607
Width: 875
Flags: W
HStem: -1 21G<173 300 635 769> 684 106<748 774> 705 95<295 317>
VStem: 125 97<610 627> 346 101<662 683>
DStem: 278 492 442 640 173 -1 375 323 583 657 710 652 375 323 300 -1 761 593 897 603 635 -1 769 -1
Fore
173 -1 m 1
 278 492 l 1
 226 489 l 1
 188 494 160 512 142 542 c 0
 131 563 125 585 125 610 c 0
 125 621 127 633 129 646 c 0
 138 689 160 726 195 756 c 1
 226 785 267 800 317 800 c 4
 367 800 403 785 426 754 c 0
 440 734 447 710 447 683 c 0
 447 669 445 655 442 640 c 2
 375 323 l 1
 583 657 l 2
 614 707 641 742 663 763 c 1
 686 781 723 790 774 790 c 0
 848 790 891 774 899 741 c 1
 904 726 907 708 907 686 c 0
 907 662 904 635 897 603 c 2
 769 -1 l 1
 635 -1 l 1
 761 593 l 2
 768 626 772 651 773 666 c 0
 772 675 767 681 753 684 c 1
 741 684 732 680 725 672 c 0
 720 668 714 661 710 652 c 1
 300 -1 l 1
 173 -1 l 1
271 582 m 0
 291 582 306 588 319 600 c 0
 332 611 340 626 344 644 c 0
 345 650 346 656 346 662 c 0
 346 672 343 681 337 688 c 1
 332 700 318 705 297 705 c 0
 281 705 265 699 249 686 c 0
 235 675 228 661 224 644 c 0
 223 638 222 633 222 627 c 0
 222 617 225 607 231 600 c 0
 240 588 254 582 271 582 c 0
EndSplineSet
EndChar
StartChar: uni0E18
Encoding: 184 3608 153
OldEncoding: 3608
Width: 690
Flags: W
HStem: 0 119<57 154 287 418> 540 95<202 351> 646 103<689 706> 703 99<416 452>
VStem: 535 136<442 462>
DStem: 233 487 366 487 154 119 287 119 528 385 661 383 486 186 612 149
Fore
273 633 m 1
 294 635 l 1
 351 635 l 2
 489 635 585 610 639 559 c 1
 660 537 671 505 671 462 c 0
 671 439 668 412 661 383 c 2
 612 149 l 2
 598 86 579 45 553 27 c 1
 530 8 482 -1 411 -1 c 1
 338 -0 265 0 192 0 c 0
 139 0 85 -0 32 -1 c 5
 57 119 l 1
 154 119 l 1
 233 487 l 1
 366 487 l 1
 287 119 l 1
 409 119 l 2
 436 119 454 123 465 131 c 1
 473 139 480 158 486 186 c 2
 528 385 l 2
 533 409 535 428 535 444 c 0
 535 450 l 0
 533 465 523 482 505 498 c 1
 494 512 458 522 396 529 c 0
 328 536 263 540 202 540 c 2
 107 538 l 1
 125 619 l 1
 161 667 208 709 265 747 c 0
 322 784 384 802 452 802 c 0
 495 802 545 794 602 776 c 0
 653 758 688 749 704 749 c 0
 732 749 763 757 795 772 c 1
 804 672 l 1
 760 655 721 646 689 646 c 0
 663 646 620 656 562 675 c 0
 499 693 451 703 416 703 c 0
 381 703 351 694 324 677 c 0
 303 663 286 649 273 633 c 1
EndSplineSet
EndChar
StartChar: uni0E19
Encoding: 185 3609 154
OldEncoding: 3609
Width: 859
Flags: W
HStem: -16 99<677 724> 0 21G<159 289> 495 92<244 266> 497 90<255 266> 710 95<289 310> 766 20G<720 853>
VStem: 118 99<616 633> 341 97<667 695> 572 137<74 104> 784 94<191 209>
DStem: 265 497 435 666 159 0 336 201 608 258 741 258 576 110 710 113 720 786 853 786 629 358 762 358
Fore
720 786 m 5
 853 786 l 5
 762 358 l 5
 809 349 842 326 860 289 c 4
 872 263 878 235 878 207 c 0
 878 190 876 172 871 154 c 5
 860 103 835 62 799 32 c 4
 762 0 721 -16 677 -16 c 4
 643 -16 616 -6 595 13 c 4
 580 28 572 49 572 74 c 0
 572 85 574 97 576 110 c 6
 608 258 l 5
 546 241 483 205 418 150 c 4
 353 96 310 46 289 0 c 5
 159 0 l 5
 265 497 l 5
 256 497 l 5
 244 495 l 5
 196 495 163 511 141 543 c 4
 126 564 118 589 118 616 c 0
 118 627 120 638 122 649 c 4
 131 692 153 729 187 759 c 4
 222 790 263 805 310 805 c 4
 353 805 387 793 410 768 c 5
 429 746 438 722 438 695 c 0
 438 686 437 676 435 666 c 6
 336 201 l 5
 375 241 421 275 474 300 c 4
 529 328 581 347 629 358 c 5
 720 786 l 5
266 587 m 4
 286 587 302 594 316 606 c 4
 327 618 335 632 339 649 c 4
 340 655 341 661 341 667 c 0
 341 677 339 686 334 693 c 4
 327 705 312 710 292 710 c 4
 274 710 258 704 244 691 c 4
 231 681 223 667 219 649 c 4
 218 643 217 638 217 633 c 0
 217 622 220 613 226 606 c 4
 234 594 248 587 266 587 c 4
781 166 m 4
 783 176 784 185 784 194 c 0
 784 207 782 219 778 229 c 4
 770 244 757 254 741 258 c 5
 710 113 l 5
 710 110 709 107 709 104 c 0
 709 90 714 83 724 83 c 5
 731 85 739 90 747 97 c 5
 768 132 l 5
 775 145 779 156 781 166 c 4
EndSplineSet
EndChar
StartChar: uni0E1A
Encoding: 186 3610 155
OldEncoding: 3610
Width: 831
Flags: W
HStem: 0 120<77 549> 490 93<207 253> 706 95<277 299> 766 20G<751 888>
VStem: 107 96<612 630> 328 101<663 682>
DStem: 259 493 424 641 180 120 314 120 751 786 888 786 624 187 753 152
Fore
180 120 m 5
 259 493 l 5
 252 491 235 490 207 490 c 5
 169 495 142 513 123 543 c 4
 112 565 107 588 107 612 c 0
 107 624 108 635 111 647 c 4
 116 675 128 701 144 724 c 4
 161 749 183 768 209 780 c 4
 236 794 266 801 299 801 c 4
 348 801 384 786 406 755 c 4
 421 734 429 710 429 682 c 0
 429 669 427 655 424 641 c 6
 314 120 l 5
 539 120 l 6
 569 120 590 125 601 134 c 4
 611 142 618 160 624 187 c 6
 751 786 l 5
 888 786 l 5
 753 152 l 6
 741 93 716 53 679 33 c 4
 639 11 584 0 513 0 c 6
 52 0 l 5
 78 120 l 5
 180 120 l 5
253 583 m 4
 269 583 284 589 301 601 c 4
 314 612 322 627 326 645 c 4
 327 651 328 657 328 663 c 0
 328 673 325 682 319 689 c 4
 311 701 297 706 279 706 c 4
 262 706 247 700 231 687 c 4
 218 676 209 662 205 645 c 4
 204 640 203 635 203 630 c 0
 203 619 207 609 213 601 c 4
 222 589 236 583 253 583 c 4
EndSplineSet
EndChar
StartChar: uni0E1B
Encoding: 187 3611 156
OldEncoding: 3611
Width: 831
Flags: W
HStem: -1 120<76 549> 489 93<207 253> 705 95<277 299>
VStem: 107 96<611 631> 328 101<662 681>
DStem: 259 492 424 640 179 119 313 119 817 1094 954 1094 624 187 753 152
Fore
179 119 m 5
 259 492 l 5
 252 490 235 489 207 489 c 5
 169 494 142 512 123 543 c 4
 112 564 107 587 107 611 c 0
 107 623 108 635 111 647 c 4
 116 674 128 700 144 723 c 4
 161 748 183 767 209 779 c 4
 236 793 266 800 299 800 c 4
 348 800 384 785 406 754 c 4
 421 733 429 709 429 681 c 0
 429 668 427 654 424 640 c 6
 313 119 l 5
 538 119 l 6
 568 119 589 124 601 133 c 4
 611 141 618 159 624 187 c 6
 817 1094 l 5
 954 1094 l 5
 753 152 l 6
 741 92 716 52 679 32 c 4
 639 10 584 -1 513 -1 c 6
 52 -1 l 5
 77 119 l 5
 179 119 l 5
253 582 m 4
 269 582 284 588 301 600 c 4
 314 611 322 626 326 644 c 4
 327 650 328 656 328 662 c 0
 328 672 325 681 319 688 c 4
 311 700 297 705 279 705 c 4
 262 705 247 699 231 686 c 4
 218 676 209 662 205 644 c 4
 204 639 203 634 203 629 c 0
 203 618 206 608 213 600 c 4
 222 588 236 582 253 582 c 4
EndSplineSet
EndChar
StartChar: uni0E1C
Encoding: 188 3612 157
OldEncoding: 3612
Width: 814
Flags: W
HStem: -1 21G<61 189 573 705> 705 95<369 391> 765 20G<738 872>
VStem: 420 98<662 686>
DStem: 197 640 300 492 61 -1 252 266 480 458 447 309 252 266 264 145 738 785 872 785 628 266 705 -1
Fore
189 -1 m 1
 61 -1 l 1
 197 640 l 2
 206 684 228 722 263 754 c 0
 299 785 342 800 391 800 c 4
 425 800 453 793 474 779 c 0
 494 764 507 745 513 723 c 0
 516 711 518 699 518 686 c 0
 518 673 516 660 513 646 c 0
 505 607 487 573 456 542 c 0
 426 512 390 494 350 489 c 1
 300 492 l 1
 252 266 l 1
 480 458 l 1
 628 266 l 1
 738 785 l 1
 872 785 l 1
 705 -1 l 1
 573 -1 l 1
 577 21 580 41 580 60 c 0
 580 94 572 122 558 145 c 2
 447 309 l 1
 264 145 l 2
 227 113 203 64 189 -1 c 1
371 705 m 0
 355 705 339 699 323 686 c 0
 309 675 300 661 297 644 c 0
 296 639 295 634 295 629 c 0
 295 618 298 608 305 600 c 0
 314 588 328 582 345 582 c 0
 361 582 377 588 393 600 c 0
 406 611 414 626 418 644 c 0
 419 650 420 656 420 662 c 0
 420 672 417 681 411 688 c 0
 403 700 389 705 371 705 c 0
EndSplineSet
EndChar
StartChar: uni0E1D
Encoding: 189 3613 158
OldEncoding: 3613
Width: 814
Flags: W
HStem: -1 21G<61 189 573 705> 705 95<369 391>
VStem: 420 98<662 686>
DStem: 197 640 300 492 61 -1 252 266 480 458 447 309 252 266 264 145 804 1094 938 1094 628 266 705 -1
Fore
189 -1 m 5
 61 -1 l 5
 197 640 l 6
 206 684 228 722 263 754 c 4
 299 785 342 800 391 800 c 4
 425 800 453 793 474 779 c 4
 494 764 507 745 513 723 c 4
 516 711 518 699 518 686 c 0
 518 673 516 660 514 647 c 4
 505 607 487 573 456 543 c 4
 426 512 390 494 350 489 c 5
 300 492 l 5
 252 266 l 5
 480 458 l 5
 628 266 l 5
 804 1094 l 5
 938 1094 l 5
 705 -1 l 5
 573 -1 l 5
 577 21 580 41 580 60 c 0
 580 94 572 122 558 145 c 6
 447 309 l 5
 264 145 l 6
 227 113 203 65 189 -1 c 5
371 705 m 4
 355 705 339 699 323 686 c 4
 310 676 301 662 297 644 c 4
 296 639 295 634 295 629 c 0
 295 618 298 608 305 600 c 4
 314 588 328 582 345 582 c 4
 361 582 377 588 393 600 c 4
 406 611 414 626 418 644 c 4
 419 650 420 656 420 662 c 0
 420 672 417 681 411 688 c 4
 403 700 389 705 371 705 c 4
EndSplineSet
EndChar
StartChar: uni0E1E
Encoding: 190 3614 159
OldEncoding: 3614
Width: 932
Flags: W
HStem: -1 21G<141 273 687 821> 490 93<197 243> 706 95<267 289> 766 20G<854 988>
VStem: 97 96<611 630> 317 101<662 683>
DStem: 246 493 413 641 141 -1 354 360 644 768 588 502 354 360 313 105 854 786 988 786 764 360 821 -1
Fore
354 360 m 1
 644 768 l 1
 764 360 l 1
 854 786 l 1
 988 786 l 1
 821 -1 l 1
 687 -1 l 1
 693 50 l 1
 694 59 694 68 694 76 c 0
 694 86 693 96 691 105 c 1
 588 502 l 1
 313 105 l 1
 304 89 294 71 288 50 c 1
 273 -1 l 1
 141 -1 l 1
 246 493 l 1
 241 491 224 490 197 490 c 1
 158 495 131 513 113 543 c 0
 102 564 97 587 97 611 c 0
 97 623 98 635 101 647 c 0
 106 675 117 701 134 724 c 0
 149 747 171 765 199 780 c 0
 226 794 255 801 289 801 c 4
 338 801 374 786 396 755 c 0
 411 735 418 711 418 683 c 0
 418 670 416 656 413 641 c 2
 354 360 l 1
243 583 m 0
 259 583 274 589 289 601 c 0
 303 612 311 627 315 645 c 0
 316 651 317 657 317 662 c 0
 317 673 314 682 307 689 c 0
 300 701 287 706 269 706 c 0
 252 706 236 700 220 687 c 0
 207 676 199 662 195 645 c 0
 194 639 193 634 193 628 c 0
 193 618 196 608 202 601 c 0
 212 589 225 583 243 583 c 0
EndSplineSet
EndChar
StartChar: uni0E1F
Encoding: 191 3615 160
OldEncoding: 3615
Width: 932
Flags: W
HStem: -1 21G<141 273 687 821> 490 93<197 243> 706 95<267 289>
VStem: 97 96<611 630> 317 101<662 683>
DStem: 246 493 413 641 141 -1 354 360 644 768 588 502 354 360 313 105 920 1094 1054 1094 764 360 821 -1
Fore
354 360 m 1
 644 768 l 1
 764 360 l 1
 920 1094 l 1
 1054 1094 l 1
 821 -1 l 1
 687 -1 l 1
 693 50 l 1
 694 59 694 68 694 76 c 0
 694 86 693 96 691 105 c 1
 588 502 l 1
 313 105 l 1
 304 89 294 71 288 50 c 1
 273 -1 l 1
 141 -1 l 1
 246 493 l 1
 241 491 224 490 197 490 c 1
 158 495 131 513 114 544 c 0
 102 565 97 587 97 611 c 0
 97 623 98 635 101 648 c 0
 106 675 117 701 134 724 c 0
 149 747 171 765 199 780 c 0
 226 794 255 801 289 801 c 4
 338 801 374 786 396 755 c 0
 411 735 418 711 418 683 c 0
 418 670 416 656 413 641 c 2
 354 360 l 1
243 583 m 0
 259 583 274 589 289 601 c 0
 303 612 311 627 315 645 c 0
 316 651 317 657 317 662 c 0
 317 673 314 682 307 689 c 0
 300 701 287 706 269 706 c 0
 252 706 236 700 220 687 c 0
 207 677 199 663 195 645 c 0
 194 639 193 634 193 628 c 0
 193 618 196 608 202 601 c 0
 212 589 225 583 243 583 c 0
EndSplineSet
EndChar
StartChar: uni0E20
Encoding: 192 3616 161
OldEncoding: 3616
Width: 876
Flags: W
HStem: -1 21G<632 766> 204 88<178 199> 703 102<587 622>
VStem: 7 90<99 125> 751 137<579 602>
DStem: 745 533 882 544 632 -1 766 -1
Fore
199 292 m 6
 210 292 l 5
 215 290 l 5
 234 381 l 6
 243 424 257 459 275 484 c 5
 293 515 315 537 342 551 c 5
 329 558 311 564 290 570 c 4
 259 579 231 585 206 586 c 5
 215 630 l 5
 252 665 l 6
 270 681 297 700 333 723 c 4
 371 746 413 765 458 781 c 4
 503 796 559 805 622 805 c 4
 684 805 737 794 779 774 c 5
 823 756 853 726 870 686 c 5
 882 661 888 633 888 602 c 0
 888 584 886 565 882 544 c 6
 766 -1 l 5
 632 -1 l 5
 745 533 l 6
 749 549 751 565 751 579 c 0
 751 613 740 640 720 661 c 4
 689 689 646 703 589 703 c 4
 557 703 523 697 486 686 c 4
 450 677 416 662 381 642 c 5
 444 626 l 5
 445 626 l 6
 470 620 497 605 524 582 c 5
 510 517 l 5
 486 517 460 509 434 494 c 4
 404 478 383 443 372 390 c 6
 319 140 l 6
 309 94 288 57 256 29 c 5
 226 0 186 -15 133 -17 c 5
 82 -15 47 0 29 29 c 5
 14 49 7 73 7 99 c 0
 7 111 8 123 11 135 c 4
 20 180 41 217 75 246 c 4
 108 277 149 292 199 292 c 6
152 70 m 4
 174 70 191 77 207 91 c 4
 220 102 228 117 232 138 c 4
 234 146 235 153 235 159 c 0
 235 189 217 204 180 204 c 4
 159 204 142 198 128 186 c 4
 111 171 102 155 98 138 c 4
 97 134 97 129 97 125 c 0
 97 113 100 102 107 91 c 4
 116 77 131 70 152 70 c 4
EndSplineSet
EndChar
StartChar: uni0E21
Encoding: 193 3617 162
OldEncoding: 3617
Width: 842
Flags: W
HStem: -16 102<182 188.955> 0 21G<602 731> 490 93<268 288> 706 95<312 334> 766 20G<764 898>
VStem: 42 105<114 132> 142 97<610 630> 364 97<662 694>
DStem: 238 259 371 252 207 113 343 120 288 493 458 662 260 364 394 360 764 786 898 786 642 212 731 0
Fore
764 786 m 5
 898 786 l 5
 731 0 l 5
 602 0 l 5
 601 28 592 60 574 97 c 4
 558 129 532 163 493 196 c 4
 459 227 418 245 371 252 c 5
 343 120 l 6
 333 74 315 41 285 20 c 4
 252 -4 220 -16 190 -16 c 4
 181 -16 l 0
 133 -16 95 -0 70 33 c 4
 51 56 42 83 42 114 c 0
 42 127 44 141 47 155 c 4
 56 207 81 256 124 300 c 5
 165 339 211 360 260 364 c 5
 288 493 l 5
 282 493 l 5
 268 490 l 5
 222 490 189 506 165 537 c 4
 150 558 142 582 142 610 c 0
 142 621 143 633 146 645 c 4
 155 689 177 726 210 757 c 5
 245 786 286 801 334 801 c 4
 375 801 408 788 436 761 c 4
 453 743 461 721 461 694 c 0
 461 684 460 673 458 662 c 6
 394 360 l 5
 476 348 536 326 572 294 c 4
 611 259 634 232 642 212 c 5
 764 786 l 5
288 583 m 4
 306 583 321 589 336 601 c 4
 350 612 358 627 362 645 c 4
 363 651 364 657 364 662 c 0
 364 673 361 682 354 689 c 4
 347 700 333 706 314 706 c 4
 298 706 283 700 267 687 c 4
 254 676 245 662 241 645 c 4
 240 640 239 635 239 630 c 0
 239 619 243 609 249 601 c 4
 258 589 272 583 288 583 c 4
238 259 m 5
 216 256 199 247 184 231 c 4
 167 213 157 191 151 166 c 4
 149 153 147 141 147 132 c 0
 147 103 159 87 182 86 c 4
 195 86 203 95 207 113 c 6
 238 259 l 5
EndSplineSet
EndChar
StartChar: uni0E22
Encoding: 194 3618 163
OldEncoding: 3618
Width: 779
Flags: W
HStem: -1 120<224 501> 503 93<368 390> 707 95<411 431> 766 20G<699 836>
VStem: 165 113<510 527> 459 93<652 688> 460 92<663 688>
DStem: 699 786 836 786 572 186 701 149
Fore
256 376 m 5
 221 388 197 412 182 450 c 5
 170 473 165 498 165 525 c 0
 165 540 166 556 170 573 c 4
 177 607 189 637 204 661 c 4
 231 706 264 742 304 767 c 5
 345 791 387 802 431 802 c 4
 476 802 509 788 530 760 c 4
 544 739 552 715 552 688 c 0
 552 677 551 666 548 654 c 4
 540 614 519 578 486 547 c 5
 454 517 414 503 368 503 c 4
 349 503 328 508 305 520 c 5
 286 524 277 529 277 532 c 0
 277 533 277 533 277 533 c 5
 279 533 l 5
 278 528 278 524 278 519 c 0
 278 494 294 473 326 454 c 4
 360 435 399 425 443 423 c 5
 422 323 l 5
 366 323 323 311 295 288 c 5
 267 268 249 235 240 191 c 6
 224 119 l 5
 486 119 l 6
 516 119 537 123 549 133 c 4
 558 141 566 158 572 186 c 6
 699 786 l 5
 836 786 l 5
 701 149 l 6
 687 86 668 45 642 27 c 4
 616 8 568 -1 499 -1 c 6
 64 -1 l 5
 105 191 l 6
 114 237 131 274 154 302 c 4
 174 327 195 346 215 359 c 4
 229 367 242 372 256 376 c 5
390 596 m 4
 410 596 425 601 435 612 c 4
 448 624 456 638 459 652 c 4
 459 656 460 659 460 663 c 0
 460 672 457 681 452 690 c 4
 446 702 433 707 413 707 c 4
 394 707 380 702 369 690 c 5
 356 680 347 667 344 652 c 4
 343 649 343 645 343 642 c 0
 343 632 346 623 353 615 c 5
 361 602 373 596 390 596 c 4
EndSplineSet
EndChar
StartChar: uni0E23
Encoding: 195 3619 164
OldEncoding: 3619
Width: 676
Flags: W
HStem: -14 95<401 424> 650 102<684 705> 706 99<404 439>
VStem: 276 97<102 125> 521 139<433 455>
Fore
652 384 m 2
 601 145 l 2
 591 101 567 63 530 32 c 0
 490 1 447 -14 401 -14 c 4
 351 -14 316 1 298 32 c 1
 283 52 276 75 276 102 c 0
 276 114 277 127 280 141 c 0
 289 184 310 221 344 249 c 0
 377 279 419 295 467 298 c 1
 496 295 l 1
 515 384 l 2
 519 406 521 424 521 439 c 0
 521 442 521 444 521 446 c 0
 519 462 510 479 492 497 c 0
 482 508 458 518 419 527 c 0
 381 534 331 541 271 547 c 0
 217 553 160 555 102 555 c 1
 117 627 l 1
 154 676 199 718 252 752 c 0
 308 787 370 805 439 805 c 0
 487 805 538 796 594 779 c 0
 647 761 684 752 703 752 c 0
 733 752 764 760 796 775 c 1
 805 675 l 1
 761 659 720 650 684 650 c 0
 651 650 605 659 546 677 c 0
 489 696 442 706 404 706 c 0
 366 706 337 698 315 682 c 0
 293 665 279 652 270 642 c 1
 448 642 567 614 625 558 c 0
 648 534 660 499 660 455 c 0
 660 433 657 410 652 384 c 2
424 81 m 0
 442 81 458 86 472 97 c 0
 485 108 494 123 498 141 c 0
 499 147 500 152 500 157 c 0
 500 168 497 177 492 185 c 0
 483 195 470 201 450 201 c 0
 432 201 415 195 399 182 c 0
 387 172 379 158 375 141 c 0
 374 135 373 130 373 125 c 0
 373 114 376 106 381 99 c 0
 392 87 406 81 424 81 c 0
EndSplineSet
EndChar
StartChar: uni0E24
Encoding: 196 3620 165
OldEncoding: 3620
Width: 807
Flags: W
HStem: -14 88<236 257> 207 88<283 297.983> 703 102<518 553>
VStem: 110 92<104 127> 337 92<160 177> 682 137<578 608>
DStem: 677 534 812 545 476 -410 609 -410
Fore
284 295 m 5
 302 295 l 6
 351 295 387 280 407 249 c 4
 422 228 429 204 429 177 c 0
 429 165 427 153 425 140 c 4
 416 97 395 61 361 32 c 5
 327 1 285 -14 236 -14 c 4
 189 -14 155 1 135 32 c 5
 118 53 110 77 110 104 c 0
 110 116 111 128 114 140 c 6
 165 381 l 6
 175 427 187 462 203 485 c 4
 220 511 244 534 274 552 c 5
 263 559 245 565 223 571 c 4
 193 580 165 585 139 587 c 5
 148 631 l 5
 184 666 l 6
 197 678 223 697 263 724 c 5
 305 748 347 767 391 781 c 4
 435 797 490 805 553 805 c 4
 616 805 668 795 709 777 c 4
 752 756 782 726 802 688 c 4
 813 665 819 638 819 608 c 0
 819 588 817 567 812 545 c 6
 609 -410 l 5
 476 -410 l 5
 677 534 l 6
 680 550 682 564 682 578 c 0
 682 612 671 640 650 661 c 4
 620 689 577 703 520 703 c 4
 454 703 385 683 312 642 c 5
 341 635 l 6
 347 635 365 629 395 620 c 4
 418 611 437 598 455 582 c 5
 441 518 l 5
 416 518 389 510 362 494 c 4
 335 479 315 444 304 390 c 6
 284 295 l 5
255 74 m 4
 277 74 295 81 309 94 c 4
 322 105 331 120 335 140 c 4
 336 148 337 155 337 162 c 0
 337 192 319 207 283 207 c 4
 262 207 245 201 232 189 c 4
 217 175 208 159 204 140 c 4
 203 136 202 131 202 127 c 0
 202 115 205 104 212 94 c 4
 221 81 235 74 255 74 c 4
EndSplineSet
EndChar
StartChar: uni0E25
Encoding: 197 3621 166
OldEncoding: 3621
Width: 773
Flags: W
HStem: -16 93<232 251> 0 21G<529 666> 461 101<364 381> 701 102<473 505>
VStem: 95 108<106 124> 327 97<158 179> 648 139<575 599>
DStem: 644 539 781 541 603 349 666 0
Fore
232 -16 m 4
 186 -16 151 -2 127 26 c 4
 105 50 95 77 95 106 c 0
 95 112 96 119 97 125 c 4
 101 161 114 228 136 329 c 5
 157 397 189 452 232 495 c 5
 274 540 323 562 379 562 c 4
 394 562 l 0
 445 562 487 547 518 518 c 4
 551 488 573 454 585 417 c 5
 603 349 l 5
 644 539 l 6
 647 554 648 568 648 581 c 0
 648 614 638 640 618 660 c 4
 588 687 542 701 481 701 c 4
 430 701 382 689 337 664 c 4
 296 641 259 612 226 578 c 5
 163 645 l 5
 195 684 243 721 305 755 c 4
 368 787 434 803 503 803 c 4
 598 803 673 780 727 733 c 4
 767 697 787 652 787 597 c 0
 787 579 785 561 781 541 c 6
 666 0 l 5
 529 0 l 5
 529 2 529 5 529 8 c 0
 529 38 526 94 521 178 c 5
 511 257 494 322 472 375 c 4
 447 432 413 461 369 461 c 0
 368 461 366 461 365 461 c 4
 306 458 265 400 241 287 c 5
 264 291 l 5
 297 293 l 5
 348 291 383 277 402 252 c 4
 417 231 424 207 424 179 c 0
 424 168 423 156 420 143 c 4
 413 99 391 61 354 30 c 5
 325 2 284 -14 232 -16 c 4
251 77 m 4
 270 77 288 83 302 95 c 5
 314 106 321 121 325 139 c 4
 326 146 327 152 327 158 c 0
 327 168 325 176 321 183 c 4
 312 193 298 199 277 199 c 4
 258 199 242 193 229 180 c 4
 217 170 208 156 205 139 c 4
 203 134 203 129 203 124 c 0
 203 113 206 104 212 97 c 4
 220 83 233 77 251 77 c 4
EndSplineSet
EndChar
StartChar: uni0E26
Encoding: 198 3622 167
OldEncoding: 3622
Width: 876
Flags: W
HStem: 205 88<179 199> 703 102<587 622>
VStem: 7 90<100 125> 751 137<579 603>
DStem: 746 534 882 545 545 -410 679 -410
Fore
199 293 m 6
 210 293 l 5
 215 291 l 5
 234 381 l 6
 243 425 257 459 275 485 c 5
 293 515 315 537 342 552 c 5
 329 559 311 565 290 571 c 4
 259 580 231 585 206 587 c 5
 215 631 l 5
 253 666 l 6
 270 682 297 701 333 724 c 4
 371 747 413 766 458 781 c 4
 503 797 559 805 622 805 c 4
 684 805 737 795 779 774 c 5
 823 756 854 727 870 686 c 5
 882 662 888 634 888 603 c 0
 888 585 886 565 882 545 c 6
 679 -410 l 5
 545 -410 l 5
 746 534 l 6
 749 550 751 565 751 579 c 0
 751 614 740 641 720 661 c 4
 689 689 646 703 589 703 c 4
 557 703 523 698 486 686 c 4
 450 677 416 662 381 642 c 5
 444 626 l 5
 445 626 l 6
 470 620 497 606 524 582 c 5
 510 518 l 5
 486 518 460 510 434 494 c 4
 404 478 383 444 372 390 c 6
 319 140 l 6
 309 94 288 58 256 30 c 5
 226 1 186 -14 133 -17 c 5
 82 -14 47 1 29 30 c 5
 14 50 7 73 7 100 c 0
 7 111 8 123 11 136 c 4
 20 180 41 217 76 247 c 4
 108 278 149 293 199 293 c 6
152 70 m 4
 174 70 192 78 208 92 c 4
 220 102 228 118 232 138 c 4
 234 146 235 153 235 160 c 0
 235 190 217 205 181 205 c 4
 160 205 142 199 128 187 c 4
 112 172 102 156 98 138 c 4
 97 134 97 129 97 125 c 0
 97 114 100 103 108 92 c 4
 117 78 131 70 152 70 c 4
EndSplineSet
EndChar
StartChar: uni0E27
Encoding: 199 3623 168
OldEncoding: 3623
Width: 704
Flags: W
HStem: -16 93<434 453> 198 95<477 499> 693 112<421 450>
VStem: 304 100<102 124> 578 136<579 602>
DStem: 573 534 707 536 521 291 623 143
Fore
499 293 m 1
 521 291 l 1
 573 534 l 2
 576 551 578 567 578 581 c 0
 578 614 568 639 547 655 c 0
 517 681 475 693 423 693 c 0
 421 693 418 693 415 693 c 0
 332 693 249 648 169 560 c 1
 91 631 l 1
 131 679 181 721 243 757 c 1
 305 789 374 805 450 805 c 4
 551 805 623 781 668 733 c 0
 699 697 714 654 714 602 c 0
 714 581 712 559 707 536 c 2
 623 143 l 2
 613 96 592 59 556 30 c 0
 520 -1 479 -16 434 -16 c 0
 385 -16 349 -1 326 30 c 0
 311 52 304 76 304 102 c 0
 304 116 306 130 310 145 c 1
 318 184 342 219 379 252 c 0
 412 279 452 293 499 293 c 1
453 77 m 0
 471 77 488 82 503 94 c 1
 515 106 522 120 526 139 c 0
 527 146 528 152 528 158 c 0
 528 168 526 176 522 183 c 0
 513 193 499 198 479 198 c 0
 459 198 443 192 430 180 c 0
 418 170 409 156 406 139 c 0
 404 134 404 129 404 124 c 0
 404 113 407 104 413 97 c 0
 422 83 434 77 453 77 c 0
EndSplineSet
EndChar
StartChar: uni0E28
Encoding: 200 3624 169
OldEncoding: 3624
Width: 796
Flags: W
HStem: -2 21G<133 270 551 685> 507 97<442 462> 696 109<478 514>
VStem: 105 119<450 474> 491 96<461 478>
DStem: 656 494 797 527 551 -2 685 -2
Fore
749 723 m 1
 752 723 761 735 780 759 c 0
 800 787 816 814 826 838 c 1
 931 783 l 1
 918 752 897 720 869 688 c 0
 839 654 817 631 802 620 c 1
 804 589 l 1
 804 587 804 585 804 582 c 0
 804 569 802 551 797 527 c 2
 685 -2 l 1
 551 -2 l 1
 656 494 l 1
 664 531 l 1
 642 518 616 507 586 500 c 1
 587 481 l 2
 587 478 l 0
 587 466 586 456 584 446 c 0
 572 402 551 365 518 335 c 0
 489 306 448 291 395 288 c 1
 359 293 l 1
 343 297 334 300 334 302 c 0
 334 302 l 2
 270 -2 l 1
 133 -2 l 1
 160 129 l 2
 165 151 167 170 167 188 c 0
 167 201 166 213 164 224 c 0
 157 255 148 287 136 321 c 0
 123 358 114 391 108 418 c 0
 106 428 105 438 105 450 c 0
 105 470 108 492 113 518 c 0
 128 579 157 631 199 675 c 0
 241 719 289 750 346 770 c 1
 399 791 456 803 514 805 c 0
 551 805 583 802 609 796 c 0
 634 791 662 780 693 763 c 0
 715 752 733 739 749 723 c 1
547 575 m 1
 563 575 582 583 603 597 c 2
 648 626 l 1
 633 651 612 669 582 679 c 0
 551 691 515 696 478 696 c 0
 423 694 371 676 322 642 c 1
 271 608 239 565 228 513 c 0
 225 501 224 488 224 474 c 0
 224 459 226 442 228 425 c 0
 231 397 233 383 234 383 c 1
 235 386 l 2
 243 423 264 468 300 520 c 1
 331 574 385 602 462 604 c 0
 492 604 513 600 522 594 c 0
 534 588 542 581 547 575 c 1
415 383 m 0
 434 383 452 389 466 401 c 1
 478 413 485 428 489 446 c 0
 490 453 491 459 491 465 c 0
 491 474 489 483 485 490 c 0
 476 501 463 507 442 507 c 0
 424 507 408 500 394 487 c 0
 381 477 372 463 369 446 c 0
 368 440 367 435 367 430 c 0
 367 419 370 409 375 401 c 0
 385 389 398 383 415 383 c 0
EndSplineSet
EndChar
StartChar: uni0E29
Encoding: 201 3625 170
OldEncoding: 3625
Width: 837
Flags: W
HStem: -1 120<82 555> 269 85<614 649> 486 72<546 566> 706 95<283 305> 766 20G<759 893>
VStem: 113 97<611 628> 334 101<663 683> 588 76<446 465>
DStem: 266 493 430 641 186 119 319 119 759 786 893 786 668 356 812 404
Fore
1024 569 m 1
 1014 523 999 485 978 453 c 0
 957 418 934 392 910 373 c 1
 888 352 864 336 840 324 c 2
 789 298 l 1
 758 151 l 2
 746 92 722 52 685 32 c 0
 648 10 593 -1 519 -1 c 2
 58 -1 l 1
 83 119 l 1
 186 119 l 1
 266 493 l 1
 216 490 l 1
 178 495 150 513 132 543 c 0
 120 563 113 586 113 611 c 0
 113 622 115 634 118 647 c 0
 127 690 149 727 183 757 c 1
 214 786 254 801 305 801 c 0
 358 801 394 786 413 757 c 1
 428 737 435 712 435 683 c 0
 435 670 433 656 430 641 c 2
 319 119 l 1
 548 119 l 2
 579 119 600 124 609 133 c 0
 619 141 626 160 632 187 c 2
 649 269 l 1
 565 269 505 279 470 300 c 1
 443 323 424 341 418 354 c 0
 413 364 411 377 411 393 c 0
 411 406 412 419 414 435 c 0
 421 466 437 494 462 519 c 0
 490 545 525 558 566 558 c 0
 601 558 627 547 644 525 c 0
 657 506 664 486 664 465 c 0
 664 457 664 450 662 442 c 0
 656 406 640 377 614 354 c 1
 645 354 663 354 668 356 c 1
 759 786 l 1
 893 786 l 1
 812 404 l 1
 858 426 890 481 909 569 c 1
 1024 569 l 1
531 395 m 0
 547 395 560 400 569 409 c 0
 578 420 585 431 587 442 c 0
 588 445 588 448 588 451 c 0
 588 460 585 468 580 475 c 0
 574 482 564 486 550 486 c 0
 535 486 524 481 515 472 c 1
 504 463 497 453 495 442 c 0
 494 440 494 437 494 435 c 0
 494 427 497 418 502 409 c 0
 507 400 516 395 531 395 c 0
259 583 m 0
 278 583 294 589 309 601 c 1
 320 613 328 628 332 645 c 0
 333 651 334 657 334 663 c 0
 334 673 332 682 327 689 c 0
 319 701 305 706 285 706 c 0
 268 706 252 700 237 687 c 0
 224 676 216 662 212 645 c 0
 211 639 210 634 210 628 c 0
 210 618 213 608 219 601 c 0
 228 589 241 583 259 583 c 0
EndSplineSet
EndChar
StartChar: uni0E2A
Encoding: 202 3626 171
OldEncoding: 3626
Width: 770
Flags: W
HStem: -15 93<230 250> 0 21G<526 663> 462 101<361 379> 702 102<470 503>
VStem: 93 108<106 124> 324 98<159 181>
Fore
250 78 m 4
 268 78 285 83 299 95 c 5
 311 107 318 121 322 139 c 4
 323 146 324 153 324 159 c 0
 324 169 322 177 318 184 c 4
 309 194 295 199 275 199 c 4
 255 199 239 193 227 181 c 4
 214 171 206 157 203 139 c 4
 201 134 201 129 201 124 c 0
 201 114 204 105 210 98 c 4
 218 84 232 78 250 78 c 4
609 650 m 5
 585 685 541 702 479 702 c 4
 428 702 380 690 334 665 c 4
 294 642 257 613 223 579 c 5
 161 646 l 5
 194 685 240 721 302 755 c 4
 365 788 431 804 501 804 c 4
 573 804 635 789 686 760 c 5
 690 760 708 782 742 827 c 5
 772 872 790 894 795 894 c 5
 840 866 l 6
 866 849 882 836 885 829 c 5
 819 755 l 5
 784 715 766 693 765 688 c 5
 776 673 784 653 787 628 c 4
 788 624 788 620 788 616 c 0
 788 598 785 573 778 542 c 6
 663 0 l 5
 526 0 l 5
 526 4 526 8 526 13 c 0
 526 45 524 100 518 179 c 5
 509 257 493 323 470 376 c 4
 444 433 410 462 367 462 c 0
 365 462 364 462 362 462 c 4
 304 459 262 401 238 288 c 5
 262 292 l 5
 295 294 l 5
 346 292 380 278 400 252 c 4
 414 232 422 208 422 181 c 0
 422 169 420 157 418 144 c 4
 410 100 389 62 353 31 c 5
 322 2 282 -13 230 -15 c 4
 184 -15 149 -1 124 26 c 4
 103 50 93 77 93 106 c 0
 93 112 94 119 95 126 c 4
 99 161 112 229 133 329 c 5
 155 398 186 453 229 495 c 5
 272 541 321 563 377 563 c 5
 381 563 386 563 390 563 c 0
 441 563 482 553 514 530 c 5
 517 530 533 550 561 590 c 4
 590 630 606 650 609 650 c 5
644 572 m 5
 635 556 621 537 604 517 c 4
 584 494 573 481 572 477 c 5
 583 459 589 438 593 413 c 5
 600 350 l 5
 622 462 l 5
 644 572 l 5
EndSplineSet
EndChar
StartChar: uni0E2B
Encoding: 203 3627 172
OldEncoding: 3627
Width: 847
Flags: W
HStem: -1 21G<142 274 600 737> 489 93<197 240> 705 95<264 286 736 763> 802 21G<736 786.5>
VStem: 94 97<611 627> 316 101<660 683> 562 99<610 630> 686 139<422 444> 785 98<664 686>
DStem: 246 491 412 639 142 -1 352 359 679 372 816 372 600 -1 737 -1
Fore
352 359 m 1
 392 407 435 447 482 478 c 0
 525 507 559 526 583 538 c 1
 569 559 562 583 562 610 c 0
 562 621 564 633 566 646 c 0
 576 692 598 730 633 760 c 0
 666 788 709 802 763 802 c 4
 810 802 844 788 863 758 c 0
 876 737 883 713 883 686 c 0
 883 673 881 660 878 646 c 0
 866 589 837 547 792 520 c 1
 799 517 808 505 818 482 c 0
 823 473 825 460 825 444 c 0
 825 424 822 401 816 372 c 2
 737 -1 l 1
 600 -1 l 1
 679 372 l 2
 684 393 686 410 686 423 c 0
 686 434 684 442 681 447 c 0
 675 460 668 467 662 467 c 1
 565 421 481 355 409 270 c 0
 340 186 296 105 280 29 c 2
 274 -1 l 1
 142 -1 l 1
 246 491 l 1
 241 490 225 489 197 489 c 1
 159 494 132 511 113 542 c 0
 101 563 94 586 94 611 c 0
 94 622 96 634 98 646 c 0
 107 689 129 726 164 756 c 0
 196 785 237 800 286 800 c 0
 338 800 375 785 398 756 c 1
 410 734 417 710 417 683 c 0
 417 669 415 654 412 639 c 2
 352 359 l 1
710 585 m 0
 730 585 747 591 758 603 c 1
 772 614 779 628 783 646 c 0
 785 652 785 658 785 664 c 0
 785 674 783 683 777 690 c 1
 771 702 757 707 736 707 c 0
 718 707 702 701 688 688 c 0
 675 678 667 664 663 646 c 0
 662 640 661 635 661 630 c 0
 661 619 664 610 670 603 c 0
 679 591 692 585 710 585 c 0
240 582 m 0
 260 582 275 588 288 600 c 0
 301 611 310 626 314 644 c 0
 315 650 316 655 316 660 c 0
 316 672 312 681 306 688 c 1
 301 699 287 705 266 705 c 0
 251 705 235 699 218 686 c 0
 204 675 196 661 193 644 c 0
 192 638 191 633 191 627 c 0
 191 617 194 607 200 600 c 0
 210 588 224 582 240 582 c 0
EndSplineSet
EndChar
StartChar: uni0E2C
Encoding: 204 3628 173
OldEncoding: 3628
Width: 927
Flags: W
HStem: -1 21G<138 268 682 816> 490 93<192 238> 626 93<815 831> 706 95<263 284> 823 93<852 873>
VStem: 91 97<610 628> 313 100<660 682> 693 97<740 762> 896 93<783 800>
DStem: 243 492 408 640 138 -1 345 342 815 626 956 657 755 342 816 -1
Fore
956 657 m 5
 816 -1 l 5
 682 -1 l 5
 689 50 l 5
 689 61 690 70 690 78 c 0
 690 90 689 99 687 106 c 6
 573 458 l 5
 312 106 l 5
 302 94 293 76 286 50 c 5
 277 28 270 11 268 -1 c 5
 138 -1 l 5
 243 492 l 5
 236 490 220 490 192 490 c 5
 154 494 127 512 108 543 c 4
 97 564 91 586 91 610 c 0
 91 622 93 634 96 647 c 4
 101 675 112 700 129 724 c 4
 146 748 167 767 194 779 c 4
 221 793 250 801 284 801 c 4
 333 801 369 785 391 754 c 4
 406 734 413 710 413 682 c 0
 413 669 411 655 408 640 c 6
 345 342 l 5
 623 691 l 5
 755 342 l 5
 815 626 l 5
 772 626 740 640 718 668 c 5
 702 687 693 711 693 740 c 0
 693 750 694 760 696 770 c 4
 704 811 725 845 757 874 c 4
 789 902 827 916 873 916 c 4
 927 916 962 900 976 867 c 5
 985 841 989 819 989 800 c 0
 989 796 989 792 988 788 c 5
 1013 805 1036 837 1058 885 c 5
 1149 839 l 5
 1135 803 1116 774 1093 752 c 4
 1061 722 1035 700 1013 686 c 4
 987 669 968 659 956 657 c 5
831 719 m 4
 847 719 861 724 871 735 c 5
 883 743 892 756 895 772 c 4
 896 776 896 780 896 783 c 0
 896 793 894 801 889 809 c 4
 882 819 870 823 853 823 c 4
 837 823 824 819 813 809 c 4
 802 799 794 787 791 772 c 4
 790 768 790 765 790 762 c 0
 790 752 793 744 797 735 c 4
 806 724 817 719 831 719 c 4
238 583 m 4
 253 583 269 588 286 600 c 4
 298 612 307 626 311 645 c 4
 312 650 313 656 313 660 c 0
 313 672 310 681 304 689 c 4
 295 700 282 706 264 706 c 4
 247 706 231 699 216 686 c 4
 202 676 194 662 190 645 c 4
 189 639 188 633 188 628 c 0
 188 617 191 608 198 600 c 4
 207 588 220 583 238 583 c 4
EndSplineSet
EndChar
StartChar: uni0E2D
Encoding: 205 3629 174
OldEncoding: 3629
Width: 785
Flags: W
HStem: -1 120<277 511> 242 95<279 302> 457 94<325 345> 695 110<475 508>
VStem: 88 147<77 152> 376 98<416 438> 656 140<575 600>
DStem: 651 533 789 535 578 186 708 153
Fore
252 244 m 1
 240 186 l 2
 237 172 235 161 235 152 c 0
 235 143 237 137 239 133 c 0
 245 123 262 119 292 119 c 2
 492 119 l 2
 522 119 543 123 555 133 c 0
 564 141 572 158 578 186 c 2
 651 533 l 2
 654 548 656 562 656 575 c 0
 656 653 597 692 480 695 c 0
 436 695 393 686 349 668 c 1
 301 644 262 618 232 589 c 1
 161 659 l 1
 197 697 246 732 307 763 c 1
 367 790 434 805 508 805 c 4
 616 805 694 781 742 734 c 0
 778 700 796 655 796 600 c 0
 796 580 794 558 789 535 c 2
 708 153 l 2
 695 92 674 52 647 31 c 0
 618 10 571 -1 505 -1 c 2
 235 -1 l 2
 191 -1 156 2 133 10 c 0
 110 16 96 30 91 52 c 0
 89 59 88 67 88 77 c 0
 88 96 91 120 98 149 c 2
 148 385 l 2
 158 432 180 471 217 503 c 0
 254 535 296 551 345 551 c 0
 381 551 409 544 427 529 c 1
 448 515 463 497 470 473 c 0
 473 462 474 450 474 438 c 0
 474 426 473 413 470 399 c 0
 461 357 439 320 404 288 c 0
 370 257 327 242 279 242 c 1
 263 244 l 1
 252 244 l 1
302 337 m 0
 320 337 336 343 352 355 c 1
 364 367 371 381 374 396 c 0
 376 403 376 410 376 416 c 0
 376 425 375 433 371 440 c 1
 360 452 346 457 327 457 c 0
 311 457 295 451 279 438 c 0
 266 427 258 413 254 396 c 0
 253 392 253 387 253 383 c 0
 253 373 256 363 261 355 c 0
 271 343 285 337 302 337 c 0
EndSplineSet
EndChar
StartChar: uni0E2E
Encoding: 206 3630 175
OldEncoding: 3630
Width: 778
Flags: W
HStem: -3 120<255 499> 184 95<246 276> 385 95<299 323> 513 86<411 465> 710 95<451 489>
VStem: 169 109<623 645> 341 97<332 362>
DStem: 649 555 800 621 568 175 700 152
Fore
925 732 m 1
 881 685 839 649 800 621 c 1
 700 152 l 2
 687 91 667 51 639 30 c 0
 611 8 563 -3 497 -3 c 2
 227 -3 l 2
 183 -3 149 1 126 9 c 0
 102 16 88 29 83 48 c 0
 81 55 80 64 80 74 c 0
 80 92 83 115 89 143 c 2
 125 312 l 2
 135 359 157 399 192 432 c 0
 227 464 271 480 323 480 c 0
 365 480 396 466 416 438 c 0
 431 415 438 390 438 362 c 0
 438 353 438 344 436 334 c 1
 427 294 407 259 375 228 c 0
 346 200 307 184 260 182 c 1
 246 184 l 2
 238 184 234 185 233 186 c 1
 227 159 l 2
 225 150 224 143 224 137 c 0
 224 130 225 125 228 123 c 1
 238 119 258 117 285 117 c 2
 487 117 l 2
 518 117 538 122 548 132 c 0
 557 139 562 147 568 175 c 2
 649 555 l 1
 642 549 619 540 581 529 c 0
 546 518 490 513 413 513 c 0
 341 513 280 524 230 546 c 0
 189 563 169 588 169 623 c 0
 169 630 169 637 171 645 c 0
 178 678 198 706 233 730 c 1
 263 755 303 774 349 786 c 0
 394 798 436 805 475 805 c 0
 555 805 617 794 662 772 c 0
 701 754 729 736 746 719 c 1
 765 733 799 765 847 814 c 1
 925 732 l 1
276 279 m 0
 293 279 307 284 318 295 c 0
 330 307 338 319 341 332 c 0
 341 336 342 340 342 344 c 0
 342 353 339 362 333 369 c 0
 328 380 316 385 299 385 c 0
 281 385 267 381 256 372 c 0
 244 360 237 346 234 332 c 0
 233 329 232 325 232 322 c 0
 232 313 235 304 242 295 c 0
 248 284 259 279 276 279 c 0
433 599 m 0
 440 599 446 599 453 599 c 0
 497 599 539 605 578 617 c 0
 617 630 636 640 637 645 c 1
 632 655 616 668 588 684 c 0
 562 701 519 710 459 710 c 0
 421 710 382 704 343 694 c 0
 303 682 282 667 278 650 c 0
 278 648 278 646 278 645 c 0
 278 616 329 601 433 599 c 0
EndSplineSet
EndChar
StartChar: uni0E2F
Encoding: 207 3631 176
OldEncoding: 3631
Width: 743
Flags: W
HStem: 333 120<363 419> 490 93<322 344> 706 97<369 389> 766 20G<667 799>
VStem: 420 96<659 676>
DStem: 592 441 799 786 552 254 684 245
Fore
163 606 m 5
 201 735 276 801 389 803 c 4
 417 803 442 796 463 782 c 5
 485 769 501 750 508 724 c 4
 514 708 516 692 516 676 c 0
 516 666 515 656 513 645 c 4
 504 603 482 566 448 534 c 5
 412 505 370 490 322 490 c 5
 302 492 l 5
 287 492 l 5
 293 466 337 453 419 453 c 5
 468 460 517 496 566 560 c 4
 615 623 648 698 667 786 c 5
 799 786 l 5
 684 245 l 6
 667 164 636 103 591 64 c 5
 541 24 463 -8 357 -33 c 5
 352 74 l 5
 407 92 447 107 472 119 c 4
 498 132 515 146 524 164 c 4
 533 181 543 211 552 254 c 6
 592 441 l 5
 574 413 543 388 500 368 c 5
 456 345 411 333 363 333 c 5
 313 338 l 5
 255 351 211 382 182 430 c 4
 164 461 155 497 155 537 c 0
 155 559 158 582 163 606 c 5
344 583 m 4
 361 583 377 589 392 601 c 4
 405 612 414 627 418 645 c 4
 419 651 420 656 420 661 c 0
 420 672 417 681 410 689 c 4
 403 700 389 706 370 706 c 4
 354 706 339 700 323 687 c 4
 310 676 301 662 297 645 c 4
 296 640 295 635 295 630 c 0
 295 619 299 609 305 601 c 4
 314 589 327 583 344 583 c 4
EndSplineSet
EndChar
StartChar: uni0E30
Encoding: 208 3632 177
OldEncoding: 3632
Width: 585
Flags: W
HStem: 0 113<185 216> 227 95<205 227> 465 111<283 315> 691 95<306 326>
VStem: 40 98<135 160> 136 101<597 622> 254 97<186 206> 353 96<651 672>
Fore
227 322 m 0
 273 322 307 308 329 280 c 1
 343 259 351 235 351 206 c 0
 351 196 350 185 348 174 c 1
 337 141 l 1
 325 110 l 1
 344 113 370 127 403 152 c 0
 437 178 462 231 479 312 c 1
 609 312 l 1
 589 216 548 140 486 83 c 0
 423 28 333 0 216 0 c 0
 161 0 116 15 81 46 c 0
 54 69 40 98 40 135 c 0
 40 146 42 159 45 172 c 0
 54 215 75 251 108 280 c 0
 139 308 178 322 227 322 c 0
326 786 m 0
 375 786 409 772 427 744 c 0
 442 725 449 701 449 672 c 0
 449 661 448 649 446 636 c 1
 435 604 l 1
 424 574 l 1
 424 574 l 1
 459 585 l 1
 481 596 503 616 528 647 c 0
 549 677 566 719 578 775 c 1
 708 775 l 1
 693 707 672 653 642 611 c 0
 611 565 569 529 515 504 c 0
 461 478 394 465 315 465 c 0
 263 465 217 481 180 512 c 0
 150 534 136 562 136 597 c 0
 136 608 137 621 141 634 c 0
 150 676 172 713 206 744 c 0
 237 772 277 786 326 786 c 0
185 113 m 0
 204 113 219 119 231 132 c 0
 242 143 249 156 253 172 c 0
 254 177 254 181 254 186 c 0
 254 195 252 203 248 210 c 0
 241 221 229 227 209 227 c 0
 189 227 174 221 164 210 c 1
 151 199 143 187 140 172 c 0
 139 168 138 164 138 160 c 0
 138 149 141 140 147 132 c 1
 153 119 166 113 185 113 c 0
283 576 m 0
 299 576 315 582 329 594 c 1
 341 606 348 619 351 634 c 0
 352 640 353 646 353 651 c 0
 353 660 351 668 347 676 c 0
 340 686 328 691 308 691 c 0
 291 691 276 686 263 676 c 0
 250 665 241 651 238 634 c 0
 237 630 237 626 237 622 c 0
 237 612 240 602 245 594 c 0
 255 582 267 576 283 576 c 0
EndSplineSet
EndChar
StartChar: uni0E31
Encoding: 209 3633 178
OldEncoding: 3633
Width: 0
Flags: W
HStem: 851 107<-26 21> 1091 95<-119 -98>
VStem: -278 100<1003 1024> -63 87<1051 1076>
Fore
-91 1186 m 0
 -47 1186 -14 1172 7 1142 c 1
 19 1124 24 1101 24 1076 c 0
 24 1063 23 1049 20 1034 c 0
 17 1021 12 1007 4 992 c 1
 -13 963 l 1
 0 960 l 1
 21 958 l 1
 60 958 105 972 157 1001 c 0
 208 1029 259 1082 312 1161 c 1
 416 1122 l 1
 388 1065 352 1018 308 978 c 1
 256 935 203 904 151 883 c 0
 89 862 30 851 -26 851 c 1
 -76 853 l 1
 -136 860 -187 880 -227 912 c 1
 -261 935 -278 965 -278 1003 c 0
 -278 1013 -277 1023 -274 1034 c 0
 -265 1077 -243 1114 -211 1142 c 0
 -180 1172 -142 1186 -100 1186 c 0
 -91 1186 l 0
-131 981 m 0
 -114 981 -100 986 -87 996 c 0
 -75 1009 -68 1022 -65 1036 c 0
 -64 1042 -63 1047 -63 1051 c 0
 -63 1061 -65 1069 -70 1076 c 0
 -79 1086 -91 1091 -108 1091 c 0
 -125 1091 -140 1086 -153 1076 c 0
 -166 1065 -173 1052 -177 1036 c 0
 -178 1032 -178 1028 -178 1024 c 0
 -178 1015 -175 1005 -170 996 c 0
 -161 986 -148 981 -131 981 c 0
EndSplineSet
EndChar
StartChar: uni0E32
Encoding: 210 3634 179
OldEncoding: 3634
Width: 650
Flags: W
HStem: -1 21G<406 540> 699 106<404 440>
VStem: 531 138<606 640>
DStem: 527 569 661 567 406 -1 540 -1
Fore
106 592 m 1
 132 643 171 692 225 738 c 0
 279 783 351 805 440 805 c 0
 536 803 601 783 636 743 c 0
 658 717 669 683 669 640 c 0
 669 618 666 593 661 567 c 2
 540 -1 l 1
 406 -1 l 1
 527 569 l 2
 530 583 531 595 531 606 c 0
 531 668 489 699 404 699 c 0
 323 699 260 653 215 560 c 1
 106 592 l 1
EndSplineSet
EndChar
StartChar: uni0E33
Encoding: 211 3635 180
OldEncoding: 3635
Width: 674
Flags: W
HStem: -1 21G<429 563> 699 106<428 464> 903 95<-61 -39> 1122 95<-15 6>
VStem: -187 100<1023 1046> 37 95<1078 1099> 554 138<607 640>
DStem: 550 570 684 567 429 -1 563 -1
Fore
129 592 m 1
 155 643 195 692 249 738 c 0
 303 783 375 805 464 805 c 0
 560 803 625 783 660 744 c 0
 682 718 692 683 692 640 c 0
 692 618 689 594 684 567 c 2
 563 -1 l 1
 429 -1 l 1
 550 570 l 2
 553 583 554 596 554 607 c 0
 554 668 512 699 428 699 c 0
 347 699 284 653 239 560 c 1
 129 592 l 1
6 1217 m 0
 56 1217 90 1202 109 1172 c 1
 124 1151 132 1126 132 1099 c 0
 132 1087 130 1075 128 1062 c 0
 118 1017 96 980 62 950 c 0
 26 919 -14 903 -61 903 c 0
 -108 903 -142 919 -164 950 c 0
 -179 971 -187 995 -187 1023 c 0
 -187 1035 -185 1048 -182 1062 c 0
 -173 1105 -151 1142 -117 1172 c 1
 -86 1202 -45 1217 6 1217 c 0
-39 998 m 0
 -21 998 -4 1005 9 1018 c 0
 23 1028 31 1043 35 1062 c 0
 36 1068 37 1073 37 1078 c 0
 37 1089 34 1098 28 1105 c 0
 20 1116 6 1122 -13 1122 c 0
 -34 1122 -50 1116 -60 1105 c 1
 -72 1094 -81 1080 -85 1062 c 0
 -87 1056 -87 1051 -87 1046 c 0
 -87 1034 -84 1025 -79 1018 c 1
 -72 1005 -59 998 -39 998 c 0
EndSplineSet
EndChar
StartChar: uni0E34
Encoding: 212 3636 181
OldEncoding: 3636
Width: 0
Flags: W
HStem: 915 97<-291 -253.919> 1084 93<-144 -122>
Fore
-122 1177 m 5
 -64 1175 -20 1159 14 1130 c 4
 43 1108 65 1077 80 1037 c 5
 91 1005 95 973 95 942 c 0
 95 927 l 5
 97 841 l 5
 -3 873 l 5
 -54 886 -108 897 -166 905 c 4
 -202 912 -253 915 -317 915 c 5
 -435 911 l 5
 -511 903 l 5
 -493 954 -464 1000 -426 1042 c 4
 -385 1084 -340 1116 -290 1139 c 4
 -238 1164 -182 1177 -122 1177 c 5
-142 1084 m 5
 -185 1084 -224 1076 -257 1061 c 4
 -295 1043 -319 1025 -329 1008 c 5
 -291 1012 l 5
 -236 1012 l 5
 -155 1008 l 5
 -110 1003 -75 996 -51 989 c 5
 1 968 l 5
 -20 1036 -68 1075 -142 1084 c 5
EndSplineSet
EndChar
StartChar: uni0E35
Encoding: 213 3637 182
OldEncoding: 3637
Width: 0
Flags: W
HStem: 968 21G<-18 -18> 1083 93<-181 -155>
DStem: -246 1012 -246 1012 -312 1010 -177 1007 37 1259 158 1259 7 1120 90 940
Fore
-143 1176 m 4
 -107 1176 -73 1168 -42 1153 c 5
 -19 1140 -2 1129 7 1120 c 5
 37 1259 l 5
 158 1259 l 5
 90 940 l 5
 94 940 95 918 95 875 c 0
 95 864 95 851 95 836 c 5
 -21 873 l 6
 -61 884 -115 895 -184 906 c 4
 -222 912 -273 915 -335 915 c 6
 -421 912 l 5
 -491 906 l 5
 -532 902 l 5
 -514 955 -486 1001 -447 1041 c 4
 -405 1085 -361 1117 -311 1138 c 5
 -259 1164 -207 1176 -155 1176 c 0
 -143 1176 l 4
-163 1083 m 5
 -205 1083 -242 1076 -276 1060 c 4
 -315 1042 -338 1024 -348 1005 c 5
 -312 1010 l 5
 -246 1012 l 5
 -177 1007 l 5
 -91 993 l 5
 -38 975 l 5
 -18 968 l 5
 -18 968 l 5
 -38 1033 -86 1072 -163 1083 c 5
EndSplineSet
EndChar
StartChar: uni0E36
Encoding: 214 3638 183
OldEncoding: 3638
Width: 0
Flags: W
HStem: 914 97<-310 -272.407> 1082 93<-166 -142> 1182 90<33 55>
VStem: 66 95<1153 1173>
Fore
160 1157 m 5
 145 1088 116 1044 70 1022 c 5
 89 956 l 5
 94 934 96 908 96 880 c 0
 96 865 95 851 94 835 c 5
 -24 872 l 6
 -61 883 -116 894 -185 905 c 4
 -222 911 -273 914 -336 914 c 6
 -422 912 l 5
 -491 905 l 5
 -530 902 l 5
 -510 956 -480 1002 -443 1040 c 5
 -406 1083 -362 1116 -309 1138 c 5
 -257 1163 -201 1175 -142 1175 c 5
 -115 1173 l 6
 -105 1170 -100 1169 -100 1168 c 0
 -100 1168 l 4
 -61 1238 -10 1272 55 1272 c 4
 92 1272 120 1262 139 1243 c 5
 153 1223 161 1200 161 1173 c 0
 161 1168 160 1162 160 1157 c 5
-164 1082 m 5
 -205 1082 -244 1075 -278 1060 c 4
 -314 1043 -338 1025 -348 1007 c 5
 -310 1011 l 5
 -255 1011 l 5
 -176 1007 l 5
 -142 1003 -106 996 -70 987 c 5
 -19 967 l 5
 -39 1033 -88 1071 -164 1082 c 5
16 1102 m 4
 28 1102 38 1106 48 1115 c 4
 57 1123 63 1132 65 1142 c 4
 66 1146 66 1150 66 1153 c 0
 66 1159 64 1164 61 1168 c 4
 55 1177 46 1182 33 1182 c 4
 7 1182 -9 1169 -14 1142 c 4
 -15 1137 -16 1133 -16 1129 c 0
 -16 1111 -5 1102 16 1102 c 4
EndSplineSet
EndChar
StartChar: uni0E37
Encoding: 215 3639 184
OldEncoding: 3639
Width: 0
Flags: W
HStem: 968 21G<-18 -18> 1083 93<-165 -138>
DStem: -246 1012 -246 1012 -312 1010 -177 1007 41 1259 157 1259 10 1116 89 940
Fore
10 1116 m 5
 41 1259 l 5
 157 1259 l 5
 89 940 l 5
 93 940 95 914 95 864 c 0
 95 855 95 846 95 836 c 5
 -21 873 l 6
 -61 884 -115 895 -184 906 c 4
 -222 912 -273 915 -335 915 c 6
 -421 912 l 5
 -491 906 l 5
 -532 902 l 5
 -479 1015 -419 1088 -348 1123 c 4
 -279 1158 -208 1176 -138 1176 c 5
 -120 1259 l 5
 -12 1259 l 5
 -36 1149 l 5
 -15 1136 l 5
 10 1116 l 5
-163 1083 m 5
 -205 1083 -242 1076 -276 1060 c 4
 -315 1042 -338 1024 -348 1005 c 5
 -312 1010 l 5
 -246 1012 l 5
 -177 1007 l 5
 -91 993 l 5
 -38 975 l 5
 -18 968 l 5
 -18 968 l 5
 -38 1033 -86 1072 -163 1083 c 5
EndSplineSet
EndChar
StartChar: uni0E38
Encoding: 216 3640 185
OldEncoding: 3640
Width: 0
Flags: W
HStem: -124 95<-292 -269>
VStem: -467 98<-223 -199> -241 98<-170 -143>
DStem: -307 -339 -147 -173 -344 -515 -219 -515
Fore
-219 -515 m 5
 -344 -515 l 5
 -307 -339 l 5
 -363 -341 l 5
 -389 -339 -411 -330 -430 -314 c 5
 -445 -298 -456 -279 -462 -256 c 4
 -465 -246 -467 -235 -467 -223 c 0
 -467 -211 -465 -199 -463 -186 c 4
 -454 -145 -432 -109 -398 -78 c 4
 -363 -45 -320 -29 -269 -29 c 4
 -241 -29 -217 -34 -199 -45 c 4
 -180 -55 -165 -72 -154 -96 c 4
 -147 -110 -143 -126 -143 -143 c 0
 -143 -152 -145 -162 -147 -173 c 6
 -219 -515 l 5
-318 -246 m 4
 -299 -246 -283 -240 -268 -228 c 4
 -254 -217 -246 -203 -243 -186 c 4
 -241 -180 -241 -175 -241 -170 c 0
 -241 -159 -244 -149 -250 -142 c 4
 -260 -130 -273 -124 -292 -124 c 4
 -310 -124 -327 -130 -341 -142 c 4
 -355 -153 -364 -168 -368 -186 c 4
 -369 -191 -369 -195 -369 -199 c 0
 -369 -211 -366 -220 -359 -228 c 4
 -350 -240 -336 -246 -318 -246 c 4
EndSplineSet
EndChar
StartChar: uni0E39
Encoding: 217 3641 186
OldEncoding: 3641
Width: 0
Flags: W
HStem: -529 113<-385 -359> -122 93<-489 -467>
VStem: -664 98<-228 -199> -438 97<-171 -140>
DStem: -245 -41 -120 -41 -316 -378 -196 -398
Fore
-525 -398 m 6
 -512 -339 l 5
 -560 -341 l 5
 -586 -339 -609 -330 -627 -314 c 4
 -643 -299 -654 -280 -661 -256 c 5
 -663 -247 -664 -238 -664 -228 c 0
 -664 -214 -663 -200 -660 -186 c 4
 -651 -144 -629 -108 -596 -78 c 4
 -561 -45 -517 -29 -467 -29 c 4
 -426 -29 -394 -42 -369 -69 c 4
 -350 -88 -341 -112 -341 -140 c 0
 -341 -150 -342 -161 -345 -173 c 6
 -388 -376 l 6
 -389 -381 -389 -385 -389 -389 c 0
 -389 -407 -379 -416 -359 -416 c 4
 -336 -416 -322 -403 -316 -378 c 6
 -245 -41 l 5
 -120 -41 l 5
 -196 -398 l 6
 -204 -437 -227 -468 -267 -493 c 4
 -305 -517 -345 -529 -385 -529 c 4
 -427 -529 -463 -517 -491 -493 c 4
 -515 -473 -527 -450 -527 -422 c 0
 -527 -414 -526 -406 -525 -398 c 6
-515 -246 m 4
 -496 -246 -479 -239 -465 -226 c 5
 -452 -215 -443 -201 -439 -184 c 4
 -438 -180 -438 -175 -438 -171 c 0
 -438 -160 -441 -150 -447 -140 c 4
 -456 -128 -470 -122 -489 -122 c 4
 -507 -122 -523 -128 -540 -140 c 5
 -553 -154 -561 -168 -564 -184 c 4
 -565 -189 -566 -195 -566 -199 c 0
 -566 -210 -563 -219 -558 -226 c 4
 -548 -239 -533 -246 -515 -246 c 4
EndSplineSet
EndChar
StartChar: uni0E3A
Encoding: 218 3642 187
OldEncoding: 3642
Width: 0
Flags: W
Fore
-192 -61 m 4
 -177 -61 -164 -65 -152 -72 c 0
 -143 -79 -135 -89 -131 -103 c 0
 -129 -108 -128 -114 -128 -121 c 0
 -128 -127 -128 -134 -130 -141 c 0
 -134 -162 -145 -181 -163 -198 c 0
 -179 -213 -200 -220 -226 -220 c 0
 -251 -220 -269 -213 -278 -198 c 0
 -287 -186 -292 -172 -292 -157 c 0
 -292 -152 -291 -147 -290 -141 c 0
 -286 -120 -273 -101 -254 -83 c 0
 -238 -68 -217 -61 -192 -61 c 4
EndSplineSet
EndChar
StartChar: dottedcircle
Encoding: 221 9676 188
OldEncoding: 65536
Width: 1269
VWidth: 1000
Flags: W
HStem: -19 100<656 677> 31 100<467 488> 45 100<842 863> 153 100<361 382> 169 100<978 999> 343 100<1063 1084> 352 100<354 375> 523 100<1053 1074> 531 100<451 472> 643 100<953 974> 653 100<613 634> 699 100<807 828>
Fore
451 603 m 6
613 725 m 6
467 103 m 6
361 225 m 6
842 117 m 6
978 241 m 6
1053 595 m 6
953 715 m 6
1063 415 m 6
354 424 m 6
807 771 m 6
472 631 m 0
 496 631 513 614 513 592 c 0
 513 588 512 585 511 581 c 0
 506 553 479 531 451 531 c 0
 427 531 410 548 410 570 c 0
 410 574 411 577 411 581 c 0
 417 609 444 631 472 631 c 0
461 581 m 0
 461 581 l 0
 461 581 l 0
 461 581 l 0
 461 581 l 0
634 753 m 0
 658 753 675 736 675 714 c 0
 675 710 674 707 673 703 c 0
 667 675 641 653 613 653 c 0
 589 653 572 670 572 692 c 0
 572 696 573 699 573 703 c 0
 579 731 606 753 634 753 c 0
623 703 m 0
 623 703 l 0
 623 703 l 0
 623 703 l 0
 623 703 l 0
488 131 m 0
 512 131 528 114 528 92 c 0
 528 88 528 85 527 81 c 0
 521 53 495 31 467 31 c 0
 442 31 426 48 426 70 c 0
 426 74 426 77 427 81 c 0
 433 109 460 131 488 131 c 0
477 81 m 0
 477 81 l 0
 477 81 l 0
 477 81 l 0
 477 81 l 0
382 253 m 0
 406 253 422 236 422 214 c 0
 422 210 422 207 421 203 c 0
 415 175 389 153 361 153 c 0
 336 153 320 170 320 192 c 0
 320 196 320 199 321 203 c 0
 327 231 354 253 382 253 c 0
371 203 m 0
 371 203 l 0
 371 203 l 0
 371 203 l 0
 371 203 l 0
863 145 m 0
 887 145 903 128 903 106 c 0
 903 102 903 99 902 95 c 0
 896 67 870 45 842 45 c 0
 817 45 801 62 801 84 c 0
 801 88 801 91 802 95 c 0
 808 123 835 145 863 145 c 0
852 95 m 0
 852 95 l 0
 852 95 l 0
 852 95 l 0
 852 95 l 0
999 269 m 0
 1023 269 1040 252 1040 230 c 0
 1040 226 1039 223 1039 219 c 0
 1033 191 1006 169 978 169 c 0
 954 169 937 186 937 208 c 0
 937 212 938 215 939 219 c 0
 945 247 971 269 999 269 c 0
989 219 m 0
 989 219 l 0
 989 219 l 0
 989 219 l 0
 989 219 l 0
1074 623 m 0
 1099 623 1115 606 1115 584 c 0
 1115 580 1115 577 1114 573 c 0
 1108 545 1081 523 1053 523 c 0
 1029 523 1013 540 1013 562 c 0
 1013 566 1013 569 1014 573 c 0
 1020 601 1046 623 1074 623 c 0
1064 573 m 0
 1064 573 l 0
 1064 573 l 0
 1064 573 l 0
 1064 573 l 0
974 743 m 0
 998 743 1014 726 1014 704 c 0
 1014 700 1014 697 1013 693 c 0
 1007 665 981 643 953 643 c 0
 928 643 912 660 912 682 c 0
 912 686 913 689 913 693 c 0
 919 721 946 743 974 743 c 0
963 693 m 0
 963 693 l 0
 963 693 l 0
 963 693 l 0
 963 693 l 0
1084 443 m 0
 1108 443 1125 426 1125 404 c 0
 1125 400 1124 397 1124 393 c 0
 1118 365 1091 343 1063 343 c 0
 1039 343 1022 360 1022 382 c 0
 1022 386 1023 389 1024 393 c 0
 1029 421 1056 443 1084 443 c 0
1074 393 m 0
 1074 393 l 0
 1074 393 l 0
 1074 393 l 0
 1074 393 l 0
375 452 m 0
 399 452 416 435 416 413 c 0
 416 409 415 406 414 402 c 0
 408 374 382 352 354 352 c 0
 330 352 313 369 313 391 c 0
 313 395 314 398 314 402 c 0
 320 430 347 452 375 452 c 0
364 402 m 0
 364 402 l 0
 364 402 l 0
 364 402 l 0
 364 402 l 0
677 81 m 0
 702 81 718 64 718 42 c 0
 718 38 717 35 717 31 c 0
 711 3 684 -19 656 -19 c 0
 632 -19 615 -2 615 20 c 0
 615 24 616 27 617 31 c 0
 623 59 649 81 677 81 c 0
667 31 m 0
 667 31 l 0
 667 31 l 0
 667 31 l 0
 667 31 l 0
828 799 m 0
 852 799 868 782 868 760 c 0
 868 756 868 753 867 749 c 0
 861 721 835 699 807 699 c 0
 782 699 766 716 766 738 c 0
 766 742 766 745 767 749 c 0
 773 777 800 799 828 799 c 0
817 749 m 0
 817 749 l 0
 817 749 l 0
 817 749 l 0
 817 749 l 0
EndSplineSet
EndChar
StartChar: uni0E3F
Encoding: 223 3647 189
OldEncoding: 3647
Width: 891
Flags: W
HStem: -20 20G<52 372> 797 164<256 541 651 673>
VStem: 696 189<320.558 338> 754 192<708 769>
DStem: 256 961 418 797 52 0 372 577 256 961 337 413 52 0 284 164 460 413 553 413 407 164 500 164 541 797 634 797 495 577 588 577 598 1065 691 1065 576 961 669 961
Fore
541 797 m 1
 418 797 l 1
 372 577 l 1
 495 577 l 1
 541 797 l 1
460 413 m 1
 337 413 l 1
 284 164 l 1
 407 164 l 1
 460 413 l 1
634 797 m 1
 588 577 l 1
 596 577 l 2
 640 577 675 587 700 607 c 0
 727 628 745 654 752 685 c 0
 753 696 754 705 754 714 c 0
 754 770 720 797 651 797 c 2
 634 797 l 1
553 413 m 1
 500 164 l 1
 515 164 l 2
 555 164 592 172 624 188 c 0
 660 205 681 242 692 299 c 0
 694 313 696 325 696 336 c 0
 696 362 688 380 672 389 c 1
 650 405 617 413 573 413 c 2
 553 413 l 1
372 0 m 5
 52 0 l 1
 256 961 l 1
 576 961 l 1
 598 1065 l 1
 691 1065 l 1
 669 961 l 1
 682 961 l 2
 714 961 754 955 801 943 c 0
 845 930 876 911 895 886 c 1
 919 866 935 845 942 822 c 1
 946 769 l 1
 946 709 l 1
 938 673 924 639 901 607 c 1
 880 572 850 540 812 512 c 1
 837 490 856 462 870 426 c 0
 880 397 885 366 885 335 c 0
 885 327 885 319 884 310 c 1
 872 254 855 207 831 170 c 0
 805 129 773 94 733 65 c 0
 672 22 589 0 485 0 c 2
 465 0 l 1
 448 -81 l 1
 355 -81 l 1
 372 0 l 5
EndSplineSet
EndChar
StartChar: uni0E40
Encoding: 224 3648 190
OldEncoding: 3648
Width: 404
Flags: W
HStem: -14 95<233 255> 201 97<277 283> 766 20G<247 381>
VStem: 106 98<104 128> 330 95<161 182>
DStem: 247 786 381 786 111 146 277 298
Fore
233 -14 m 0
 184 -14 148 2 127 33 c 0
 113 53 106 77 106 104 c 0
 106 117 108 131 111 146 c 2
 247 786 l 1
 381 786 l 1
 277 298 l 1
 299 298 l 2
 347 298 382 283 405 254 c 1
 418 235 425 211 425 182 c 0
 425 171 424 159 422 146 c 1
 412 99 391 61 358 33 c 0
 325 2 284 -14 233 -14 c 0
255 81 m 0
 273 81 289 86 302 97 c 0
 316 108 324 122 328 141 c 0
 329 148 330 155 330 161 c 0
 330 170 328 178 324 185 c 1
 315 196 301 201 281 201 c 0
 262 201 245 195 231 183 c 0
 218 172 209 158 205 141 c 0
 204 137 204 132 204 128 c 0
 204 117 207 108 215 99 c 0
 224 87 238 81 255 81 c 0
EndSplineSet
EndChar
StartChar: uni0E41
Encoding: 225 3649 191
OldEncoding: 3649
Width: 752
Flags: W
HStem: -14 95<212 234 583 603> 201 97<256 262 629 644.168> 766 20G<226 360 599 733>
VStem: 85 98<104 128> 309 95<159 182> 458 97<104 126> 678 97<159 177>
DStem: 226 786 360 786 90 146 256 298 599 786 733 786 463 146 629 298
Fore
212 -14 m 0
 163 -14 127 2 105 33 c 0
 92 53 85 77 85 104 c 0
 85 117 87 131 90 146 c 2
 226 786 l 1
 360 786 l 5
 256 298 l 1
 278 298 l 2
 325 298 361 283 384 254 c 1
 397 235 404 211 404 182 c 0
 404 171 403 159 401 146 c 1
 391 99 369 61 337 33 c 0
 304 2 262 -14 212 -14 c 0
583 -14 m 0
 533 -14 498 2 480 33 c 1
 466 52 458 76 458 104 c 0
 458 117 460 131 463 146 c 2
 599 786 l 1
 733 786 l 1
 629 298 l 1
 649 298 l 2
 695 298 730 283 752 252 c 0
 767 230 775 205 775 177 c 0
 775 167 774 157 772 146 c 1
 762 100 741 62 708 33 c 0
 672 2 631 -14 583 -14 c 0
234 81 m 0
 252 81 267 86 281 97 c 0
 294 108 303 122 307 141 c 0
 308 147 309 153 309 159 c 0
 309 169 307 178 302 185 c 1
 294 196 280 201 260 201 c 0
 241 201 224 195 210 183 c 0
 196 172 188 158 184 141 c 0
 183 137 183 132 183 128 c 0
 183 117 186 108 194 99 c 0
 203 87 217 81 234 81 c 0
603 81 m 0
 625 81 640 86 652 97 c 1
 664 108 672 122 676 141 c 0
 677 148 678 154 678 159 c 0
 678 170 675 178 670 185 c 1
 664 196 651 201 629 201 c 0
 611 201 594 195 581 183 c 0
 569 172 561 158 557 141 c 0
 556 136 555 130 555 126 c 0
 555 115 558 106 563 99 c 0
 574 87 588 81 603 81 c 0
EndSplineSet
EndChar
StartChar: uni0E42
Encoding: 226 3650 192
OldEncoding: 3650
Width: 517
Flags: W
HStem: -14 99<327 348> 196 102<372 385.511> 1247 115<658 681>
VStem: 201 102<105 129> 417 102<154 182>
DStem: 401 1062 534 1058 206 146 372 298
Fore
534 1058 m 6
 372 298 l 5
 393 298 l 6
 442 298 478 283 500 252 c 4
 513 233 519 210 519 182 c 0
 519 171 518 159 516 146 c 5
 506 101 487 64 453 33 c 4
 418 2 376 -14 327 -14 c 4
 279 -14 243 2 222 33 c 4
 208 54 201 78 201 105 c 0
 201 118 203 131 206 146 c 6
 401 1062 l 6
 406 1089 411 1113 412 1132 c 5
 410 1143 404 1156 394 1168 c 4
 383 1180 363 1192 336 1206 c 6
 190 1276 l 5
 198 1285 217 1302 246 1324 c 4
 272 1345 307 1368 351 1391 c 5
 397 1413 441 1424 480 1424 c 4
 509 1424 529 1421 542 1416 c 6
 607 1386 l 6
 638 1371 664 1362 681 1362 c 4
 703 1362 731 1374 768 1395 c 5
 792 1294 l 5
 743 1263 699 1247 658 1247 c 4
 626 1247 591 1257 555 1276 c 4
 521 1292 497 1302 483 1305 c 6
 451 1310 l 6
 442 1310 433 1308 423 1305 c 5
 408 1296 l 5
 460 1267 494 1247 512 1234 c 5
 527 1218 539 1198 545 1173 c 5
 546 1167 547 1160 547 1153 c 0
 547 1129 542 1098 534 1058 c 6
348 85 m 4
 367 85 382 91 394 102 c 4
 405 114 413 127 416 141 c 4
 417 145 417 149 417 154 c 0
 417 163 415 173 410 181 c 4
 404 191 391 196 372 196 c 4
 355 196 341 191 329 181 c 5
 316 170 307 157 304 141 c 4
 303 137 303 133 303 129 c 0
 303 118 306 109 313 102 c 5
 319 91 331 85 348 85 c 4
EndSplineSet
EndChar
StartChar: uni0E43
Encoding: 227 3651 193
OldEncoding: 3651
Width: 519
Flags: W
HStem: -14 99<331 352> 196 99<376 388.931> 1048 93<270 279> 1326 104<400 424>
VStem: 160 92<1142 1171> 203 105<106 129> 321 90<1189 1208> 423 101<155 178> 446 134<1278 1288>
DStem: 437 1221 573 1219 208 145 377 295
Fore
573 1219 m 6
 377 295 l 5
 397 295 l 6
 444 295 479 281 502 251 c 5
 516 231 524 207 524 178 c 0
 524 167 523 156 521 145 c 5
 511 101 490 63 458 32 c 4
 422 1 380 -14 331 -14 c 4
 282 -14 246 1 224 32 c 4
 210 53 203 78 203 106 c 0
 203 118 205 131 208 145 c 6
 437 1221 l 6
 442 1249 446 1271 446 1286 c 0
 446 1292 445 1296 444 1300 c 4
 441 1317 426 1326 400 1326 c 4
 375 1326 358 1323 351 1316 c 5
 339 1308 332 1302 329 1298 c 5
 364 1298 387 1285 399 1261 c 4
 407 1246 411 1229 411 1208 c 0
 411 1193 409 1177 405 1159 c 5
 383 1085 339 1048 272 1048 c 4
 241 1048 216 1055 196 1068 c 4
 174 1083 162 1102 160 1126 c 4
 160 1132 160 1137 160 1142 c 0
 160 1167 162 1187 166 1203 c 4
 179 1265 210 1318 259 1362 c 4
 309 1407 364 1430 424 1430 c 4
 486 1430 530 1411 555 1372 c 4
 572 1347 580 1317 580 1280 c 0
 580 1262 578 1241 573 1219 c 6
352 85 m 4
 370 85 385 91 397 101 c 4
 410 112 418 125 421 141 c 4
 422 146 423 150 423 155 c 0
 423 165 420 173 414 180 c 4
 407 191 394 196 376 196 c 4
 359 196 345 191 334 180 c 5
 321 170 312 157 309 141 c 4
 308 137 308 133 308 129 c 0
 308 118 311 109 317 101 c 5
 323 91 335 85 352 85 c 4
292 1214 m 4
 284 1214 276 1210 267 1203 c 4
 259 1197 256 1189 253 1178 c 4
 252 1174 252 1169 252 1166 c 0
 252 1160 253 1156 256 1152 c 4
 262 1145 269 1141 277 1141 c 4
 300 1141 314 1153 319 1178 c 4
 320 1182 321 1186 321 1190 c 0
 321 1206 311 1214 292 1214 c 4
EndSplineSet
EndChar
StartChar: uni0E44
Encoding: 228 3652 194
OldEncoding: 3652
Width: 590
Flags: W
HStem: -14 99<401 424> 196 102<448 461.983>
VStem: 277 101<105 127> 493 102<154 181>
DStem: 237 1296 346 1351 253 1022 360 1141 474 1365 509 1216 360 1141 400 1002 509 1216 667 1328 282 145 448 298
Fore
509 1216 m 5
 400 1002 l 5
 378 962 350 942 315 942 c 4
 294 942 280 948 270 960 c 4
 260 975 255 996 253 1022 c 5
 237 1296 l 5
 236 1323 225 1342 204 1353 c 5
 296 1430 l 5
 326 1416 343 1389 346 1351 c 5
 360 1141 l 5
 474 1365 l 6
 496 1407 533 1428 585 1428 c 4
 614 1428 636 1419 653 1402 c 4
 665 1391 671 1376 671 1357 c 0
 671 1348 670 1339 667 1328 c 6
 448 298 l 5
 467 298 l 6
 516 298 551 283 573 254 c 4
 588 234 595 210 595 181 c 0
 595 170 594 158 592 145 c 5
 582 99 560 61 526 32 c 5
 492 1 451 -14 401 -14 c 4
 351 -14 316 1 298 32 c 4
 284 53 277 77 277 105 c 0
 277 117 279 131 282 145 c 6
 509 1216 l 5
424 85 m 4
 444 85 459 91 469 101 c 4
 481 112 489 126 492 141 c 4
 493 146 493 150 493 154 c 0
 493 164 491 172 486 180 c 4
 481 191 468 196 448 196 c 4
 429 196 414 191 402 180 c 4
 391 169 383 156 380 141 c 4
 379 136 378 132 378 127 c 0
 378 118 381 109 385 101 c 4
 392 91 405 85 424 85 c 4
EndSplineSet
EndChar
StartChar: uni0E45
Encoding: 229 3653 195
OldEncoding: 3653
Width: 650
Flags: W
HStem: 699 106<404 440>
VStem: 531 138<606 639>
DStem: 527 569 661 567 319 -410 453 -410
Fore
106 592 m 1
 132 643 171 691 225 737 c 0
 279 783 351 805 440 805 c 0
 536 803 601 782 636 743 c 0
 658 717 669 682 669 639 c 0
 669 617 666 593 661 567 c 2
 453 -410 l 5
 319 -410 l 5
 527 569 l 2
 530 583 531 595 531 606 c 0
 531 668 489 699 404 699 c 0
 323 699 260 653 215 560 c 1
 106 592 l 1
EndSplineSet
EndChar
StartChar: uni0E46
Encoding: 230 3654 196
OldEncoding: 3654
Width: 851
Flags: W
HStem: 323 97<434 454> 503 99<468 493> 746 21G<626 626>
VStem: 736 135<621 642>
DStem: 726 557 863 571 601 -34 733 -43
Fore
502 686 m 5
 475 675 455 658 440 633 c 5
 427 618 418 601 410 582 c 5
 440 595 l 6
 453 600 470 602 493 602 c 4
 537 602 569 590 589 566 c 5
 601 548 607 526 607 502 c 0
 607 491 606 479 603 467 c 4
 595 427 576 393 547 365 c 5
 515 337 478 323 434 323 c 4
 377 325 335 346 306 385 c 4
 285 414 274 449 274 490 c 0
 274 506 276 524 279 542 c 4
 293 607 324 664 373 714 c 4
 420 762 473 792 531 805 c 5
 591 772 l 6
 613 758 626 751 626 746 c 0
 626 746 l 5
 728 805 l 5
 789 792 832 766 854 725 c 5
 866 701 871 673 871 642 c 0
 871 620 869 596 863 571 c 6
 733 -43 l 6
 717 -117 680 -175 619 -217 c 5
 555 -259 484 -287 405 -300 c 5
 395 -182 l 5
 470 -158 l 6
 512 -146 542 -132 560 -114 c 5
 579 -99 593 -72 601 -34 c 6
 726 557 l 6
 732 586 736 608 736 623 c 0
 736 629 735 633 734 637 c 4
 730 656 720 672 703 686 c 5
 600 628 l 5
 600 628 l 5
 563 649 l 5
 502 686 l 5
454 420 m 4
 467 420 477 425 486 434 c 5
 497 441 503 450 505 462 c 4
 506 466 507 470 507 474 c 0
 507 481 504 487 500 491 c 4
 495 499 485 503 472 503 c 4
 458 503 446 499 436 491 c 4
 429 485 424 476 421 462 c 4
 421 459 420 456 420 453 c 0
 420 446 422 439 426 434 c 4
 431 425 440 420 454 420 c 4
EndSplineSet
EndChar
StartChar: uni0E47
Encoding: 231 3655 197
OldEncoding: 3655
Width: 0
Flags: W
HStem: 837 88<-58 -39> 956 108<-267 -233> 1002 85<-25 -5> 1106 99<-90 -53> 1110 104<-223 -188>
VStem: 7 91<977 997>
Fore
-58 837 m 4
 -81 837 -100 843 -116 856 c 5
 -134 867 -153 881 -173 899 c 4
 -192 919 -208 933 -221 943 c 4
 -234 951 -249 956 -267 956 c 4
 -282 956 -299 942 -317 916 c 5
 -333 890 -345 862 -351 832 c 5
 -383 832 l 5
 -413 848 -435 878 -451 923 c 5
 -462 948 -468 974 -468 1001 c 0
 -468 1016 -466 1031 -463 1046 c 4
 -458 1069 -450 1089 -437 1108 c 4
 -414 1146 -383 1174 -346 1192 c 4
 -314 1207 -270 1214 -212 1214 c 6
 -184 1214 l 5
 -163 1212 l 6
 -123 1208 -87 1205 -53 1205 c 4
 -13 1205 18 1212 36 1226 c 4
 58 1242 74 1271 83 1312 c 5
 196 1312 l 5
 180 1238 150 1186 106 1154 c 4
 62 1122 -2 1106 -89 1106 c 4
 -121 1106 -154 1107 -188 1110 c 5
 -240 1110 -278 1104 -302 1091 c 4
 -326 1078 -341 1052 -350 1011 c 5
 -346 1019 -334 1030 -315 1046 c 5
 -295 1058 -268 1064 -233 1064 c 4
 -199 1064 -176 1059 -163 1048 c 4
 -151 1038 -141 1028 -133 1018 c 5
 -107 1064 -64 1087 -5 1087 c 4
 36 1087 64 1075 81 1053 c 4
 92 1037 98 1018 98 997 c 0
 98 987 97 976 94 965 c 4
 87 930 69 900 40 874 c 4
 12 849 -20 837 -58 837 c 4
-39 925 m 4
 -14 925 0 938 6 965 c 4
 7 969 7 973 7 977 c 0
 7 983 6 988 3 992 c 4
 -2 999 -10 1002 -23 1002 c 4
 -35 1002 -46 998 -56 990 c 4
 -64 983 -69 975 -71 965 c 4
 -72 960 -72 956 -72 952 c 0
 -72 934 -61 925 -39 925 c 4
EndSplineSet
EndChar
StartChar: uni0E48
Encoding: 232 3656 198
OldEncoding: 3656
Width: 0
Flags: W
DStem: 102 1568 223 1568 45 1297 166 1297
Fore
45 1297 m 1
 102 1568 l 1
 223 1568 l 1
 166 1297 l 5
 45 1297 l 1
EndSplineSet
EndChar
StartChar: uni0E49
Encoding: 233 3657 199
OldEncoding: 3657
Width: 0
Flags: W
HStem: 1552 80<44 63>
VStem: -86 81<1485 1505> 75 88<1514 1531>
Fore
160 1503 m 4
 150 1465 140 1438 129 1422 c 4
 118 1403 109 1393 103 1391 c 6
 135 1399 l 6
 154 1404 173 1411 191 1422 c 4
 208 1432 225 1446 242 1464 c 4
 265 1490 279 1513 285 1533 c 4
 294 1561 302 1591 309 1623 c 5
 420 1623 l 5
 389 1477 321 1382 217 1338 c 4
 157 1312 93 1299 26 1299 c 5
 -30 1304 l 5
 -61 1309 l 5
 -53 1347 l 5
 -24 1364 l 6
 -12 1372 -4 1381 -0 1391 c 5
 -34 1402 l 6
 -54 1408 -68 1421 -77 1440 c 4
 -83 1453 -86 1468 -86 1485 c 0
 -86 1494 -85 1504 -83 1515 c 4
 -76 1547 -58 1575 -30 1598 c 5
 -4 1621 26 1632 63 1632 c 4
 103 1632 131 1619 148 1594 c 5
 158 1573 163 1552 163 1531 c 0
 163 1521 162 1512 160 1503 c 4
27 1473 m 4
 39 1473 50 1477 58 1484 c 4
 66 1490 72 1500 74 1512 c 4
 75 1515 75 1518 75 1520 c 0
 75 1528 73 1534 68 1540 c 4
 63 1548 55 1552 44 1552 c 4
 18 1552 1 1539 -5 1512 c 4
 -5 1510 -5 1508 -5 1505 c 0
 -5 1499 -3 1492 1 1484 c 4
 7 1477 16 1473 27 1473 c 4
EndSplineSet
EndChar
StartChar: uni0E4A
Encoding: 234 3658 200
OldEncoding: 3658
Width: 0
Flags: W
HStem: 1285 68<-153 -138> 1514 86<52 88> 1519 81<-95 -72>
VStem: -103 73<1382 1403> 90 93<1482 1509> 250 95<1561 1583>
Fore
-153 1285 m 4
 -190 1285 -218 1302 -237 1335 c 4
 -249 1358 -254 1382 -254 1407 c 0
 -254 1423 -252 1438 -248 1454 c 4
 -240 1490 -221 1525 -190 1558 c 5
 -160 1586 -126 1600 -86 1600 c 4
 -60 1600 -41 1595 -28 1586 c 5
 -14 1571 -7 1563 -6 1560 c 5
 -6 1560 7 1569 32 1586 c 4
 48 1595 67 1600 88 1600 c 4
 126 1600 153 1588 169 1565 c 4
 178 1550 183 1531 183 1509 c 0
 183 1496 181 1483 178 1468 c 4
 172 1440 166 1421 159 1412 c 4
 153 1401 143 1386 130 1368 c 5
 132 1369 141 1375 159 1386 c 5
 175 1395 187 1407 196 1421 c 4
 221 1458 237 1491 245 1519 c 4
 248 1535 250 1552 250 1570 c 0
 250 1570 250 1571 250 1572 c 5
 344 1604 l 5
 345 1597 345 1590 345 1583 c 0
 345 1569 344 1556 341 1542 c 4
 328 1482 301 1428 257 1380 c 5
 225 1346 191 1325 156 1317 c 4
 111 1305 63 1299 11 1299 c 5
 15 1317 l 5
 16 1333 l 5
 51 1368 l 5
 67 1387 79 1410 84 1437 c 4
 88 1455 90 1470 90 1482 c 0
 90 1494 l 5
 84 1507 72 1514 52 1514 c 4
 35 1514 22 1511 15 1505 c 4
 6 1499 -3 1493 -9 1486 c 5
 -9 1486 l 5
 -9 1486 l 0
 -9 1488 -16 1494 -30 1503 c 4
 -42 1513 -59 1519 -81 1519 c 4
 -116 1519 -138 1503 -147 1472 c 5
 -132 1477 l 5
 -99 1479 l 5
 -71 1477 -52 1467 -41 1450 c 5
 -33 1436 -30 1420 -30 1403 c 0
 -30 1394 -31 1385 -33 1375 c 4
 -38 1352 -52 1332 -74 1313 c 4
 -99 1294 -126 1285 -153 1285 c 4
-128 1412 m 4
 -149 1412 -162 1402 -166 1382 c 4
 -167 1379 -167 1376 -167 1373 c 0
 -167 1359 -158 1353 -140 1353 c 4
 -120 1353 -107 1362 -103 1382 c 4
 -103 1385 -102 1388 -102 1391 c 0
 -102 1405 -111 1412 -128 1412 c 4
EndSplineSet
EndChar
StartChar: uni0E4B
Encoding: 235 3659 201
OldEncoding: 3659
Width: 0
Flags: W
HStem: 1409 106<-26 67 206 299>
Fore
67 1409 m 5
 -48 1409 l 5
 -25 1515 l 5
 90 1515 l 5
 112 1617 l 5
 228 1617 l 5
 206 1515 l 5
 322 1515 l 5
 299 1409 l 5
 183 1409 l 5
 162 1309 l 5
 46 1309 l 5
 67 1409 l 5
EndSplineSet
EndChar
StartChar: uni0E4C
Encoding: 236 3660 202
OldEncoding: 3660
Width: 0
Flags: W
HStem: 1237 79<88 102>
VStem: -35 102<1334.38 1356> 146 85<1364 1387>
Fore
312 1482 m 4
 313 1482 313 1482 313 1482 c 0
 313 1482 313 1483 312 1483 c 0
 305 1483 264 1478 190 1471 c 5
 141 1469 l 5
 175 1469 200 1459 216 1438 c 4
 226 1423 231 1406 231 1387 c 0
 231 1380 230 1371 229 1363 c 4
 223 1329 209 1301 181 1277 c 4
 154 1250 123 1237 89 1237 c 4
 80 1237 l 0
 39 1237 9 1250 -11 1277 c 5
 -27 1295 -35 1317 -35 1344 c 0
 -35 1355 -34 1366 -31 1378 c 4
 -15 1456 27 1508 93 1535 c 4
 126 1549 165 1557 211 1559 c 4
 254 1561 289 1567 316 1575 c 4
 338 1582 353 1602 360 1635 c 5
 457 1635 l 5
 448 1594 431 1561 407 1535 c 5
 383 1505 351 1487 312 1482 c 4
116 1392 m 4
 89 1392 73 1380 68 1356 c 4
 67 1351 67 1347 67 1343 c 0
 67 1325 78 1316 100 1316 c 4
 110 1316 120 1320 129 1328 c 4
 138 1334 143 1344 145 1356 c 4
 146 1359 146 1362 146 1364 c 0
 146 1371 144 1376 141 1381 c 4
 134 1388 126 1392 116 1392 c 4
EndSplineSet
EndChar
StartChar: uni0E4D
Encoding: 237 3661 203
OldEncoding: 3661
Width: 0
Flags: W
HStem: 903 95<-48 -28> 1121 95<-3 18>
VStem: -175 99<1025 1044> 48 97<1074 1096>
Fore
18 1216 m 4
 66 1216 102 1201 125 1170 c 5
 139 1147 145 1123 145 1096 c 0
 145 1085 144 1073 142 1061 c 4
 133 1021 111 983 76 949 c 5
 40 918 -1 903 -48 903 c 4
 -95 903 -131 918 -153 949 c 5
 -168 972 -175 997 -175 1025 c 0
 -175 1036 -174 1049 -171 1061 c 4
 -163 1103 -141 1140 -106 1170 c 4
 -71 1201 -29 1216 18 1216 c 4
-28 998 m 4
 -10 998 6 1004 20 1017 c 4
 34 1028 42 1042 47 1061 c 4
 48 1066 48 1070 48 1074 c 0
 48 1085 45 1094 38 1102 c 4
 30 1115 16 1121 -2 1121 c 4
 -20 1121 -36 1115 -49 1104 c 4
 -62 1094 -71 1079 -74 1061 c 4
 -76 1055 -76 1049 -76 1044 c 0
 -76 1033 -74 1024 -68 1017 c 4
 -58 1004 -45 998 -28 998 c 4
EndSplineSet
EndChar
